<?xml version="1.0" encoding="UTF-8"?> <svg xmlns="http://www.w3.org/2000/svg" width="594" height="355" viewBox="0 0 594 355" fill="none"> <g clip-path="url(#clip0_10_9645)"> <mask id="path-1-inside-1_10_9645" fill="white"> <path fill-rule="evenodd" clip-rule="evenodd" d="M26.1621 69.2172C40.294 66.2404 54.1633 75.2835 57.1401 89.4154L62.53 115.004L88.1175 109.614C102.249 106.638 116.119 115.681 119.095 129.812C122.072 143.944 113.029 157.814 98.8972 160.79L73.3098 166.18L78.6996 191.768C81.6763 205.9 72.6332 219.769 58.5013 222.746C44.3694 225.723 30.5001 216.679 27.5233 202.548L22.1336 176.96L-3.45521 182.35C-17.5871 185.327 -31.4564 176.284 -34.4332 162.152C-37.4099 148.02 -28.3668 134.15 -14.2349 131.174L11.3538 125.784L5.96386 100.195C2.98711 86.0632 12.0302 72.1939 26.1621 69.2172Z"></path> </mask> <path d="M57.1401 89.4154L60.0756 88.797L60.0756 88.797L57.1401 89.4154ZM26.1621 69.2171L26.7804 72.1527L26.1621 69.2171ZM62.53 115.004L59.5945 115.622L60.2128 118.558L63.1484 117.94L62.53 115.004ZM88.1175 109.614L88.7358 112.55L88.7358 112.55L88.1175 109.614ZM119.095 129.812L116.16 130.431L116.16 130.431L119.095 129.812ZM98.8972 160.79L98.2788 157.855L98.2788 157.855L98.8972 160.79ZM73.3098 166.18L72.6914 163.245L69.7559 163.863L70.3742 166.799L73.3098 166.18ZM78.6996 191.768L81.6351 191.149L81.6351 191.149L78.6996 191.768ZM58.5013 222.746L59.1197 225.681L59.1197 225.681L58.5013 222.746ZM27.5233 202.548L30.4589 201.929L30.4589 201.929L27.5233 202.548ZM22.1336 176.96L25.0692 176.342L24.4508 173.406L21.5152 174.024L22.1336 176.96ZM-3.45521 182.35L-4.07356 179.414L-4.07356 179.414L-3.45521 182.35ZM-34.4332 162.152L-37.3688 162.77L-37.3688 162.77L-34.4332 162.152ZM-14.2349 131.174L-14.8533 128.238L-14.8533 128.238L-14.2349 131.174ZM11.3538 125.784L11.9722 128.719L14.9078 128.101L14.2894 125.165L11.3538 125.784ZM5.96386 100.195L8.89944 99.5768L8.89944 99.5768L5.96386 100.195ZM60.0756 88.797C56.7574 73.0439 41.2969 62.9633 25.5437 66.2816L26.7804 72.1527C39.2911 69.5175 51.5692 77.5231 54.2045 90.0337L60.0756 88.797ZM65.4656 114.386L60.0756 88.797L54.2045 90.0337L59.5945 115.622L65.4656 114.386ZM87.4991 106.679L61.9117 112.068L63.1484 117.94L88.7358 112.55L87.4991 106.679ZM122.031 129.194C118.713 113.441 103.252 103.36 87.4991 106.679L88.7358 112.55C101.246 109.915 113.525 117.92 116.16 130.431L122.031 129.194ZM99.5155 163.726C115.269 160.408 125.349 144.947 122.031 129.194L116.16 130.431C118.795 142.941 110.789 155.22 98.2788 157.855L99.5155 163.726ZM73.9281 169.116L99.5155 163.726L98.2788 157.855L72.6914 163.245L73.9281 169.116ZM81.6351 191.149L76.2454 165.562L70.3742 166.799L75.764 192.386L81.6351 191.149ZM59.1197 225.681C74.8729 222.363 84.9534 206.903 81.6351 191.149L75.764 192.386C78.3992 204.897 70.3936 217.175 57.883 219.81L59.1197 225.681ZM24.5878 203.166C27.906 218.919 43.3665 229 59.1197 225.681L57.883 219.81C45.3723 222.445 33.0942 214.44 30.4589 201.929L24.5878 203.166ZM19.198 177.578L24.5878 203.166L30.4589 201.929L25.0692 176.342L19.198 177.578ZM-2.83686 185.286L22.7519 179.896L21.5152 174.024L-4.07356 179.414L-2.83686 185.286ZM-37.3688 162.77C-34.0505 178.523 -18.5901 188.604 -2.83686 185.286L-4.07356 179.414C-16.5842 182.05 -28.8624 174.044 -31.4976 161.533L-37.3688 162.77ZM-14.8533 128.238C-30.6065 131.556 -40.687 147.017 -37.3688 162.77L-31.4976 161.533C-34.1328 149.023 -26.1272 136.745 -13.6166 134.109L-14.8533 128.238ZM10.7355 122.848L-14.8533 128.238L-13.6166 134.109L11.9722 128.719L10.7355 122.848ZM3.02828 100.813L8.41825 126.402L14.2894 125.165L8.89944 99.5768L3.02828 100.813ZM25.5437 66.2816C9.79055 69.5998 -0.289975 85.0603 3.02828 100.813L8.89944 99.5768C6.2642 87.0661 14.2698 74.788 26.7804 72.1527L25.5437 66.2816Z" fill="#719EEF" mask="url(#path-1-inside-1_10_9645)"></path> <mask id="mask0_10_9645" style="mask-type:alpha" maskUnits="userSpaceOnUse" x="212" y="6" width="175" height="175"> <circle cx="299.563" cy="93.2134" r="87.1653" fill="#C4C4C4"></circle> </mask> <g mask="url(#mask0_10_9645)"> <path fill-rule="evenodd" clip-rule="evenodd" d="M299.563 177.379C346.046 177.379 383.728 139.697 383.728 93.2134C383.728 46.7301 346.046 9.04803 299.563 9.04803C253.08 9.04803 215.398 46.7301 215.398 93.2134C215.398 139.697 253.08 177.379 299.563 177.379ZM299.563 180.379C347.703 180.379 386.728 141.353 386.728 93.2134C386.728 45.0733 347.703 6.04803 299.563 6.04803C251.423 6.04803 212.398 45.0733 212.398 93.2134C212.398 141.353 251.423 180.379 299.563 180.379Z" fill="#719EEF"></path> </g> <mask id="path-5-inside-2_10_9645" fill="white"> <path fill-rule="evenodd" clip-rule="evenodd" d="M447.857 2.06763C424.338 -5.32783 399.276 7.74314 391.881 31.2624L384.773 53.8676C377.377 77.3869 390.448 102.448 413.968 109.844C437.435 117.223 462.439 104.225 469.895 80.8033C462.606 104.277 475.671 129.244 499.139 136.623C522.658 144.018 547.719 130.947 555.115 107.428L562.223 84.823C569.618 61.3038 556.547 36.2424 533.028 28.8469C509.56 21.4676 484.557 34.4656 477.1 57.8881C484.39 34.414 471.325 9.44679 447.857 2.06763ZM562.223 84.8269C569.618 61.3076 594.68 48.2366 618.199 55.6321C641.718 63.0276 654.789 88.0889 647.394 111.608L640.286 134.213C632.89 157.733 607.829 170.804 584.31 163.408C560.79 156.013 547.719 130.951 555.115 107.432L562.223 84.8269Z"></path> </mask> <path d="M391.881 31.2624L394.743 32.1623L394.743 32.1623L391.881 31.2624ZM447.857 2.06763L448.757 -0.794222L448.757 -0.794222L447.857 2.06763ZM384.773 53.8676L381.911 52.9677L381.911 52.9677L384.773 53.8676ZM413.968 109.844L414.868 106.982L414.868 106.982L413.968 109.844ZM469.895 80.8033L472.76 81.6929L467.036 79.8933L469.895 80.8033ZM499.139 136.623L498.239 139.485L498.239 139.485L499.139 136.623ZM555.115 107.428L557.977 108.328L557.977 108.328L555.115 107.428ZM562.223 84.823L559.361 83.9231L559.361 83.9231L562.223 84.823ZM533.028 28.8469L532.128 31.7088L532.128 31.7088L533.028 28.8469ZM477.1 57.8881L474.235 56.9985L479.959 58.7981L477.1 57.8881ZM618.199 55.6321L617.299 58.4939L617.299 58.4939L618.199 55.6321ZM562.223 84.8269L565.085 85.7268L565.085 85.7268L562.223 84.8269ZM647.394 111.608L644.532 110.708L644.532 110.708L647.394 111.608ZM640.286 134.213L643.147 135.113L643.147 135.113L640.286 134.213ZM584.31 163.408L583.41 166.27L583.41 166.27L584.31 163.408ZM555.115 107.432L552.253 106.532L552.253 106.532L555.115 107.432ZM394.743 32.1623C401.641 10.2236 425.018 -1.96899 446.957 4.92948L448.757 -0.794222C423.657 -8.68668 396.912 5.2627 389.019 30.3625L394.743 32.1623ZM387.635 54.7675L394.743 32.1623L389.019 30.3625L381.911 52.9677L387.635 54.7675ZM414.868 106.982C392.929 100.083 380.736 76.7062 387.635 54.7675L381.911 52.9677C374.019 78.0675 387.968 104.813 413.068 112.706L414.868 106.982ZM467.036 79.8933C460.081 101.741 436.758 113.865 414.868 106.982L413.068 112.706C438.113 120.581 464.796 106.71 472.754 81.7134L467.036 79.8933ZM467.03 79.9137C459.251 104.965 473.194 131.61 498.239 139.485L500.038 133.761C478.148 126.878 465.961 103.589 472.76 81.6929L467.03 79.9137ZM498.239 139.485C523.339 147.377 550.084 133.428 557.977 108.328L552.253 106.528C545.354 128.467 521.977 140.66 500.038 133.761L498.239 139.485ZM557.977 108.328L565.085 85.7229L559.361 83.9231L552.253 106.528L557.977 108.328ZM565.085 85.7229C572.977 60.6231 559.028 33.8775 533.928 25.9851L532.128 31.7088C554.067 38.6073 566.259 61.9844 559.361 83.9231L565.085 85.7229ZM533.928 25.9851C508.883 18.1098 482.199 31.9813 474.242 56.9781L479.959 58.7981C486.914 36.9499 510.237 24.8254 532.128 31.7088L533.928 25.9851ZM446.957 4.92948C468.848 11.8127 481.035 35.1021 474.235 56.9985L479.966 58.7778C487.745 33.7259 473.802 7.08085 448.757 -0.794222L446.957 4.92948ZM619.099 52.7702C593.999 44.8778 567.253 58.8272 559.361 83.927L565.085 85.7268C571.983 63.788 595.36 51.5955 617.299 58.4939L619.099 52.7702ZM650.255 112.508C658.148 87.4082 644.199 60.6627 619.099 52.7702L617.299 58.4939C639.238 65.3924 651.43 88.7696 644.532 110.708L650.255 112.508ZM643.147 135.113L650.255 112.508L644.532 110.708L637.424 133.313L643.147 135.113ZM583.41 166.27C608.509 174.162 635.255 160.213 643.147 135.113L637.424 133.313C630.525 155.252 607.148 167.445 585.209 160.546L583.41 166.27ZM552.253 106.532C544.36 131.632 558.31 158.378 583.41 166.27L585.209 160.546C563.271 153.648 551.078 130.271 557.977 108.332L552.253 106.532ZM559.361 83.927L552.253 106.532L557.977 108.332L565.085 85.7268L559.361 83.927Z" fill="#719EEF" mask="url(#path-5-inside-2_10_9645)"></path> <mask id="path-7-inside-3_10_9645" fill="white"> <path fill-rule="evenodd" clip-rule="evenodd" d="M255.704 166.84C240.673 154.805 218.731 157.233 206.696 172.265L128.18 270.324L98.6229 233.409C86.5875 218.378 64.6454 215.949 49.6141 227.985C34.5827 240.02 32.154 261.962 44.1895 276.993L82.4006 324.716C93.5995 338.703 113.376 341.778 128.181 332.441C142.985 341.777 162.761 338.702 173.96 324.716L261.129 215.849C273.164 200.818 270.736 178.876 255.704 166.84Z"></path> </mask> <path d="M206.696 172.265L209.037 174.14L209.037 174.14L206.696 172.265ZM255.704 166.84L257.579 164.498L257.579 164.498L255.704 166.84ZM128.18 270.324L125.839 272.199L128.18 275.124L130.522 272.199L128.18 270.324ZM98.623 233.409L100.965 231.534L100.965 231.534L98.623 233.409ZM49.6141 227.985L51.4891 230.326L51.4891 230.326L49.6141 227.985ZM44.1895 276.993L46.5313 275.118L46.5313 275.118L44.1895 276.993ZM82.4006 324.716L84.7424 322.841L84.7424 322.841L82.4006 324.716ZM128.181 332.441L129.781 329.904L128.181 328.895L126.58 329.904L128.181 332.441ZM173.96 324.716L176.302 326.591L176.302 326.591L173.96 324.716ZM261.129 215.849L263.471 217.724L263.471 217.724L261.129 215.849ZM209.037 174.14C220.037 160.402 240.091 158.182 253.829 169.182L257.579 164.498C241.255 151.427 217.425 154.065 204.354 170.39L209.037 174.14ZM130.522 272.199L209.037 174.14L204.354 170.39L125.839 268.449L130.522 272.199ZM130.522 268.449L100.965 231.534L96.2811 235.284L125.839 272.199L130.522 268.449ZM100.965 231.534C87.8937 215.209 64.0637 212.572 47.739 225.643L51.4891 230.326C65.2272 219.326 85.2812 221.546 96.2811 235.284L100.965 231.534ZM47.739 225.643C31.4143 238.714 28.7767 262.544 41.8477 278.869L46.5313 275.118C35.5314 261.38 37.7511 241.326 51.4891 230.326L47.739 225.643ZM41.8477 278.869L80.0588 326.591L84.7424 322.841L46.5313 275.118L41.8477 278.869ZM80.0588 326.591C92.2226 341.783 113.699 345.12 129.781 334.979L126.58 329.904C113.052 338.435 94.9764 335.623 84.7424 322.841L80.0588 326.591ZM171.618 322.841C161.385 335.622 143.309 338.435 129.781 329.904L126.58 334.979C142.662 345.12 164.138 341.783 176.302 326.591L171.618 322.841ZM258.787 213.974L171.618 322.841L176.302 326.591L263.471 217.724L258.787 213.974ZM253.829 169.182C267.567 180.182 269.787 200.236 258.787 213.974L263.471 217.724C276.542 201.399 273.904 177.569 257.579 164.498L253.829 169.182Z" fill="#719EEF" mask="url(#path-7-inside-3_10_9645)"></path> <mask id="path-9-inside-4_10_9645" fill="white"> <path fill-rule="evenodd" clip-rule="evenodd" d="M481.391 151.378C470.468 140.455 452.759 140.455 441.836 151.378L422.056 171.159L402.281 151.384C391.358 140.461 373.649 140.461 362.727 151.384C351.804 162.307 351.804 180.016 362.727 190.939L382.501 210.713L362.727 230.487C351.805 241.409 351.805 259.119 362.727 270.041C373.65 280.964 391.359 280.964 402.282 270.041L422.056 250.267L441.835 270.047C452.758 280.97 470.467 280.97 481.39 270.047C492.313 259.125 492.312 241.416 481.39 230.493L461.61 210.713L481.391 190.932C492.313 180.01 492.313 162.301 481.391 151.378Z"></path> </mask> <path d="M441.836 151.378L443.958 153.499L443.958 153.499L441.836 151.378ZM481.391 151.378L483.512 149.257L483.512 149.257L481.391 151.378ZM422.056 171.159L419.934 173.28L422.056 175.401L424.177 173.28L422.056 171.159ZM402.281 151.384L404.402 149.263L404.402 149.263L402.281 151.384ZM362.727 151.384L364.848 153.505L364.848 153.505L362.727 151.384ZM362.727 190.939L360.605 193.06L362.727 190.939ZM382.501 210.713L384.623 212.834L386.744 210.713L384.623 208.592L382.501 210.713ZM362.727 230.487L364.849 232.608L364.849 232.608L362.727 230.487ZM362.727 270.041L360.606 272.162L360.606 272.162L362.727 270.041ZM402.282 270.041L400.161 267.92L400.161 267.92L402.282 270.041ZM422.056 250.267L424.177 248.146L422.056 246.025L419.934 248.146L422.056 250.267ZM441.835 270.047L443.957 267.926L443.957 267.926L441.835 270.047ZM481.39 270.047L483.511 272.169L483.511 272.169L481.39 270.047ZM481.39 230.493L479.269 232.614L479.269 232.614L481.39 230.493ZM461.61 210.713L459.489 208.592L457.367 210.713L459.489 212.834L461.61 210.713ZM481.391 190.932L483.512 193.054L483.512 193.054L481.391 190.932ZM443.958 153.499C453.709 143.748 469.518 143.748 479.269 153.499L483.512 149.257C471.418 137.162 451.809 137.162 439.715 149.257L443.958 153.499ZM424.177 173.28L443.958 153.499L439.715 149.257L419.934 169.037L424.177 173.28ZM400.16 153.505L419.934 173.28L424.177 169.037L404.402 149.263L400.16 153.505ZM364.848 153.505C374.599 143.754 390.409 143.754 400.16 153.505L404.402 149.263C392.308 137.169 372.7 137.169 360.605 149.263L364.848 153.505ZM364.848 188.817C355.097 179.066 355.097 163.256 364.848 153.505L360.605 149.263C348.511 161.357 348.511 180.966 360.605 193.06L364.848 188.817ZM384.623 208.592L364.848 188.817L360.605 193.06L380.38 212.834L384.623 208.592ZM364.849 232.608L384.623 212.834L380.38 208.592L360.606 228.365L364.849 232.608ZM364.849 267.92C355.098 258.169 355.098 242.359 364.849 232.608L360.606 228.365C348.512 240.46 348.512 260.068 360.606 272.162L364.849 267.92ZM400.161 267.92C390.41 277.671 374.6 277.671 364.849 267.92L360.606 272.162C372.7 284.257 392.309 284.257 404.403 272.162L400.161 267.92ZM419.934 248.146L400.161 267.92L404.403 272.162L424.177 252.389L419.934 248.146ZM443.957 267.926L424.177 248.146L419.934 252.389L439.714 272.169L443.957 267.926ZM479.269 267.926C469.517 277.677 453.708 277.677 443.957 267.926L439.714 272.169C451.808 284.263 471.417 284.263 483.511 272.169L479.269 267.926ZM479.269 232.614C489.02 242.365 489.02 258.175 479.269 267.926L483.511 272.169C495.605 260.074 495.605 240.466 483.511 228.372L479.269 232.614ZM459.489 212.834L479.269 232.614L483.511 228.372L463.731 208.592L459.489 212.834ZM479.269 188.811L459.489 208.592L463.731 212.834L483.512 193.054L479.269 188.811ZM479.269 153.499C489.02 163.25 489.02 179.06 479.269 188.811L483.512 193.054C495.606 180.959 495.606 161.351 483.512 149.257L479.269 153.499Z" fill="#719EEF" mask="url(#path-9-inside-4_10_9645)"></path> <path fill-rule="evenodd" clip-rule="evenodd" d="M327.171 282.211L187.966 319.511C174.217 323.195 166.058 337.326 169.742 351.075L177.777 381.06C181.46 394.808 195.592 402.967 209.341 399.283L348.546 361.983C362.294 358.299 370.453 344.168 366.769 330.419L358.735 300.434C355.051 286.686 340.919 278.527 327.171 282.211ZM187.189 316.613C171.84 320.726 162.732 336.502 166.844 351.851L174.879 381.836C178.992 397.185 194.768 406.294 210.117 402.181L349.322 364.881C364.671 360.768 373.78 344.992 369.667 329.643L361.633 299.658C357.52 284.309 341.743 275.2 326.394 279.313L187.189 316.613Z" fill="#719EEF"></path> <path fill-rule="evenodd" clip-rule="evenodd" d="M604.049 192.586L596.327 179.324C588.934 166.626 571.662 164.081 560.92 174.107L549.701 184.579C544.378 189.548 537.374 192.323 530.092 192.35L514.746 192.407C500.052 192.461 489.213 206.146 492.525 220.462L495.984 235.413C497.625 242.508 496.527 249.961 492.909 256.281L485.285 269.6C477.985 282.352 484.417 298.582 498.471 302.871L513.149 307.351C520.114 309.477 526.019 314.155 529.683 320.448L537.406 333.71C544.799 346.408 562.071 348.953 572.813 338.926L584.031 328.455C589.355 323.486 596.359 320.711 603.641 320.684L618.987 320.627C633.681 320.573 644.52 306.888 641.208 292.572L637.749 277.621C636.108 270.526 637.206 263.073 640.824 256.753L648.448 243.434C655.748 230.682 649.316 214.452 635.262 210.163L620.584 205.683C613.619 203.557 607.714 198.879 604.049 192.586ZM598.92 177.814C590.557 163.452 571.023 160.574 558.873 171.914L547.654 182.386C542.884 186.839 536.607 189.326 530.081 189.35L514.735 189.407C498.116 189.468 485.856 204.946 489.602 221.138L493.061 236.089C494.532 242.448 493.548 249.127 490.306 254.791L482.681 268.109C474.425 282.532 481.7 300.889 497.595 305.74L512.273 310.221C518.515 312.126 523.807 316.318 527.091 321.957L534.813 335.219C543.176 349.581 562.71 352.459 574.86 341.12L586.078 330.648C590.849 326.195 597.126 323.708 603.652 323.684L618.998 323.627C635.617 323.566 647.877 308.088 644.131 291.896L640.672 276.945C639.201 270.586 640.185 263.907 643.427 258.243L651.051 244.925C659.308 230.501 652.033 212.145 636.138 207.293L621.46 202.813C615.218 200.908 609.926 196.716 606.642 191.076L598.92 177.814Z" fill="#719EEF"></path> <path fill-rule="evenodd" clip-rule="evenodd" d="M471.835 285.701L471.802 285.674C465.528 280.399 456.57 278.153 447.632 280.548C435.889 283.694 428.094 293.735 427.75 304.527L427.749 304.57L427.746 304.613C427.628 306.562 426.257 307.937 424.702 308.354C423.143 308.771 421.216 308.258 420.181 306.521C414.48 297.366 402.721 292.582 390.991 295.725C381.983 298.138 375.35 304.566 372.555 312.267L372.541 312.306L372.526 312.344C368.873 321.61 371.969 330.876 379.319 339.907L379.32 339.908C386.16 348.321 396.388 355.996 406.947 362.58C418.662 369.821 430.571 375.468 438.206 378.826C441.736 380.378 445.771 379.312 448.039 376.234C455.151 366.577 467.475 348.477 474.706 330.268C478.325 321.154 480.575 312.239 480.398 304.461C480.223 296.78 477.703 290.358 471.868 285.727L471.835 285.701ZM422.748 304.968C423.283 305.896 424.685 305.52 424.752 304.431C424.758 304.219 424.768 304.008 424.779 303.797C424.781 303.766 424.783 303.735 424.785 303.704C424.801 303.435 424.821 303.166 424.845 302.899C424.851 302.835 424.857 302.771 424.863 302.707C425.98 291.217 434.512 280.958 446.856 277.65C456.741 275.001 466.71 277.473 473.733 283.377C500.494 304.616 464.762 358.588 450.455 378.013C447.345 382.235 441.799 383.683 436.998 381.572C429.294 378.184 417.244 372.471 405.364 365.129C394.706 358.484 384.146 350.599 376.992 341.801C369.308 332.359 365.515 321.946 369.735 311.244C372.865 302.619 380.262 295.494 390.215 292.827C402.558 289.519 415.077 294.138 421.79 303.531C421.823 303.577 421.856 303.624 421.889 303.67C422.031 303.872 422.171 304.076 422.308 304.283C422.324 304.307 422.339 304.331 422.355 304.354C422.489 304.557 422.62 304.761 422.748 304.968Z" fill="#719EEF"></path> <path fill-rule="evenodd" clip-rule="evenodd" d="M94.8142 56.4649L143.95 187.403L226.748 156.332L177.612 25.3941L94.8142 56.4649ZM91.8877 54.3588C91.3706 54.5528 91.1087 55.1293 91.3028 55.6464L141.844 190.329C142.038 190.846 142.614 191.108 143.132 190.914L229.674 158.438C230.191 158.244 230.453 157.667 230.259 157.15L179.718 22.4675C179.524 21.9505 178.948 21.6886 178.431 21.8826L91.8877 54.3588Z" fill="#719EEF"></path> </g> <defs> <clipPath id="clip0_10_9645"> <rect width="594" height="355" fill="white"></rect> </clipPath> </defs> </svg> 