<?xml version="1.0" encoding="UTF-8"?> <svg xmlns="http://www.w3.org/2000/svg" width="594" height="355" viewBox="0 0 594 355" fill="none"> <g clip-path="url(#clip0_10_9541)"> <path d="M540.667 305.779H41.3481V372.861H540.667V305.779Z" stroke="#10AD78" stroke-width="3" stroke-miterlimit="10"></path> <path d="M185.304 164.938C185.304 153.384 180.714 142.304 172.544 134.134C164.375 125.964 153.294 121.374 141.74 121.374H-115V277.486H141.74C147.461 277.486 153.126 276.359 158.411 274.17C163.697 271.981 168.499 268.772 172.544 264.726C176.59 260.681 179.798 255.879 181.988 250.593C184.177 245.308 185.304 239.643 185.304 233.922V233.922C185.308 227.258 183.78 220.682 180.838 214.703C177.896 208.723 173.618 203.5 168.336 199.436C173.621 195.372 177.899 190.147 180.842 184.165C183.784 178.183 185.31 171.604 185.304 164.938Z" stroke="#10AD78" stroke-width="3" stroke-miterlimit="10"></path> <path d="M214.53 80.8588C222.919 84.4313 230.329 89.9629 236.139 96.9899C241.009 102.811 244.928 109.366 247.75 116.411C250.598 123.513 252.012 131.605 251.992 140.687C251.992 151.655 249.224 162.437 243.69 173.034C238.155 183.63 229.019 191.122 216.282 195.51C226.935 199.788 234.479 205.87 238.915 213.756C243.351 221.641 245.572 233.676 245.581 249.86V265.367C245.581 275.911 246.005 283.063 246.853 286.824C248.126 292.775 251.095 297.16 255.761 299.98V305.773H202.532C201.065 300.659 200.021 296.534 199.399 293.399C198.136 286.843 197.455 280.187 197.363 273.511L197.078 252.035C196.876 237.31 194.331 227.493 189.443 222.585C184.555 217.676 175.384 215.23 161.932 215.246H114.817V305.773H67.6719V74.896H178.099C193.879 75.2151 206.022 77.2028 214.53 80.8588ZM114.817 115V177.027H166.737C177.043 177.027 184.777 175.775 189.94 173.27C199.066 168.883 203.629 160.215 203.629 147.268C203.629 133.278 199.215 123.879 190.388 119.072C185.423 116.357 177.984 115 168.07 115H114.817Z" fill="white" stroke="#10AD78" stroke-width="3" stroke-miterlimit="10"></path> <path d="M61.8967 277.486H-115V145.989C-64.9039 145.989 -33.3689 190.316 8.87978 190.316H61.8967C73.4505 190.316 84.5311 194.906 92.7008 203.076C100.871 211.246 105.46 222.326 105.46 233.88V233.88C105.466 239.604 104.343 245.274 102.156 250.564C99.9696 255.854 96.7616 260.662 92.7158 264.712C88.67 268.761 83.8657 271.974 78.5776 274.166C73.2894 276.358 67.6211 277.486 61.8967 277.486V277.486Z" fill="white" stroke="#10AD78" stroke-width="3" stroke-miterlimit="10"></path> <path d="M17.3452 190.692C17.3452 190.692 20.6054 211.744 48.3833 211.744H99.4066" fill="white"></path> <path d="M17.3452 190.692C17.3452 190.692 20.6054 211.744 48.3833 211.744H99.4066" stroke="#10AD78" stroke-width="3" stroke-miterlimit="10"></path> <path d="M167.548 129.84H114.816" stroke="#10AD78" stroke-width="3" stroke-miterlimit="10"></path> <path d="M414.963 182.754L676.799 85.2702V-20L636.866 -14.1099C591.569 7.22047 505.66 44.791 425.828 81.3435C387.415 98.9471 377.859 103.922 377.859 103.922C367.405 108.843 359.335 117.714 355.422 128.585C351.509 139.456 352.075 151.436 356.995 161.89V161.89C361.916 172.344 370.787 180.415 381.658 184.327C392.529 188.24 404.509 187.674 414.963 182.754V182.754Z" fill="white" stroke="#10AD78" stroke-width="3" stroke-miterlimit="10"></path> <path d="M498.043 113.091C498.043 113.091 504.048 133.524 478.918 145.353L432.749 167.083" fill="white"></path> <path d="M498.043 113.091C498.043 113.091 504.048 133.524 478.918 145.353L432.749 167.083" stroke="black" stroke-width="2" stroke-miterlimit="10"></path> <path d="M442.099 40.937L492.843 61.0494L483.705 305.773L435.069 286.497L438.396 236.764L359.359 205.435L327.321 243.788L280.412 225.196L442.099 40.937ZM386.216 173.288L441.184 195.073L447.546 99.8743L386.216 173.288Z" fill="white" stroke="#10AD78" stroke-width="3" stroke-miterlimit="10"></path> <path d="M734.276 70.5027H716L704.674 7.82651C704.674 7.82651 661.002 -25.2356 611.202 -4.64449C561.403 15.9466 546.363 79.9195 502.884 100.68C474.755 114.115 434.276 132.888 434.276 132.888C423.829 137.81 415.764 146.677 411.852 157.542C407.94 168.407 408.501 180.38 413.412 190.831V190.831C416.245 196.863 420.427 202.163 425.635 206.321C430.842 210.48 436.935 213.386 443.444 214.816C440.398 220.741 438.754 227.287 438.639 233.948C438.525 240.61 439.943 247.209 442.783 253.235V253.235C445.661 259.304 449.88 264.641 455.123 268.84C460.366 273.039 466.494 275.991 473.046 277.474C469.998 283.4 468.354 289.947 468.239 296.609C468.125 303.272 469.543 309.872 472.385 315.899V315.899C474.818 321.08 478.248 325.73 482.48 329.585C486.711 333.439 491.66 336.423 497.044 338.363C502.429 340.304 508.143 341.165 513.86 340.897C519.578 340.628 525.186 339.236 530.365 336.799L762.66 227.475L734.276 70.5027Z" fill="white" stroke="#10AD78" stroke-width="3" stroke-miterlimit="10"></path> <path d="M443.438 214.84L580.461 147.474" stroke="#10AD78" stroke-width="3" stroke-miterlimit="10"></path> <path d="M472.149 277.959L609.178 210.592" stroke="#10AD78" stroke-width="3" stroke-miterlimit="10"></path> <path d="M410.897 160.472L437.384 148.474C440.404 147.106 443.664 146.346 446.978 146.238C450.291 146.129 453.594 146.675 456.697 147.843C459.799 149.011 462.642 150.779 465.061 153.046C467.481 155.313 469.43 158.034 470.798 161.054V161.054C472.167 164.074 472.927 167.334 473.036 170.647C473.144 173.961 472.599 177.264 471.431 180.367C470.262 183.47 468.494 186.312 466.227 188.732C463.96 191.151 461.238 193.1 458.218 194.467L428.046 208.138" stroke="#10AD78" stroke-width="3" stroke-miterlimit="10"></path> <path d="M439.857 227.911L466.344 215.913C472.443 213.151 479.389 212.925 485.655 215.285C491.921 217.644 496.994 222.395 499.757 228.493V228.493C501.125 231.512 501.885 234.772 501.993 238.085C502.101 241.398 501.556 244.7 500.388 247.802C499.219 250.905 497.451 253.746 495.185 256.165C492.918 258.584 490.197 260.533 487.177 261.9L461.926 273.341" stroke="#10AD78" stroke-width="3" stroke-miterlimit="10"></path> <path d="M468.968 295.205L495.455 283.206C498.475 281.838 501.734 281.079 505.047 280.971C508.36 280.862 511.662 281.408 514.765 282.576C517.867 283.745 520.709 285.512 523.128 287.779C525.547 290.046 527.495 292.767 528.863 295.786V295.786C530.231 298.806 530.991 302.065 531.099 305.378C531.208 308.691 530.663 311.992 529.495 315.095C528.327 318.197 526.56 321.039 524.294 323.458C522.028 325.877 519.308 327.826 516.289 329.194L496.485 338.168" stroke="#10AD78" stroke-width="3" stroke-miterlimit="10"></path> </g> <defs> <clipPath id="clip0_10_9541"> <rect width="594" height="355" fill="white"></rect> </clipPath> </defs> </svg> 