<?xml version="1.0" encoding="UTF-8"?> <svg xmlns="http://www.w3.org/2000/svg" width="376" height="224" viewBox="0 0 376 224" fill="none"> <g clip-path="url(#clip0_1347_3173)"> <path d="M179.131 130.945C178.661 131.033 179.655 139.02 183.035 144.292C186.415 149.563 191.396 153.253 196.55 155.361C207.5 159.97 212.605 161.687 228.068 157.997C215.985 159.473 202.447 148.825 198.644 144.292C192.816 137.342 195.692 128.204 195.692 128.204C195.692 128.204 223.296 126.054 226 125.211C242.646 120.15 246.5 117.227 251.053 111.095C255.328 97.2656 246.15 87.4034 236.672 86.8658C241.995 86.3387 247.234 86.2332 252.388 84.9681C258.556 83.4921 279.832 80.4916 286 79.0156C303 74.9478 309 60.7656 309 44.2266C309 14.7643 265.636 16.3458 255.328 14.7643C248.061 13.6046 257.927 14.3426 250.66 14.1318C242.886 13.9209 235.113 14.0264 227.255 14.0264C214.411 14.0264 221.064 14.0264 208.22 14.7643C198.503 15.3969 185.153 16.7675 177.125 24.2528C171.633 29.4187 168.676 39.9614 172.901 46.8142C175.435 51.0313 179.829 52.6127 183.97 53.7724C194.278 56.408 204.925 56.9352 215.402 55.3538C194.785 56.0918 165.517 61.4685 146.421 71.1678C140.591 74.1198 134.845 77.5989 130.536 83.2919C123.776 92.1478 123.1 106.064 129.099 115.974C130.958 119.032 133.662 121.246 136.281 123.354C144.224 129.469 169.752 132.843 179.131 130.945Z" fill="#FFCB48"></path> <path d="M186.7 85.1999C185.7 84.7999 184.7 84.0999 183.6 83.5999C182.4 82.8999 181.2 82.1999 179.9 81.6999L176.5 80.2999L176.3 83.8999C176.3 84.3999 175.3 85.0999 173.7 85.4999C168.3 86.9999 162.8 86.5999 158.6 84.0999C154.9 81.9999 152.3 78.2999 151.7 74.2999C155.6 74.2999 159.6 74.0999 163.4 73.4999C167.3 72.8999 172.4 71.9999 176.7 68.9999C180.9 65.9999 183.8 61.2999 184.4 56.1999C185.1 50.9999 183.3 45.7999 179.9 41.8999C177.9 39.5999 175.2 37.7999 171.8 36.3999C164.7 33.2999 157 33.3999 151.2 36.5999C148 38.3999 145.3 41.0999 143.5 44.3999C141.2 39.7999 137.2 35.9999 132.1 34.0999C124.1 30.9999 114.2 32.9999 107.6 39.0999C105.5 40.9999 103.8 43.1999 102.4 45.5999L102 46.3999L102.2 47.7999C102.8 51.2999 103.2 53.8999 105.1 57.5999L107 61.2999L109.4 57.8999C112.5 53.4999 118.2 50.7999 123.5 51.3999C127.2 51.7999 130.3 53.6999 131.5 56.2999C132.2 57.6999 132.3 59.4999 132.3 61.5999C132.3 64.2999 132.2 66.9999 131.9 69.5999C125.4 69.2999 118.7 69.8999 112.3 71.2999C109.1 71.9999 105.4 73.0999 102.5 75.5999C98.7999 78.7999 96.8999 83.8999 97.4999 89.2999C97.9999 93.5999 99.9999 97.9999 103.4 101.9C104.6 103.2 106.1 104.9 108.3 105.7C109.8 106.3 111.4 106.5 112.8 106.5C113.1 106.5 113.4 106.5 113.7 106.5C121.2 106.3 128.1 104.1 133.7 100.1C137.4 97.4999 140.4 94.0999 142.5 90.2999C144.7 94.6999 148.7 98.6999 153.8 101.9C158.1 104.5 162.5 106 166.5 106.4C171.6 106.9 176.5 105.4 180 102.6C184.6 98.8999 186.4 92.9999 187.9 88.3999L188.6 86.1999L186.7 85.1999ZM150.9 60.9999C150.8 59.8999 151.9 56.7999 153 55.1999C154.6 52.7999 157.1 51.1999 159.9 50.5999C162.4 49.9999 165.4 50.2999 168.8 51.4999C169.9 51.7999 170.2 52.1999 170.4 52.3999C170.4 52.4999 170.3 52.5999 170.2 52.8999C168.8 55.9999 165.6 58.3999 161.5 59.7999C159.8 60.3999 157.7 60.6999 155.4 60.8999C155 60.8999 154.6 60.9999 154.1 61.0999C153.4 60.7999 151.7 60.9999 150.9 60.9999ZM131.9 86.3999C131.1 87.6999 130 88.9999 128.4 89.9999C125.5 91.9999 122 93.0999 118.5 93.0999C116.7 93.0999 115.3 92.6999 114.5 91.9999C113.3 90.9999 113 89.0999 113.5 87.4999C114.1 85.8999 115.5 84.2999 117.5 83.3999C119.2 82.4999 121.4 82.1999 124.2 82.0999H125.2C125.9 82.0999 126.8 81.9999 127.9 81.9999C129.7 81.9999 131.7 82.0999 132.7 82.6999C132.8 82.7999 132.8 84.5999 131.9 86.3999Z" fill="#524576"></path> <path d="M169.601 76.9C168.002 85.5 158.014 84.4572 151.701 80.7C148.001 78.6 145.401 74.9 144.801 70.9C148.701 70.9 152.701 70.7 156.501 70.1C160.401 69.5 165.501 68.6 169.801 65.6C174.001 62.6 176.901 57.9 177.501 52.8C178.201 47.6 176.401 42.4 173.001 38.5C171.001 36.2 168.301 34.4 164.901 33C157.801 29.9 150.101 30 144.301 33.2C141.101 35 138.401 37.7 136.601 41C134.301 36.4 130.301 32.6 125.201 30.7C117.201 27.6 107.301 29.6 100.701 35.7C98.6014 37.6 96.9014 39.8 95.5014 42.2L95.1014 43L95.3014 44.4C95.9014 47.9 96.3014 50.5 98.2014 54.2L100.101 57.9L102.501 54.5C105.601 50.1 111.301 47.4 116.601 48C120.301 48.4 123.401 50.3 124.601 52.9C125.301 54.3 125.401 56.1 125.401 58.2C125.401 60.9 125.301 63.6 125.001 66.2C118.501 65.9 111.801 66.5 105.401 67.9C102.201 68.6 98.5014 69.7 95.6014 72.2C91.9014 75.4 90.0014 80.5 90.6014 85.9C91.1014 90.2 93.1014 94.6 96.5014 98.5C97.7014 99.8 99.2014 101.5 101.401 102.3C102.901 102.9 104.501 103.1 105.901 103.1C106.201 103.1 106.501 103.1 106.801 103.1C114.301 102.9 121.201 100.7 126.801 96.7C130.501 94.1 133.501 90.7 135.601 86.9C137.801 91.3 141.801 95.3 146.901 98.5C151.201 101.1 155.601 102.6 159.601 103C164.701 103.5 169.601 102 173.101 99.2C177.701 95.5 179.501 89.6 181.001 85L182.002 82.5C177.992 80.3897 173.792 78.6253 169.601 76.9ZM144.001 57.6C143.901 56.5 145.001 53.4 146.101 51.8C147.701 49.4 150.201 47.8 153.001 47.2C155.501 46.6 158.501 46.9 161.901 48.1V48.1C163.053 48.414 163.581 49.733 162.991 50.7707C161.441 53.496 156.764 55.6615 154.601 56.4C152.901 57 150.801 57.3 148.501 57.5C147.008 57.5 145.528 57.6 144.001 57.6ZM125.001 82.9C124.201 84.2 123.101 85.5 121.501 86.5C118.601 88.5 115.101 89.6 111.601 89.6C109.801 89.6 108.401 89.2 107.601 88.5C106.401 87.5 106.101 85.6 106.601 84C107.201 82.4 108.601 80.8 110.601 79.9C112.301 79 114.501 78.7 117.301 78.6H118.301C119.001 78.6 119.901 78.5 121.001 78.5C122.801 78.5 124.801 78.6 125.801 79.2C125.901 79.3 125.901 81.1 125.001 82.9Z" fill="#FFB3B3"></path> <path d="M358.331 114.317C357.343 107.721 354.593 101.177 349.947 96.1833C346.823 92.8194 338.946 88.1152 334.14 88.0626C331.79 88.0363 329.387 89.2189 328.372 91.2426C328.052 84.9615 324.66 78.9169 319.374 75.2376C314.087 71.5583 300.213 69.9925 293.938 71.6745C277.975 74.1253 267.879 97.8172 267.879 97.8172L274.287 99.1575C273.94 102.39 273.581 104.068 273.153 107.326C272.753 110.48 271.978 113.739 269.869 116.157C266.024 120.624 263.358 119.521 258.392 121.544C257.618 121.86 256.79 122.227 256.336 122.937C256.042 123.436 255.962 124.041 256.015 124.619C256.229 127.431 258.686 129.691 261.436 130.611C264.186 131.531 264.689 131.373 267.599 131.215C266.933 134.144 264.152 140.328 262.507 143.782C261.846 145.171 261.847 146.891 263.259 147.501C264.935 148.225 267.225 148.359 268.294 147.956C269.575 147.483 270.83 146.721 272.192 146.8C274.115 146.879 275.637 148.692 275.77 150.532C275.904 152.371 274.889 154.185 273.474 155.42C271.044 157.575 267.002 159.625 262.339 159.625C259.99 161.567 266.177 173.727 269.896 176.683C275.823 181.413 284.128 182.044 290.856 179.285C296.17 177.13 302.205 176.21 307.758 177.708C309.414 178.155 311.016 178.812 312.591 179.495C316.824 181.264 331.94 189.971 346.164 199.658C347.372 200.481 348.939 200.603 350.216 199.89C368.202 189.849 368.271 175.608 367.923 164.742C367.84 162.141 365.315 160.323 362.715 160.24C349.691 159.823 351.369 141.509 351.363 140.706C351.363 140.706 357.418 137.03 357.168 137.847C359.518 130.514 359.479 121.912 358.331 114.317Z" fill="white"></path> <path d="M308.812 121.535C314.971 117.736 324.149 120.299 323.998 128.531C323.908 132.752 321.1 136.581 317.447 138.662C313.794 140.742 309.386 141.255 305.19 140.893" fill="white"></path> <path d="M305.19 140.893C309.386 141.255 313.794 140.742 317.447 138.662C321.1 136.581 323.908 132.752 323.998 128.531C324.149 120.299 314.971 117.736 308.812 121.535L269 97" stroke="#242424" stroke-width="2" stroke-miterlimit="10" stroke-linecap="round" stroke-linejoin="round"></path> <path d="M127.534 164.807C125.004 156.357 123.047 147.265 117.001 140.944C112.284 135.964 105.45 133.41 98.7095 132.169C88.8751 130.399 78.5737 131.092 69.3917 134.916C60.1875 138.642 52.1911 145.888 47.7484 154.79C45.103 160.311 43.6539 166.586 44.9044 172.558C46.7424 181.575 54.2019 188.702 62.8164 191.877C71.3334 195.074 80.9209 194.85 89.9285 193.424C99.0116 191.879 107.71 189.088 116.727 187.25C120.942 186.397 125.397 185.695 129.768 185.525C131.98 185.332 134.138 185.355 136.222 185.498C138.11 185.686 139.315 186.028 138.514 183.851C138.063 182.313 136.052 181.128 135.059 179.917C133.806 178.458 132.823 176.835 131.84 175.212C129.994 172.042 128.667 168.446 127.534 164.807Z" fill="#81B38E"></path> <path d="M65.6907 152.339C66.2081 154.169 67.2886 155.77 68.6928 156.99C69.0738 157.314 69.6719 157.691 70.0179 157.408C70.3859 157.222 70.395 156.809 70.4041 156.397C70.4498 154.336 69.3343 152.128 67.6374 150.975C67.2786 150.748 67.0393 150.597 66.6492 150.686C66.1395 150.699 65.6869 151.417 65.7219 152.024C65.7349 152.534 66.0625 153.075 66.3681 153.518" stroke="#242424" stroke-width="2" stroke-linecap="round" stroke-linejoin="round"></path> <path d="M74.5091 147.368C75.0265 149.199 76.1069 150.8 77.5112 152.019C77.8922 152.343 78.4903 152.72 78.8362 152.437C79.2042 152.251 79.2134 151.839 79.2225 151.427C79.2682 149.366 78.1527 147.157 76.4558 146.004C76.0969 145.778 75.8577 145.627 75.4676 145.715C74.9578 145.728 74.5052 146.446 74.5403 147.053C74.5533 147.563 74.8809 148.104 75.1865 148.547" stroke="#242424" stroke-width="2" stroke-linecap="round" stroke-linejoin="round"></path> <path d="M46.0723 127.967C35.9273 121.988 25.7675 115.914 15.6225 109.935" stroke="#242424" stroke-width="2" stroke-linecap="round" stroke-linejoin="round"></path> <path d="M64.3555 123.365C48.8933 107.55 34.3689 90.9101 20.6373 73.7584" stroke="#242424" stroke-width="2" stroke-linecap="round" stroke-linejoin="round"></path> <path d="M77.9766 109.99C73.4043 104.305 69.9738 97.8588 67.9189 90.9074" stroke="#242424" stroke-width="2" stroke-linecap="round" stroke-linejoin="round"></path> </g> <defs> <clipPath id="clip0_1347_3173"> <rect width="376" height="224" fill="white"></rect> </clipPath> </defs> </svg> 