<?xml version="1.0" encoding="UTF-8"?> <svg xmlns="http://www.w3.org/2000/svg" width="376" height="224" viewBox="0 0 376 224" fill="none"> <path d="M108.739 87.7583C91.4291 79.5021 75.6736 70.4203 69.4543 60.3064C63.1314 50.0893 68.2104 38.4274 88.7341 30.9968C108.739 23.7727 145.33 22.5342 164.609 30.2744C178.395 35.8474 180.365 44.6196 172.072 51.6374C164.195 58.6552 147.714 63.8153 129.263 67.3242C150.927 70.2138 166.993 78.3669 167.823 86.9327C168.652 95.4985 154.037 103.961 132.787 107.47C141.805 106.748 149.683 110.669 147.299 113.972C145.33 117.274 136.726 119.545 128.019 120.783C97.752 125.118 49.0343 117.377 38.7725 105.406C26.9559 91.164 76.9174 78.8829 108.739 87.7583Z" fill="#FFCB48"></path> <path d="M320.536 127.055C312.474 98.461 303.999 70.1762 294.904 41.9946C294.284 39.9301 293.664 37.9687 292.424 36.1106C288.29 30.0201 279.608 29.7104 272.27 30.1233C265.035 30.5362 257.594 31.1556 250.359 31.8782C248.396 32.0846 246.329 32.2911 244.882 33.5299C243.745 34.4589 243.021 35.6977 242.401 37.0396C218.01 83.8024 193.619 130.565 174.705 179.806C171.915 187.032 169.848 196.735 176.049 201.38C178.323 203.135 181.32 203.651 184.214 204.064C194.859 205.406 205.815 205.303 216.46 203.445C218.63 203.032 220.904 202.619 222.661 201.38C225.658 199.316 226.485 195.393 227.312 191.883C230.309 178.67 233.203 165.56 236.2 152.347C236.717 149.972 237.337 147.495 239.094 145.74C240.851 143.882 243.538 143.366 246.019 142.85C255.734 140.888 266.792 139.959 274.751 145.843C285.086 153.689 284.776 168.76 286.843 181.56C287.876 187.961 289.943 194.567 295.111 198.593C298.935 201.484 303.689 202.413 308.34 203.135C314.438 203.961 322.189 205.097 329.527 204.993C337.279 204.89 340.793 196.838 338.106 189.509C330.664 169.379 326.323 147.598 320.536 127.055ZM281.158 104.242C281.055 105.377 280.952 106.513 280.332 107.339C279.401 108.577 277.644 108.681 276.198 108.784C267.309 109.3 258.318 109.919 249.429 110.332C247.982 110.436 246.432 110.539 245.088 109.713C242.608 108.061 243.125 104.345 244.055 101.661C246.845 93.1963 251.91 70.073 262.555 69.4536C265.035 69.2471 267.516 69.1439 269.996 69.0407C272.167 68.9374 274.441 68.731 276.301 69.8665C279.298 71.5182 280.125 75.2344 280.435 78.641C281.262 87.1058 281.572 95.6738 281.158 104.242Z" fill="#524377"></path> <path d="M307.809 127.058C299.733 98.4631 291.242 70.1774 282.131 41.995C281.509 39.9304 280.888 37.969 279.646 36.1108C275.504 30.0201 266.806 29.7104 259.455 30.1233C252.207 30.5362 244.752 31.1556 237.504 31.8782C235.536 32.0847 233.466 32.2912 232.016 33.53C230.877 34.4591 230.152 35.6978 229.531 37.0399C205.095 83.8041 180.659 130.568 161.71 179.81C158.915 187.036 156.844 196.74 163.057 201.386C165.334 203.141 168.337 203.657 171.236 204.07C181.901 205.412 192.877 205.308 203.542 203.45C205.716 203.037 207.994 202.624 209.754 201.386C212.757 199.321 213.585 195.398 214.414 191.888C217.416 178.675 220.316 165.564 223.318 152.35C223.836 149.976 224.457 147.498 226.218 145.743C227.978 143.885 230.67 143.369 233.155 142.853C242.888 140.892 253.967 139.962 261.94 145.847C272.294 153.692 271.983 168.764 274.054 181.565C275.09 187.965 277.161 194.572 282.338 198.598C286.169 201.489 290.932 202.418 295.591 203.141C303.253 204.276 313.504 205.618 322.305 204.689C327.068 204.173 329.139 199.115 327.379 194.676C318.785 173.1 314.125 149.357 307.809 127.058ZM268.359 104.244C268.256 105.38 268.152 106.515 267.531 107.341C266.599 108.58 264.839 108.683 263.389 108.786C254.485 109.302 245.477 109.922 236.572 110.335C235.122 110.438 233.569 110.541 232.223 109.715C229.738 108.064 230.256 104.347 231.188 101.663C233.983 93.1982 239.057 70.0742 249.722 69.4548C252.207 69.2483 254.692 69.1451 257.177 69.0419C259.351 68.9386 261.629 68.7322 263.493 69.8677C266.496 71.5194 267.324 75.2358 267.635 78.6425C268.463 87.1075 268.774 95.6758 268.359 104.244Z" fill="#FFB3B3"></path> <path d="M248 39.5344C248.103 41.6006 248.826 43.558 249.962 45.1893C250.271 45.6242 250.788 46.168 251.201 45.9505C251.614 45.8417 251.717 45.4067 251.82 44.9718C252.336 42.7968 251.717 40.1869 250.271 38.5557C249.962 38.2294 249.755 38.0119 249.342 38.0119C248.826 37.9032 248.206 38.5557 248.103 39.2082C248 39.7519 248.206 40.4044 248.413 40.9481" stroke="#242424" stroke-width="2" stroke-linecap="round" stroke-linejoin="round"></path> <path d="M238 40.5344C238.103 42.6006 238.826 44.558 239.962 46.1893C240.271 46.6242 240.788 47.168 241.201 46.9505C241.614 46.8417 241.717 46.4067 241.82 45.9718C242.336 43.7968 241.717 41.1869 240.271 39.5557C239.962 39.2294 239.755 39.0119 239.342 39.0119C238.826 38.9032 238.206 39.5557 238.103 40.2082C238 40.7519 238.206 41.4044 238.413 41.9481" stroke="#242424" stroke-width="2" stroke-linecap="round" stroke-linejoin="round"></path> <path d="M150.964 195.983C150.756 195.053 150.025 194.33 149.085 193.917C148.25 193.504 147.205 193.4 146.266 193.297C143.133 192.987 138.852 192.987 138.852 192.987C138.748 192.987 138.539 191.231 138.539 191.127C136.66 180.073 135.407 168.915 133.945 157.861C134.78 159.307 135.824 160.65 137.077 161.89C138.017 162.716 139.374 163.44 140.418 162.716C141.149 162.2 141.254 161.27 141.254 160.34C141.254 157.344 140.627 154.348 139.374 151.559C139.896 152.592 140.418 153.522 140.941 154.555C141.254 155.175 142.089 155.898 142.611 155.381C142.82 155.175 142.82 154.761 142.716 154.451C142.298 152.385 140.941 150.526 139.896 148.666C136.973 143.397 136.242 137.405 135.302 131.516C134.884 128.727 134.571 125.317 133.318 122.735C133.214 122.528 133.109 122.425 133.005 122.321C132.796 120.048 131.126 118.602 128.828 117.156C127.158 116.122 125.278 115.399 123.399 115.916C123.399 115.193 123.399 114.366 123.503 113.643C124.234 114.676 125.905 114.883 126.949 114.16C127.158 114.056 127.367 113.85 127.471 113.643C127.784 113.23 127.784 112.61 127.784 112.093C127.784 109.614 126.74 107.444 125.591 105.378C125.278 104.861 123.921 103.518 124.756 103.312C125.278 103.208 125.8 103.002 126.218 102.898C125.592 102.072 125.069 101.349 124.443 100.522C123.921 99.9024 123.503 99.1792 122.772 98.766C122.146 98.456 121.415 98.2494 120.788 98.1461C120.162 98.0428 119.535 97.9395 118.909 98.0428C117.552 98.2494 116.612 99.1792 116.612 100.522C116.194 99.9024 115.254 99.7991 114.523 100.006C113.793 100.212 111.913 102.382 111.704 106.928C111.704 107.754 111.704 110.957 112.122 111.577L114.315 111.783C114.628 112.713 114.941 113.54 115.15 114.469C113.479 114.986 111.809 115.606 110.347 116.536C108.259 117.879 106.901 120.048 105.961 122.425C105.022 124.801 104.604 127.177 104.186 129.553C103.56 127.797 102.098 126.557 101.158 125.007C100.219 123.251 99.5921 121.391 98.6523 119.635C97.1905 116.742 94.9978 114.16 92.9095 111.783C92.4918 111.267 91.7609 110.854 91.3433 111.267C91.2389 111.37 91.1344 111.577 91.1344 111.783C91.03 112.713 91.2389 113.643 91.8653 114.366C90.4035 113.023 88.8373 111.887 86.9578 111.06C85.496 110.44 83.7209 109.924 82.1547 110.647C80.0664 111.577 79.5443 114.366 80.3797 116.432C81.215 118.499 83.1989 119.842 85.1828 120.875C86.6446 121.598 88.1064 122.218 89.3594 123.251C91.2389 124.801 92.0742 127.177 93.0139 129.45C94.0581 132.033 94.9978 134.615 96.042 137.198C96.3552 138.025 96.6685 138.851 97.1905 139.574C98.7568 142.054 102.202 143.087 104.917 142.054C107.632 141.021 110.242 135.855 111.6 133.376C111.495 138.438 108.676 193.4 108.572 193.71C108.05 197.12 111.287 200.529 113.27 202.285C115.15 204.042 117.134 205.901 119.013 207.657C121.31 209.827 123.921 212.1 127.053 211.997C128.306 211.997 129.664 211.377 129.873 210.137C129.873 209.827 129.873 209.414 129.768 209.104C128.515 203.628 121.206 194.95 121.728 194.847C122.041 182.036 122.459 169.328 122.772 156.518C123.503 170.568 126.114 184.515 128.724 198.359C128.933 199.186 129.142 200.529 129.977 200.632C135.198 200.839 140.314 200.529 145.535 199.909C146.788 199.806 148.145 199.599 149.294 198.876C150.442 198.153 151.173 197.223 150.964 195.983Z" fill="white"></path> <path d="M79 98C71.9075 90.0758 64.207 82.7773 56 76" stroke="#242424" stroke-width="2" stroke-linecap="round" stroke-linejoin="round"></path> <path d="M62 100C55.3913 95.7164 48.9891 91.1194 43 86" stroke="#242424" stroke-width="2" stroke-linecap="round" stroke-linejoin="round"></path> <path d="M62 129C54.3333 132.299 46.6667 135.701 39 139" stroke="#242424" stroke-width="2" stroke-linecap="round" stroke-linejoin="round"></path> </svg> 