<?xml version="1.0" encoding="UTF-8"?> <svg xmlns="http://www.w3.org/2000/svg" width="594" height="355" viewBox="0 0 594 355" fill="none"> <g clip-path="url(#clip0_10_9565)"> <path d="M380.942 50.8713L415.717 22.0225C415.717 22.0225 426.205 33.6621 413.874 44.682C401.543 55.7019 390.905 71.5604 390.905 71.5604L380.942 50.8713Z" fill="white"></path> <path d="M381.228 196.076H283.113L214.944 400.505V431.848H422.511C451.431 431.848 480.963 407.473 480.963 366.587C480.963 320.807 481.249 279.453 481.249 255.562C481.249 231.671 484.046 203.799 450.136 183.46C427.802 170.064 415.654 164.137 409.401 165.265C403.148 166.393 404.412 178.947 404.412 178.947C404.412 178.947 395.084 178.51 392.669 186.018C390.635 192.374 397.15 196.386 397.15 196.386L381.228 196.076Z" fill="white"></path> <path d="M406.58 106.805C406.58 97.0196 404.635 87.3319 400.859 78.3049C397.082 69.2778 391.549 61.0914 384.58 54.2215C377.612 47.3516 369.348 41.9352 360.268 38.2871C351.188 34.6389 341.474 32.8318 331.69 32.9708C291.527 33.5349 258.92 66.5946 258.896 106.757C258.858 122.034 263.579 136.944 272.403 149.415C280.182 160.562 284.312 173.847 284.225 187.44V196.076H381.228V186.995C381.155 173.579 385.259 160.473 392.97 149.494C401.838 137.027 406.595 122.104 406.58 106.805V106.805Z" fill="white" stroke="#ED6F5D" stroke-width="3" stroke-miterlimit="10"></path> <path d="M381.228 196.076C423.281 196.076 445.695 215.272 445.695 246.043V348.837" fill="white"></path> <path d="M381.228 196.076C423.281 196.076 445.695 215.272 445.695 246.043V348.837" stroke="#ED6F5D" stroke-width="3" stroke-miterlimit="10"></path> <path d="M456.516 188.076L457.427 186.884L457.417 186.876L456.516 188.076ZM422.511 167.982L421.89 169.348L421.895 169.35L422.511 167.982ZM404.888 168.586L403.668 167.714L403.666 167.716L404.888 168.586ZM404.404 178.915L404.134 180.39L406.867 180.891L405.785 178.331L404.404 178.915ZM392.875 185.335L394.287 185.84L394.289 185.837L392.875 185.335ZM401.227 199.166C402.025 199.389 402.853 198.923 403.075 198.125C403.298 197.327 402.832 196.499 402.034 196.276L401.227 199.166ZM355.408 251.454V359.269H358.408V251.454H355.408ZM355.408 359.269C355.408 377.885 359.338 396.397 369.757 410.289C380.23 424.255 397.107 433.348 422.511 433.348V430.348C397.908 430.348 381.983 421.592 372.157 408.489C362.275 395.313 358.408 377.535 358.408 359.269H355.408ZM422.511 433.348C444.551 433.348 459.707 424.268 469.29 410.161C478.816 396.136 482.749 377.28 482.749 357.768H479.749C479.749 376.949 475.872 395.132 466.808 408.475C457.801 421.735 443.588 430.348 422.511 430.348V433.348ZM482.749 357.768V236.43H479.749V357.768H482.749ZM482.749 236.43C482.749 215.783 470.864 197.161 457.427 186.884L455.604 189.267C468.45 199.091 479.749 216.891 479.749 236.43H482.749ZM457.417 186.876C446.769 178.878 435.269 172.083 423.127 166.615L421.895 169.35C433.835 174.728 445.144 181.41 455.615 189.275L457.417 186.876ZM423.131 166.617C419.229 164.843 415.417 163.76 412.07 163.772C408.676 163.784 405.655 164.936 403.668 167.714L406.108 169.459C407.394 167.661 409.383 166.782 412.081 166.772C414.826 166.762 418.188 167.666 421.89 169.348L423.131 166.617ZM403.666 167.716C401.83 170.295 401.736 173.326 402.017 175.542C402.159 176.669 402.406 177.644 402.616 178.337C402.721 178.686 402.819 178.967 402.892 179.165C402.928 179.264 402.959 179.343 402.981 179.399C402.992 179.427 403.001 179.45 403.008 179.466C403.012 179.475 403.015 179.482 403.017 179.487C403.018 179.49 403.019 179.492 403.02 179.494C403.02 179.495 403.021 179.496 403.021 179.497C403.021 179.497 403.021 179.498 403.021 179.498C403.022 179.498 403.022 179.499 404.404 178.915C405.785 178.331 405.785 178.332 405.786 178.332C405.786 178.332 405.786 178.332 405.786 178.333C405.786 178.333 405.786 178.333 405.786 178.334C405.787 178.334 405.787 178.334 405.787 178.334C405.786 178.334 405.786 178.332 405.784 178.329C405.782 178.322 405.777 178.31 405.77 178.293C405.756 178.259 405.735 178.203 405.707 178.128C405.652 177.979 405.574 177.753 405.487 177.467C405.313 176.892 405.109 176.086 404.993 175.165C404.755 173.286 404.903 171.152 406.11 169.456L403.666 167.716ZM404.404 178.915C404.674 177.439 404.673 177.439 404.672 177.439C404.672 177.439 404.671 177.439 404.67 177.439C404.669 177.439 404.668 177.438 404.666 177.438C404.664 177.438 404.66 177.437 404.656 177.436C404.648 177.435 404.638 177.433 404.626 177.431C404.602 177.427 404.569 177.422 404.529 177.416C404.448 177.404 404.336 177.388 404.195 177.372C403.915 177.34 403.522 177.306 403.044 177.292C402.093 177.266 400.782 177.322 399.357 177.663C396.463 178.354 393.093 180.239 391.462 184.833L394.289 185.837C395.502 182.422 397.896 181.096 400.055 180.58C401.157 180.317 402.194 180.27 402.961 180.291C403.341 180.302 403.648 180.329 403.854 180.353C403.957 180.364 404.034 180.375 404.082 180.382C404.106 180.386 404.122 180.389 404.131 180.39C404.136 180.391 404.138 180.391 404.138 180.391C404.139 180.391 404.138 180.391 404.138 180.391C404.137 180.391 404.137 180.391 404.136 180.391C404.136 180.391 404.135 180.391 404.135 180.391C404.134 180.391 404.134 180.39 404.404 178.915ZM391.463 184.829C390.39 187.827 390.382 190.843 392.067 193.467C393.712 196.031 396.79 197.926 401.227 199.166L402.034 196.276C397.938 195.132 395.673 193.532 394.591 191.847C393.549 190.222 393.43 188.237 394.287 185.84L391.463 184.829Z" fill="#ED6F5D"></path> <path d="M375.984 101.347C383.009 101.347 388.704 94.1932 388.704 85.3689C388.704 76.5447 383.009 69.3913 375.984 69.3913C368.959 69.3913 363.264 76.5447 363.264 85.3689C363.264 94.1932 368.959 101.347 375.984 101.347Z" stroke="#ED6F5D" stroke-width="3" stroke-miterlimit="10"></path> <path d="M375.984 101.347V69.4072C368.96 69.4072 363.272 76.5578 363.272 85.3928C363.272 94.2278 368.96 101.347 375.984 101.347Z" fill="#ED6F5D" stroke="#ED6F5D" stroke-width="3" stroke-miterlimit="10"></path> <path d="M260.501 92.5595H299.433C329.767 92.5595 354.842 70.9646 364.988 63.1625C386.257 46.8512 414.55 23.5878 415.932 22.1336C417.314 20.6795 425.744 31.2787 413.898 44.6583C404.292 55.5034 394.679 66.5313 394.679 66.5313" stroke="#ED6F5D" stroke-width="3" stroke-miterlimit="10"></path> <path d="M272.316 64.5051C275.764 60.3816 284.456 54.971 290.59 58.006C298.344 61.8832 292.012 76.0971 292.012 76.0971L286.132 91.5345" stroke="#ED6F5D" stroke-width="3" stroke-miterlimit="10"></path> <path d="M263.489 81.2692H290.057" stroke="#ED6F5D" stroke-width="3" stroke-miterlimit="10"></path> <path d="M302.496 30.1156L294.386 34.2386C292.313 35.2926 291.486 37.826 292.539 39.8971C293.592 41.9682 296.127 42.7928 298.2 41.7388L306.309 37.6158C308.382 36.5618 309.209 34.0284 308.156 31.9573C307.103 29.8862 304.569 29.0616 302.496 30.1156Z" fill="#ED6F5D" stroke="#ED6F5D" stroke-width="3"></path> <path d="M272.427 149.415C275.56 151.73 279.121 153.402 282.904 154.334C286.687 155.265 290.617 155.438 294.467 154.841C326.136 150.201 314.33 109.784 314.33 109.784C314.33 109.784 320.328 121.257 334.089 121.257C347.85 121.257 352.037 107.83 352.037 97.4216V72.895" stroke="#ED6F5D" stroke-width="3" stroke-miterlimit="10"></path> <path d="M385.208 111.469C385.208 111.469 390.539 117.992 405.73 117.992" stroke="#ED6F5D" stroke-width="3" stroke-miterlimit="10"></path> <path d="M356.828 108.688C356.792 107.433 357.007 106.184 357.462 105.014C357.917 103.844 358.602 102.778 359.477 101.877C360.351 100.977 361.398 100.261 362.554 99.7723C363.71 99.2835 364.952 99.0317 366.207 99.0317C367.463 99.0317 368.705 99.2835 369.861 99.7723C371.017 100.261 372.064 100.977 372.938 101.877C373.813 102.778 374.498 103.844 374.953 105.014C375.408 106.184 375.623 107.433 375.587 108.688" stroke="#ED6F5D" stroke-width="3" stroke-miterlimit="10"></path> <path d="M445.694 255.562H481.249" stroke="#ED6F5D" stroke-width="3" stroke-miterlimit="10"></path> <path d="M404.412 178.947C404.412 178.947 420.04 180.655 431.584 190.269" stroke="#ED6F5D" stroke-width="3" stroke-miterlimit="10"></path> <path d="M460.369 183.46V196.076C460.369 202.742 462.117 209.313 468.894 209.313" stroke="#ED6F5D" stroke-width="3" stroke-miterlimit="10"></path> <path d="M308.196 392.559V234.515C308.195 230.31 309.567 226.219 312.102 222.863C314.637 219.508 318.197 217.071 322.243 215.923L378.348 199.984C380.581 199.35 380.122 196.06 377.802 196.06H317.857C313.458 196.059 309.102 196.925 305.037 198.608C300.973 200.291 297.28 202.758 294.169 205.869C291.058 208.98 288.591 212.673 286.908 216.737C285.225 220.802 284.36 225.158 284.361 229.557V398.336C284.361 407.219 287.89 415.739 294.171 422.021C300.453 428.303 308.973 431.832 317.857 431.832H372.949L410.331 431.038L323.268 411.413C318.989 410.447 315.166 408.054 312.428 404.628C309.689 401.202 308.196 396.946 308.196 392.559Z" fill="white"></path> <path d="M317.857 431.832C308.973 431.832 300.453 428.303 294.171 422.021C287.89 415.739 284.361 407.219 284.361 398.336V229.557C284.36 225.158 285.225 220.802 286.908 216.737C288.591 212.673 291.058 208.98 294.169 205.869C297.28 202.758 300.973 200.291 305.037 198.608C309.102 196.925 313.458 196.059 317.857 196.06H377.802C380.122 196.06 380.581 199.35 378.348 199.984L322.243 215.923C318.197 217.071 314.637 219.508 312.102 222.863C309.567 226.219 308.195 230.31 308.196 234.515V392.559C308.196 396.946 309.689 401.202 312.428 404.628C315.166 408.054 318.989 410.447 323.268 411.413L410.331 431.038L372.949 431.832H317.857ZM317.857 431.832H214.92V410.651" stroke="#ED6F5D" stroke-width="3" stroke-miterlimit="10"></path> <path d="M284.361 207.827C284.361 169.49 253.282 138.411 214.944 138.411C176.606 138.411 145.527 169.49 145.527 207.827V340.996C145.527 379.333 176.606 410.412 214.944 410.412C253.282 410.412 284.361 379.333 284.361 340.996V207.827Z" fill="#ED6F5D" stroke="#ED6F5D" stroke-width="3" stroke-miterlimit="10"></path> <path d="M239.058 178.947L262.758 182.514L283.161 288.073L260.446 284.665L256.926 263.062L220.013 257.5L210.122 277.085L188.217 273.796L239.058 178.947ZM228.308 241.102L253.979 244.995L247.241 203.68L228.308 241.102Z" fill="white" stroke="#ED6F5D" stroke-width="3" stroke-miterlimit="10"></path> <path d="M166.518 131.8C170.414 130.879 174.475 130.909 178.357 131.888C181.592 132.681 184.681 133.982 187.509 135.741C190.574 137.711 193.231 140.252 195.335 143.225C198.237 147.238 200.113 151.9 200.802 156.804C201.596 161.989 200.309 167.021 196.94 171.899C201.829 170.644 206.067 170.835 209.653 172.471C213.238 174.108 217.153 177.789 221.395 183.515L225.424 189.005C228.167 192.739 230.175 195.16 231.446 196.267C232.313 197.101 233.347 197.741 234.479 198.145C235.612 198.55 236.818 198.708 238.017 198.611L239.526 200.661L220.72 214.509C218.877 213.079 217.431 211.887 216.398 210.942C214.262 208.962 212.306 206.798 210.55 204.474L204.862 196.958C200.958 191.799 197.515 188.987 194.533 188.521C191.551 188.054 187.671 189.567 182.893 193.057L166.209 205.301L189.742 237.343L173.057 249.595L113 167.855L152.082 139.157C157.75 135.169 162.562 132.717 166.518 131.8ZM140.109 169.794L156.222 191.762L174.599 178.255C178.243 175.575 180.653 173.123 181.829 170.898C183.921 166.973 183.283 162.72 179.914 158.138C176.28 153.191 172.279 151.012 167.909 151.6C165.446 151.933 162.458 153.379 158.947 155.961L140.109 169.794Z" fill="white" stroke="#ED6F5D" stroke-width="3" stroke-miterlimit="10"></path> <path d="M145.527 222.669C145.527 222.669 153.854 277.713 214.944 277.713C276.034 277.713 284.361 222.669 284.361 222.669V340.996C284.361 369.693 264.808 410.412 214.944 410.412C178.309 410.412 145.527 379.482 145.527 340.996V222.669Z" fill="white" stroke="#ED6F5D" stroke-width="3" stroke-miterlimit="10"></path> <path d="M284.249 196.076C284.249 196.076 284.361 188.385 284.361 184.254C284.361 160.252 260.525 125.46 255.416 117.229C248.266 105.645 238.279 90.7875 212.235 90.7875H162.665C148.761 90.7875 127.77 98.2956 127.77 123.998C127.77 148.453 148.594 158.647 163.475 158.647H230.858C244.786 158.647 253.978 160.601 263.489 171.621C276.201 186.352 284.249 196.076 284.249 196.076Z" fill="white" stroke="#ED6F5D" stroke-width="3" stroke-miterlimit="10"></path> <path d="M146.679 116.951H119.571C115.942 116.951 113 119.893 113 123.522C113 127.15 115.942 130.092 119.571 130.092H146.679C150.308 130.092 153.25 127.15 153.25 123.522C153.25 119.893 150.308 116.951 146.679 116.951Z" fill="white" stroke="#ED6F5D" stroke-width="3" stroke-miterlimit="10"></path> <path d="M152.233 338.453L147.41 334.632C146.823 334.165 146.349 333.572 146.023 332.896C145.697 332.221 145.527 331.481 145.527 330.731V328.657C145.527 327.721 145.79 326.805 146.286 326.012C146.783 325.219 147.493 324.583 148.335 324.175C149.177 323.768 150.117 323.606 151.047 323.709C151.977 323.812 152.859 324.175 153.592 324.756L158.414 328.577C159.002 329.044 159.476 329.637 159.802 330.313C160.128 330.988 160.297 331.728 160.297 332.478V334.552C160.298 335.488 160.035 336.404 159.538 337.197C159.042 337.99 158.332 338.626 157.49 339.034C156.647 339.441 155.708 339.603 154.778 339.5C153.848 339.397 152.966 339.035 152.233 338.453V338.453Z" fill="white" stroke="#ED6F5D" stroke-width="3" stroke-miterlimit="10"></path> <path d="M363.264 85.3689C363.264 67.2223 368.349 58.2681 375.976 58.2681C380.918 58.2681 383.635 62.7968 383.635 62.7968" stroke="#ED6F5D" stroke-width="3"></path> <path d="M395.473 65.6253C395.473 65.6253 409.925 49.9813 414.184 44.7773C423.909 32.939 416.822 22.7295 416.822 22.7295L380.942 50.8712L395.473 65.6253Z" fill="#ED6F5D"></path> <path d="M264.101 80.7925L260.501 92.5592H301.125C314.314 92.5592 331.904 85.496 343.735 78.0673C355.565 70.6386 380.974 50.8711 380.974 50.8711C380.974 50.8711 359.259 32.9707 332.77 32.9707C297.184 32.9707 274.286 60.9296 274.286 60.9296C274.286 60.9296 277.623 57.108 285.203 57.108C305.066 57.108 290.089 81.2692 290.089 81.2692L264.101 80.7925Z" fill="#ED6F5D"></path> <path d="M458.089 183.46C461.165 183.46 464.116 184.682 466.291 186.857C468.467 189.033 469.689 191.983 469.689 195.059V255.562H446.521V195.067C446.521 193.544 446.821 192.036 447.404 190.628C447.987 189.221 448.841 187.942 449.918 186.865C450.995 185.788 452.274 184.933 453.682 184.351C455.089 183.768 456.634 183.46 458.158 183.46L458.089 183.46Z" fill="white" stroke="#ED6F5D" stroke-width="3" stroke-miterlimit="10"></path> </g> <defs> <clipPath id="clip0_10_9565"> <rect width="594" height="355" fill="white"></rect> </clipPath> </defs> </svg> 