<svg width="548" height="488" viewBox="0 0 548 488" fill="none" xmlns="http://www.w3.org/2000/svg"><path d="M318.41 241.61l.52-1.83 1.63-5.79 4.43-15.64 1.72-6.13 5.37-19 5.28-18.66 41.13 9.47 35.16 8.1.4 49 .01.67.56 66.41-18.01 8.53-24.17 11.45-4.58 2.16-1.48.71-.57.27-.74.35-9.17 4.34-16.32-16.08-1.03-1.01-16.04-15.8-7.82-7.7-5.06-4.97.26-27.01" fill="#69B0CC"/><path d="M318.93 239.78l.08-3.56.19-8.1.49-21.53.3-13.11 4-.08h1.31l6.84-.15 9.35-.2 6.94-.15 3-.07 24.38-.52 7-.15h30.89l4.64-113.56-146-3.23h-.85l-88.84-2h-.9l-77-1.7s-1.55 98.88-3.09 108.93C100.12 190.65 83 321.92 83 324.24c0 1.38-3 25.09-5.42 44.11-1.26 9.9-2.38 18.53-2.84 22.09-.14 1.12-.22 1.74-.22 1.74s198.35 3.07 271.92 5.47h.08c16.71.54 27 1.05 27 1.48 0 1.26 14.29-50.38 23.13-82.44l6.8-24.75-12.16.41h-.36l-9.08.31-9.64.32-22.85.78h-.87l-9.41.32-11.38.38-10 .34v-2.27l.3-13.09c7.09-1.65 7.4-3.28.12-4.89l.74-32.3.07-2.47zm4.24 37.52c-5.94 1.3-10.55 4.87-13.53 13.15a61.01 61.01 0 0 0-2.82 10.12l-15 .58-28.24.49c-.53 11.37-5.31 18.38-11.08 21.17l-.42.19c-8.09 3.23-17.82-1.18-20.8-12.8-.06-.22-.12-.44-.16-.67-.04-.23-.13-.57-.19-.87-.06-.3-.14-.75-.2-1.15-.06-.4-.12-.79-.16-1.19a36.854 36.854 0 0 1-.15-5.83h-.07v-.38l-17.12-1.24-25.38-2.42v-4.69l.25-34.42h-.25c24.67 0 24.67-32.93 0-32.93l1.25-31.12.65-9 29.31 1.17a22.92 22.92 0 0 1 4.47-10.46 15.252 15.252 0 0 1 5.07-4.76 7.65 7.65 0 0 1 10.3 2.76 7.196 7.196 0 0 1 1 3.08c.13.14.27.27.39.42a8.274 8.274 0 0 1 1.82 2 7.562 7.562 0 0 1-.77 8.66c.59.262 1.194.489 1.81.68 4.32 1.3 11.46 1.2 11.73-5.16.18-4.39 2.07-9.73 4.16-14.37 4.06 2.46 16.8 11.32 12.89 24-4.48 14.58-26.51 7.45-27.94 7h-.07l-19.31 37.85 50.21 24.73c-6.65 23.27 24.49 23.62 37.66 10.52l10.69 4.89z" fill="#69B0CC"/><path d="M105.26 176.1l24.17.77c-8.13 48.54 39 48.36 28.85 8.44l31.18.77.78-46.48" stroke="#242424" stroke-width="2" stroke-linecap="round" stroke-linejoin="round"/><path d="M187.88 296.43l.04-4.7v4.7h-.04zM187.3 224.29l1.87-31-1.25 31.12a21.016 21.016 0 0 0-7.78 1.39 19.282 19.282 0 0 1 7.16-1.51zM213.29 298.85l17.12 1.24v.38l-17.12-1.62zM243.12 187.82c-3.8-1.15-7.66-4-10.89-7l.27-1.73 7.5-7.71 13.11-13.48.25-.25h1.18l-.81.16c3.93 7.95 6 16.29 1.12 24.9-3.15 5.48-7.41 6.41-11.73 5.11zM263.62 301.64l28.24-.49-27.79 1.07c-.58 11.19-5.56 18-11.53 20.59 5.77-2.81 10.55-9.81 11.08-21.17z" fill="#FFB3B3"/><path d="M338.52 273.25l-6.72 6.26-.31.29-.63.58-.07.06-13.08 12.18-3 2.82-5.42 5.05-2.45.09a61.01 61.01 0 0 1 2.82-10.12L324 277l-11.84-4c-14.77 30.42-44 12.17-37.37-11.1l-50.21-24.73 19.31-37.85h.07c1.43.48 23.45 7.6 27.94-7 4.49-14.6-13.08-24.18-14.06-24.71l7-10.24c-.54-.08-1.09-.15-1.65-.2l1.52-.08.15.24 24.23 38.11 3.24 5.09 3.59 5.65 7 11 1.27 2 12.49 19.64.23.36 1.52 2.39.46.72 19.63 30.96z" fill="#FFB3B3"/><path d="M189.46 186.09l-.29 7.17-1.25 31.12c24.67 0 24.67 32.45 0 32.45V297l-29.35-1.55c3.93-38.56-50.22-40.16-37.86-3.86l-32.46-.75-10.66 77.51L74.74 392l107 1.54v-33.2c-43.93-6.58-39.29-37.49 4.64-30.89l1.54-32.45 25.38 1.84 17.12 1.24v.38a36.525 36.525 0 0 0 .22 5.84c0 .41.09.8.16 1.19.07.39.12.78.2 1.15.08.37.12.59.19.87s.1.45.16.67c3 12 12.79 16.37 20.8 12.8l.42-.19c5.77-2.79 10.54-9.8 11.08-21.17l28.24-.49 14.9-.25h1.67l.29 8.2.83 23.48c26.44-1 31.07 27.34 15 39.44l-.54.41a28.377 28.377 0 0 1-15.61 4.95l1.57 18.92-120.51-2.71M302 76.45l-.2 24.52c34.24.78 30.86 36.5-3.38 35.73l-.42 11" stroke="#242424" stroke-width="2" stroke-linecap="round" stroke-linejoin="round"/><path d="M283.05 133.72c-24.05-.83-40.65-39.83-40.65-39.83s-5.18 26.76-.82 40.86c2.19 7.1 8.07 14.8 12.09 22.9 0 0 0 .08.06.12 3.93 7.95 6 16.29 1.12 24.9-3.15 5.53-7.4 6.45-11.73 5.16-3.8-1.15-7.66-4-10.89-7l-.24-.22a71.336 71.336 0 0 1-7.83-8.73 10.815 10.815 0 0 1-8.52 1.15c-4.84-1.25-11.17-5.94-17.31-19.56-.1-.22-.21-.44-.3-.66l-.1.37c-1.37 4.79-4.44 6.58-8 5.67-4.43-1.15-9.59-6.49-13.23-15.52-6.66-16.52-6-36.87.73-57a120.207 120.207 0 0 1 5.19-13c1.29-2.79 2.7-5.55 4.22-8.29 2.61-4.68 5.54-27.46 7.52-45.84V18.62a.94.94 0 0 0 0-.13h84.74c-4.33 9.44-8.71 20.24-10.89 29.19-.41 1.65-.73 3.22-1 4.72-1.3 8.11.58 15.84 4.15 22.9 3.68 7.31 9.18 13.88 14.82 19.41 2.84 2.77 5.71 5.27 8.41 7.46 13.35 10.83 12.53 32.37-11.54 31.55zM491.48 417.66v45.83H372c.185-.25.355-.51.51-.78a16.181 16.181 0 0 0 2.07-9.05v-.06c-.38-13.92-12.23-34.8-26.83-54.24a1.713 1.713 0 0 0-.12-.15l-1.14-1.49A307.11 307.11 0 0 0 324.58 372c-1-1-1.91-2-2.86-2.94A38.517 38.517 0 0 1 319 366a54.17 54.17 0 0 1-8.26-14.8 91.542 91.542 0 0 1-5.52-29.46 98.02 98.02 0 0 1 1.55-20.81c.026-.102.046-.205.06-.31a61.01 61.01 0 0 1 2.82-10.12 30.811 30.811 0 0 1 4.55-8.32 11.003 11.003 0 0 1 3.82-2.62 14.002 14.002 0 0 1 12.78.92h.06a14.64 14.64 0 0 1 3.81 3.44 22.913 22.913 0 0 1 4.19 9.57c.024.082.044.166.06.25l.07.39c.732 4.06.958 8.195.67 12.31-.13 1.62-.22 3.22-.25 4.76v.06a84.7 84.7 0 0 0 .15 8.64 56.598 56.598 0 0 0 2.11 12.33v.07c2.31 7.57 6.16 12 10.86 11.74a9.234 9.234 0 0 0 4.22-1.39 20.464 20.464 0 0 0 4.88-4.33 22.451 22.451 0 0 0 4.92-5.94c.42-.64.82-1.32 1.24-2 .87-1.49 1.75-3.14 2.63-4.89a141.814 141.814 0 0 0 6.94-16.79 120.824 120.824 0 0 0 4.37-15.92c1.14-5.81 1.51-11 .74-14.64a42.717 42.717 0 0 0-4-10.15c-2.43-4.75-5.53-9.85-8.32-14.9l-.35-.63c-5.26-9.61-9.26-19-5.3-25.31 7.73-12.36 17-17.78 27-10 1.36 1 3 2.43 4.75 4.1a131.071 131.071 0 0 1 17.68 20.65c6.54 9.55 11.63 20.19 11.37 29.33-.35 11.8-2.42 24.71-3.2 35.82a.565.565 0 0 0 0 .13c-.52 7.39-.45 14 1.09 18.9 2.09 6.66 9.27 21.43 18.37 36.39l.38.63c6.37 10.42 13.63 20.88 20.7 28.74l.09.1a92.46 92.46 0 0 0 4.3 4.45c7.9 7.58 16.23 14.73 23.18 20.44l1.27.83z" fill="#fff"/><path d="M380.62 177.65l-2.13 6.35-2.75 8.25-30.65 92-13.29-4.75-13.67-4.88-5.48-2a24.29 24.29 0 0 1-6.06 10.75c-13.18 13.09-38.45 1.7-31.8-21.56l-50.21-24.73 19.31-37.85h.07c1.43.48 23.45 7.6 27.94-7 4.49-14.6-13.51-23.43-14.48-24 0 0 .39-.76.38-.78l7-10.24 16.2-23.59 17.28 6.8 20 7.88c4.06-20.86 45.34-17.44 33 11.59l29.34 17.76z" fill="#FFB3B3"/><path d="M312.64 272.67l32.45 11.59 35.54-106.61M212.33 98c-11.2 38 11.82 73.84 11.82 73.84 18.19 30.2 43.59 16.8 29.59-14M196.15 101.78c-5 16.58-6.49 33.79 1.87 51.64 0 0 16.59 2.49 17.63 19.7M220.83 164.41c13.27-3.53 25.72 8.5 22.19 23.85" stroke="#242424" stroke-width="2" stroke-linecap="round" stroke-linejoin="round"/><path d="M372.13 252s-51.28 24-3.77 82.56L393 296l-20.87-44z" fill="#fff"/><path d="M379.95 265.91s-17.67 22.31-.29 46.06M370.39 252c-22.31 17.38-31.74 41.09-4.92 80.25M356.19 315.45s10.43-2 14.48 9" stroke="#242424" stroke-width="2" stroke-linecap="round" stroke-linejoin="round"/><path d="M194.83 306.66l-1.55 33.6c-14.07-4.9-26.26-5.56-35.54.39M237.32 301.25c0 21.63 20.09 21.63 20.09 0M94 321.92c0 1.29-11.59 63.93-11.59 63.93M310.71 80.7c1.16.39 100 3.09 100 3.09L407.47 169M280.58 219.1c0-1.53 20.72-51 13.13-53.53-7.59-2.53 5 78.48-1.54 81-6.54 2.52 11.55-71.85 7.75-74.4-3.8-2.55 9.33 60 2.42 60.5s14.51-56.93 5.18-57.44c-9.33-.51 21.76 41.3 18.31 50-3.45 8.7-24.18 31.1-18.31 35.69 5.87 4.59 22.8-80.55 17.27-81.06-5.53-.51 6.56 56.59 6.56 56.59l-.35 5.1s-1.38-33.14 3.8-42.82 17.62-5.61 17.62-5.61M109.08 115.08l-.58-36.51h19.7" stroke="#fff" stroke-width=".25" stroke-linecap="round" stroke-linejoin="round"/><path d="M194.42 19.67s-4.51 39.49-10.3 48.76c-5.79 9.27-16.78 47.62-7.43 74.91 0 0 16.77 6.55 14.7 15.27M278.09 19.59c-13.94 25.21-18 49.38 8.5 74.72 0 0-20.12 24.68 14.52 32.15M374.44 216.37c15.81-12.15 45.59 28.24 50.41 45.87 4.6 16.81-6.18 49.44-2.7 61.42 3.48 11.98 31.87 69.58 67.79 93.09" stroke="#242424" stroke-width="2" stroke-linecap="round" stroke-linejoin="round"/><path d="M372.51 462.71c6.33-14.9.06-36.79-40.56-81.89-19.31-18.93-29.18-37.7-26.27-71.84 13.9 1.13 23-7.37 25.3-29.74 15.06 16.22 6.4 35.23 7.66 42.27 3.64 21.46 15.23 22.91 15.23 22.91 3.6 2.29 37.37-49.25 37.37-49.25s-.87-17.38-17.67-39.4c-20.86-26.07.87-39.4.87-39.4 10.43 26.56 35.56 20.38 35.56 20.38M384.29 183.44l29.55 1.16M305.69 309c1.49-23.07 8.62-34.89 25-29.74" stroke="#242424" stroke-width="2" stroke-linecap="round" stroke-linejoin="round"/></svg>