<svg width="548" height="488" viewBox="0 0 548 488" fill="none" xmlns="http://www.w3.org/2000/svg"><path d="M130.71 301.35C184.35 475 506.61 407.84 488 306.75 461.39 162 35.4-7.21 130.71 301.35z" fill="#242424"/><path d="M37.67 198.26c1.29.11 66.76 47.88 82.27 213.09" stroke="#242424" stroke-width="2" stroke-linecap="round" stroke-linejoin="round"/><path d="M358.97 277.34l15.77-9.44-10.88-55.64-5.05 6.58 6.07 47.54-7.59 6.57 1.68 4.39z" fill="#81B38E"/><path d="M71 294.2c52.2 32.85 127.37-17 135.6-23l7 38.69c-46.84 39.1-102.2 70.78-147 24.61l4.4-40.3z" fill="#fff"/><path d="M390.78 339.44c7.76-4.65 35.61-25.52 35.61-25.52l1-10.62-1.57-.57c-5.43-2-23.13-8.3-22.71-7 .42 1.3.49 14.89-16.1 33.62a127.64 127.64 0 0 1-15.25 14.42 6.154 6.154 0 0 0-1 1.45c-1.4 3.18 7.89 0 14.77-2.63l2.62-1.55 2.63-1.6z" fill="#4A657C"/><path d="M279.48 384.26c-.12 1.54-.27 2.49-.27 2.49a24.73 24.73 0 0 1-1.89 4.81 28.561 28.561 0 0 1-1.71 3 123.557 123.557 0 0 1-12.74-.77c-8.46-.89-18.21-2.53-28.59-4.63l-.08.13-5.09-1.19h-.09c-6.1-1.3-12.38-2.74-18.69-4.26l-.13-.15c-5.3-6.22-9.73-12.45-12.18-15.83-1.24-1.38-.6-4.42 1.34-7.72 4.12-7 14.09-15.22 23.94-10.76 10.08 4.57 9.18 13.72 7.72 18.82 4.17-5 16.44-5.12 16.91.15a19.937 19.937 0 0 1 21.17-7 12.317 12.317 0 0 1 7.87 6.42 22.503 22.503 0 0 1 2.24 7.14c.437 3.097.528 6.233.27 9.35z" fill="#81B38E"/><path d="M241.78 377.14l-7.51 12-.08.13-5.09-1.19h-.09l-18.44-4.32-.38-.09-8.88-2.07h-.06l-23.19-5.43v-.68l.47-8.43-3.53-16.73 24.33 9.77 41 16.47 1.45.57z" fill="#fff"/><path d="M367.74 265.87l-10.37 7.17v.02l-9.42 5.36-23.2 13.23-7.56 4.3-9.12 5.2-3.97 2.27-7.03 4.01-3.34 1.91-7.19 4.09-12.13 6.92-1.42.81-21.6 12.31-11.67-21.25-9.02-16.45-16.87-30.74-7.88-14.35-48.12-87.65 2.53-26.8 77.26 106.98 1.64 2.26.14-.06 12.2-5.05h.01l102.05-42.23 2.93-1.21 4.8 33.66 6.35 35.29z" fill="#4A657C"/><path d="M321.09 357.15a47.598 47.598 0 0 1-1.55 9c-.11.45-.24.89-.37 1.35l-1.85-.78L306 362v-1.18-.42c-.4-15-11.66-32.34-26.27-38.36a29.59 29.59 0 0 0-5.34-1.65c-.52-.1-1-.19-1.56-.27a25.813 25.813 0 0 0-6.79-.09l12.89-10.37 7.65-6.15 2.73-2.19a74.379 74.379 0 0 1 7.75 6.15c9.94 8.81 25.74 26.68 24.03 49.68z" fill="#81B38E"/><path d="M334.17 243.9l-13.25-1.64 12.54 7.11-3 9.7 11.62-8.32 13.43-1.12-6.86-6.94-4.87-2.5s-7.8-18.64-13.52-7.61c-5.72 11.03 3.91 11.32 3.91 11.32z" fill="#FFCB48"/><path d="M243.81 264.86S262 275 264 275.48c2 .48 16.69-21.75 15.17-26.3-1.52-4.55 33.38-16 33.38-16l2-17.53-78.39 39.87 1.52 27.06 6.13-17.72z" fill="#fff"/><path d="M160.36 136.23L251.4 89.7l105.19 107.22-124.92 61.2-71.31-121.89z" fill="#4A657C"/><path d="M289.83 158.65c2 0 32.37 15.51 32.37 15.51L299.95 191l-41.13-24.28 31.01-8.07z" fill="#81B38E"/><path d="M390.78 339.44a352.283 352.283 0 0 0-3.76-10.1c-10.86-28-21.65-45.7-29.65-56.28-7.78-10.3-12.92-13.92-12.92-13.92s-27 19.9-36.08 22.93c-9.08 3.03-33 13.48-33 13.48 4.067 2.667 7.82 5.31 11.26 7.93 2.54 1.953 4.917 3.91 7.13 5.87 18.64 16.43 26 32.92 25.11 48.36a42.961 42.961 0 0 1-1.16 7.69c-.11.46-.22.91-.35 1.36-.05.21-.11.4-.17.61l14.58 5.78 1.75-.93c16.64-8.89 34.95-19.45 52.05-29.63l2.62-1.55 2.59-1.6z" fill="#fff"/><path d="M333.47 372.2l-1.75.93c-11.34 6-21.85 11.24-30.59 15-6.75 2.88-12.44 4.9-16.67 5.73a37.842 37.842 0 0 1-5 .6c-1.21.08-2.51.12-3.86.12a123.557 123.557 0 0 1-12.74-.77c3.179-2.977 6.2-6.118 9.05-9.41.767-.893 1.517-1.793 2.25-2.7 1.8-2.22 3.47-4.47 5-6.76a90.078 90.078 0 0 0 5.37-9 79.87 79.87 0 0 0 5.26-12.57l2.94 1.27 3.35 1.44 9.89 4.28.63.27 11 4.75 1.87.8 14 6.02z" fill="#FFCB48"/><path d="M251.39 333.47l-11.67-21.25-9.02-16.45-16.87-30.74-7.88-14.35-48.12-87.65 2.53-26.8 62.53 106.55 1.92 3.27 3.19 5.43.33.57 2.73 4.65.78 1.33 4.5 17.38 1.27 4.89.39 1.49.98 3.8 1.34 5.17 11.07 42.71zM301.13 388.1c-6.75 2.88-12.44 4.9-16.67 5.73a37.862 37.862 0 0 1-5 .6l-2.15-2.86-5.4-7.19-4.47-6 6.72 3.26 5.32 2.59 10.35 5 2.17-25.07.81-9.52 1.1-12.91 2.25 14.34 1.06 6.83 3.91 25.2z" fill="#4A657C"/><path d="M313.58 224.57c-6.23 2.93-12.71 6-19.14 9-23.5 10.92-46.21 21.26-52.64 24.83l-.17.09c-.471.259-.929.543-1.37.85-1.15.88-.84 5.2.31 11.28 0 .08 0 .16.05.24.13.67.26 1.37.41 2.08.53 2.51 1.16 5.25 1.88 8.13.06.23.11.47.17.7.06.23.11.42.16.64.39 1.54.8 3.11 1.22 4.69 5.15 19.3 12.47 41.52 12.47 41.52a718.772 718.772 0 0 1 14.32-7.69l1.57-.82c5.693-2.933 10.26-5.15 13.7-6.65 8.5-3.73 10-3.07 4.22 1.75l-11 6.82-1.07.66-30.82 19.08s-3.82-13.21-8.13-29.52c-1.54-5.85-3.15-12.08-4.65-18.25-.48-1.91-.94-3.82-1.39-5.71a489.2 489.2 0 0 1-2.18-9.5c-.83-3.81-1.57-7.41-2.16-10.68-.55-3-1-5.67-1.23-8-.45-3.71-.49-6.41 0-7.67.05-.137.121-.265.21-.38a.347.347 0 0 1 .05-.08c.81-1 4.86-3.33 11-6.55 2.49-1.3 5.32-2.75 8.44-4.31C282.5 223.71 351 192.54 351 192.54l2.63 5.59 1.42 3c6.37.11-15.29 11.04-41.47 23.44z" fill="#81B38E"/><path d="M286.8 103.27a133.066 133.066 0 0 1-21.75-18.71c-9.61-10.62-33.38 7.33-29.84 10.87 3.54 3.54 16.69-6.07 16.69-6.07 3.26 4.61 16.63 18.09 28.32 30.09l6.58-16.18z" fill="#fff"/><path d="M357.11 112.48C338.83 137 317.84 145.84 293 132.07a90.643 90.643 0 0 1-15.78-11.35c-.13-8.1 9.31-22.6 9.31-22.6s17 21.08 36.21 3.88c7.41-6.64 27.52-37.69 27.77-37.43.25.26 1.23 17.2 6.6 47.91z" fill="#242424"/><path d="M369.07 183.6l-9.27 4.55s-16 .34-23.6 7.08c-7.6 6.74-5.54 11.3-1.52 10.62 4.02-.68 17.57-7.79 17.53-7.08 0 0-.84 7.08-5.9 8.6-5.06 1.52-21.75 1.52-19.22 6.57 2.53 5.05 15.68 2 15.68 2l-10.92.5c-2.73 1 9.57 7.76 17 4.22s-6.74 2-3.88 3.37c2.86 1.37 13 1 17-6.07s12.14-10.28 15.68-14.33c3.54-4.05 3-1.35 3-1.35l-11.58-18.68z" fill="#fff"/><path d="M459.13 62.7c-1.09 17.67-14.56 51.06-28 65.6-12.64 16.18-61.63 50.65-65.38 52.15-.24 9.59 3.76 18.9 12.51 27.89 48.11-17.08 102.43-26.29 128.06-122.72.33-1.51-28.98-1.34-47.19-22.92z" fill="#242424"/><path d="M246.08 280.79c1.64 1.43.73 3.74-1.6 6.27a30.329 30.329 0 0 1-4.17 3.69c-.39.31-.81.61-1.23.91a28.196 28.196 0 0 1-4 2.31 47.2 47.2 0 0 1-4.37 1.8 61.893 61.893 0 0 1-6.87 2l-4.76 4.76-4.51 4.52-2.57 2.56-2.46 2.46-12.64-34.39a67.345 67.345 0 0 0 9.59-6.27l1.9-1.49a56.223 56.223 0 0 0 5.39-4.89c2.23-2.35 3.85-4.7 4.19-6.75.66-4.15-1.26-7.39-2.29-10.07-.81-2.11-1.06-3.87.94-5.43 2-1.56 4.28-1.27 6.22 0a11.066 11.066 0 0 1 3 3 12.26 12.26 0 0 1 1.91 4.39c.08.43.14.86.2 1.28.06.42.09.64.12 1a29.394 29.394 0 0 1 0 7.67 24.49 24.49 0 0 1-5.36 12 66.093 66.093 0 0 0 6.6-4 11.355 11.355 0 0 0 3.35-3.21c1-2-1.35-5.56-1.62-8.16a2.536 2.536 0 0 1 .61-2.21c1.46-1.46 3.85-1.28 6.19.18a13.167 13.167 0 0 1 3.67 3.61c.037.051.07.104.1.16 2.09 3.24.73 8.28-.53 11.33a7.84 7.84 0 0 1 .68-.85c.267-.302.569-.57.9-.8 1.19-.81 2.55-.67 3.65 2.12 1.54 3.89-.13 7.5-2 10a1.993 1.993 0 0 1 1.77.5zM138.86 192.54s-1.77-19 5.31-30.6c7.08-11.6 9.61-20.74 11.13-23.26 1.52-2.52 5.06-6.07 5.56-.51.17 1.9 2 16.69 2 16.69s5.06 3.54 1.16 9.88c.89 7.14 1.62 12.88 1.62 12.88l-2.15 18.59-24.63-3.67z" fill="#fff"/><path d="M174 194.06c-1.11.15-8.45 95.07-104.32 74l-9.44-40.8C125 231.64 124 210.74 133 185c1.894.225 3.774.559 5.63 1 6.58 1.37 17.43 3.87 25.36 5.75l10.01 2.31z" fill="#fff"/><path d="M234.71 253c13.15 5.06 11.13 19-6.07 27.31M231.42 289.14c10.62-3.79 13.66-8.85 13.66-8.85M218 241.85c3.79 1.77 3.3 9.15-.76 10.12M217.93 314.26c-21-16.94-10.54-46.36-10.54-46.36l-32.51 6.41M151 168.15s6.29-1.8 6.75-5.9c1.06-9.49 7.84-9 7.62-2.12-.09 2.87-3.51 10.55-5.66 11.4 0 0 7.16 9.67-3.68 17.55M212.64 308.67l10.94-9.42M297.42 295.21s10.12 15.17 10.62 7.59-4.55-14.16 3.54-9.61c8.09 4.55 13.66 6.07 13.15-2-.51-8.07-1-9.1 4.55-7.08 5.55 2.02 7.08-2 8.09-6.57 1.01-4.57 5.56-10.62 7.08-4 1.52 6.62 6.07 5.06 6.07 5.06M317.14 310.89c1 1.52 9.1 13.66 12.14 3.54 3.04-10.12-1-16.69 4.55-12.14 5.55 4.55 7.59-3.54 7.59-3.54l3.54-6.07 11.13 2.53M326.25 333.65l4.45 6.06s1-10.1 2-8.76c1 1.34 9.89 5.73 9.89 5.73a17.135 17.135 0 0 0-3-9.09c-3-4-13.85-3.71-2.47.67C348.5 332.64 349 337 348 331.29c-1-5.71-12.86-18.19-1.48-9.09 11.38 9.1 12.86 4.38 12.86 4.38l4.95-3.71 6.92 2.36M279.35 310.58c-3.43-10-18.37-3.84-15.24-1.43 3.13 2.41 14-5.1 1.1-10.67M165.92 139.44l50.58 92.04" stroke="#242424" stroke-width="2" stroke-linecap="round" stroke-linejoin="round"/><path d="M315.66 208.86l2.49-15.81-71.47-37.09-7.42 28.99-32.37-2.69 26.97 66.76 81.8-40.16z" fill="#fff"/><path d="M221.72 164.05l71.48 4.04-2.69-24.27-26.98-11.47-18.2-28.99-20.23 33.71-29.67 16.19 43.83 6.07-17.54 4.72z" fill="#FFCB48"/><path d="M196.09 128.9l58.35 94.91M229.65 110.78l75.36 92.89M194.75 165.4l76.2-39.79M229.14 218.67l93.06-48.55M246.84 188c8.47 1.34 21.4-8 15.16-10.25-6.24-2.25-10.25 9.81-3.12 9.81s8.47-8.47 14.26-8M290.34 258.79v16.69M307.53 251.71l5.57 4.55M266.57 320.66a33.926 33.926 0 0 1 29.92 16.86M327.76 215.8s21.75 4.55 26.8-9.61M334.51 220.36c12.81 4.72 21.47-4.05 23.26-10.28M332.32 206.36c4.81-3.91 4.38-8.77 1.85-9.95 5.54-5.67 14.09-8 24.78-7.92l9.27-4.55" stroke="#242424" stroke-width="2" stroke-linecap="round" stroke-linejoin="round"/><path d="M249.63 86.53s3.41 4.79 3.72 6.29c.31 1.5-8.27 5.82-4 8.81s10.08-4.79 11.85-6.54c1.77-1.75-.88-3-.53-4.24.35-1.24-11.04-4.32-11.04-4.32z" fill="#fff"/><path d="M229.14 319.82c-.67 9.44-13.49 18.88-13.49 18.88M272.3 340.05c2.7 8.77 7.42 11.46 7.42 11.46" stroke="#fff" stroke-width=".25" stroke-linecap="round" stroke-linejoin="round"/><path d="M238 96.45c-9.36-4.55 15.17-16.94 20.86-15.68 5.69 1.26 16.76 14.44 25.67 22M138.65 184.92c-.48-12.94 4.24-23.82 11.41-35.24 3-4.75 4.48-15.31 10-14-2.28 5.31-4.55 20-4.55 20M173.13 194.26c-16.54 6.64-29.21 3.06-40.08-9.31-8.33 24.54-10.39 47.37-69.74 42M342.94 222.55c7.42 5.9 16.85-1 23.1-9.61a68.947 68.947 0 0 1 9.78-7.91" stroke="#242424" stroke-width="2" stroke-linecap="round" stroke-linejoin="round"/><path d="M403.31 331.12s1.17-23.57 23.84-25.63c0 0-3.76-10.39 8.11-14.75-.39-6.29 4.27-8.4 13.75-6.52l-2.16 14.07 6.25 11-18.64-.79-1.5 7.71-8.18-1-21.47 15.91z" fill="#FFCB48"/><path d="M354.77 106.55c9.21 44.9 28 94 50.74 144.31" stroke="#242424" stroke-width="2" stroke-linecap="round" stroke-linejoin="round"/><path d="M395.559 83.93c.067-2.12-1.84-3.899-4.258-3.974-2.417-.076-4.431 1.581-4.497 3.701-.067 2.12 1.84 3.9 4.257 3.975 2.418.075 4.432-1.582 4.498-3.701zM404.174 111.744c.067-2.125-1.848-3.91-4.277-3.985-2.429-.076-4.452 1.585-4.518 3.71-.067 2.126 1.848 3.91 4.277 3.986 2.429.076 4.452-1.586 4.518-3.711z" fill="#242424"/><path d="M64 294.19c32.87 24.78 92.55 1.52 92.55 1.52M80.82 353.36c25 7.42 60.35 3.71 78.9-5.73M173.89 194.58c-10.6 43.79-30.32 79.79-85.64 76.85M415.94 211s61.78-14.92 87.3-40.19M457.78 198.26c4.73 18.49 16.16 34.63 21.58 46.51" stroke="#242424" stroke-width="2" stroke-linecap="round" stroke-linejoin="round"/></svg>