<svg width="548" height="488" viewBox="0 0 548 488" fill="none" xmlns="http://www.w3.org/2000/svg"><path d="M121.75 208.34C58.37 286 31.11 423.75 156.09 433.15c179.65 2.91 349-225.52 247.85-295.8s-218.82-6.71-282.19 70.99z" fill="#524377"/><path d="M266.11 257.89v194c0 4.93-6 4.93-6 0V258.7c-1.49-.81 6-.81 6-.81z" fill="#242424"/><path d="M210 223.75c-1.13-37.37 14.48-54.35 50.65-46.28 45.21-12.85 54 15.17 55.45 44.76-1.7 54.96-107.8 56.47-106.1 1.52z" fill="#FF8643"/><path d="M503.06 344.1c.18.38 7.85 70.84 7.85 70.84s-40.48 16.5-88.17 5.69c-14.42-1.14-46.09-14.23-52.49-18.4a23.11 23.11 0 0 0-16.55-3.31 30.896 30.896 0 0 0-6.25 1.7c-.929.354-1.834.768-2.71 1.24-25.51 13.66-25.88-12.14-25.88-12.14-23.66-1.14-8.08-24.33-8.5-24.65-.23-.18-.47-.36-.68-.56-8-7.08-3.23-20.94 5.11-23.73-17-17.82 10-32.62 10-32.62 6.91-1.91 14.49-.1 22.72 3.29 2 .83 4.09 1.76 6.2 2.75 5.9 2.78 14.31 5.86 20.79 8.94-7.66-11-9.53-42.26 3.33-53.11 8.69-4.36 14.42 2.09 15.34 12.14.92 10.05 3.7 29.78 5.91 35.66 2.21 5.88 14.23 19.73 23.1 22.76 32.73 11.19 80.7 3.13 80.88 3.51z" fill="#fff"/><path d="M302.79 99.33s104.57-25.67 108.68 4.55c19.97 56.9-126.83 42.96-108.68-4.55z" fill="#524377"/><path d="M373.4 107.3c5.13-1.39 11.8 9.72 10.72 15.93M320 122.33c1.57-6.73 4.72-11.44 9.57-13.51" stroke="#242424" stroke-width="2" stroke-linecap="round" stroke-linejoin="round"/><path d="M303.35 104.83c-1.08 2.06 4.62 10.81 12.38 9.1 7.76-1.71 8.69-9.67 8.69-9.67s3.21 10.46 11.82 10.25c8.61-.21 9.49-10.16 9.49-10.16s2.76 9.75 11.56 9.73c8.8-.02 12.72-11 12.72-11s.11 8.12 10.05 9.42c9.94 1.3 11.83-9.76 11.83-9.76s6.65 13.66 16.27 10.62c8.84 2.19 4.46-4.76 4.46-4.76-40.46-18.42-88.56-34.68-109.27-3.77z" fill="#fff"/><path d="M297 119.84c.57.15 2.61-7.47 8.06-3.84 5.45 3.63 1.55 11.29 1.55 11.29s3.16-9.5 11.66-7.92 10.83 14 10.83 14 1.51-14.71 12.27-14.15c10.76.56 11.88 11.78 11.88 11.78s.4-11.91 11.64-11.75c11.24.16 10.66 12.54 10.66 12.54a10.462 10.462 0 0 1 7.09-12.54c9.52-3.51 11.73 6.17 11.73 6.17s1.39-6.17 6-9.4c4.61-3.23 6.68-2.21 6.68-2.21 4.5 38.03-84.83 31.51-110.05 6.03z" fill="#fff"/><path d="M357.32 85.86c-12.58.76-48.24-8.34-62.29 9.87-14.05 18.21 2.41 42.3 18.66 46.09 8 1.88 20.95 2.13 33.93 2 2 0 4.08 0 6.1-.08 11.15-.19 21.77-.52 28.73-.2 16.27.76 26.81-5.88 32.73-17.26 4.43-14.44 5.54-45.54-57.86-40.42zm-55.56 25.86c.169-1.987.683-3.93 1.52-5.74.08-.19.17-.38.26-.57 5.9-12.27 41-6.3 51.67-6.71 41.21-3.28 47.85 6.51 48.2 14.9v.72a67.34 67.34 0 0 1-.81 7.32c-.6 7.26-13.31 9.4-27.08 9h-.19c-11.23-.33-31.26 1.09-45.79.53h-1c-3-.14-5.7-.36-8-.71-.84-.13-1.67-.28-2.48-.48a24.873 24.873 0 0 1-10.35-4.98l-.17-.14a16.003 16.003 0 0 1-5.69-9.83 13.869 13.869 0 0 1-.1-3.32l.01.01z" fill="#FFCB48"/><path d="M209.72 472.15c-34.26 9.09-67.66 11.37-99.47 1 32.14-49.73 5.85-86.42 5.85-86.42S87 358.32 82.55 348.37c-4.45-9.95 2.27-18.57 6.27-18.6-1.53-7.53-1.46-11.88-.35-14.87.029-.085.062-.169.1-.25 1.21-3 3.55-4.64 6.37-6.87a20 20 0 0 1 2.11-8.41 27.815 27.815 0 0 1 7.08-9.37c10.27-6 33.33-8 38.43-6.28 5.1 1.72 10.26 9.7 16.32 12.22 6.06 2.52 8.16 8 9.18 11.86 1.02 3.86-.17 9.42-8.46 7.07a1.239 1.239 0 0 0-.39.9c.123.635.458 1.21.95 1.63.62.66 1.35 1.3 1.48 1.92.47 2.17-.06 2.53-.49 3.23-.26.446-.398.953-.4 1.47-.33 7.79 4.65 11.14 8.54 12.62 1.121.425 2.275.759 3.45 1 .7.104 1.411.104 2.11 0 9.52-1.32 1.12-25.31 0-40.92v-.06a36.877 36.877 0 0 1-.08-4.46c0-.52.05-1 .09-1.55 1-14.78 6.37-22 13.94-23.36 7.83-1.39 11.95 3.12 11.56 8.38-2 7.33-7 7.85-5.61 19 1.07 8.78 14.68 22.23 9.81 53.23-8.81 40.36 2.1 74.52 5.16 124.25z" fill="#fff"/><path d="M210 218.82c26.06-36.37 82.07-34.14 104.25-4.55-18.49 44-71.84 41.4-104.25 4.55z" fill="#524377"/><path d="M114.33 331.86s11.22 4.19 18.36 6.28c7.14 2.09 12.24 3.14 13.26 8.38 1.02 5.24-3.06 9.42-10.2 11.52-7.14 2.1-19.38-1-24.49-7.33" stroke="#242424" stroke-width="2" stroke-linecap="round" stroke-linejoin="round"/><path d="M150 342.33c8.16 1 8.84-10.82 2-14.66s-10.2-4.19-22.44-12.56c-12.24-8.37-48-19-41.15 13.78-6.11 4.73-8.54 9.86-5 19 3.54 9.14 22.68 27.25 33.77 39.77 11.09 12.52 13.83 52.9-7 86.09M131.67 338.14s-1 16.75 13.26 13.61M142.9 325.58s.34 13.26 12.92 14" stroke="#242424" stroke-width="2" stroke-linecap="round" stroke-linejoin="round"/><path d="M149 367.46c5.74-11 13.5-22.89 15.3-33-1 4.19-12.24 15.18-19.73 25.67-7.81 3.64-26.31 8-26.18 14.63M113.31 363.62s6.63 1.74 11.22-5.06" stroke="#242424" stroke-width="2" stroke-linecap="round" stroke-linejoin="round"/><path d="M104.09 79.17S128 45 174.51 56.59c.06.79 51.56-13.55 73.56 21.29.71 27.43-36.9 38.27-76.27 26.95-30.17 6.9-65.53.25-67.71-25.66z" fill="#FF8643"/><path d="M133.61 88.51c3.27 2.27 7.78.76 10.25-3.27 0 0 .71 8.34 9.19 7.62 8.48-.72 7.42-12.7 7.42-11.61 0 1.09-.35 14.87 8.49 15.6 8.84.73 7.78-17.78 7.78-16.69 0 1.09.35 15.6 7.42 15.6s9.19-16.33 9.19-16.33.71 14.87 7.42 14.87 8.49-12 8.49-12 1.41 8.8 5.75 8.62c4.34-.18 6.36-10.34 6.36-10.34l-2.47-.45-45.9-4.68a228.404 228.404 0 0 1-39.86 6.26c-3.71-2.46-2.8 4.53.47 6.8z" fill="#fff"/><path d="M112.4 81.25c21.57.73 42.93-1.32 61-6.11 15.29 3.82 41 5.05 64.19 5.82M230.7 201.75s-6.65 20.67.74 34.33M252.88 224.89c4.79-3.08 7.19-6.69 8.13-10.62l.74 24.28M269.15 223.37c-2.7-.32-5.41-3.79-8.13-9.1" stroke="#242424" stroke-width="2" stroke-linecap="round" stroke-linejoin="round"/><path d="M294.61 238.78c-18.11 12-41.62 10.4-62.06-1.52 0 0 5.22-1.33 7.58-.62 2.36.71 6.24 5.69 6.24 5.69s5.06-4.62 10.88-3.63c5.82.99 6.54 7.75 6.54 7.75s1.76-7.21 8.87-7.59c7.11-.38 8.13 2.28 8.13 2.28s2.82-4.32 6.65-4.55c3.83-.23 7.39 2.28 7.39 2.28l-.22-.09z" fill="#fff"/><path d="M158.88 295.92s-3.74 15.35 7.82 17.8M151.23 315.46s1.19 9.6 7.82 11c3.23-3 2.76-7.56-.68-11.86-6.45-8.08-21.31-17.91-28.74-20.41-11.39-3.85-32.63 5.22-32.63 5.22M380.6 268.33c.16 1.57 2.56 17 12.86 19.56M375.58 327.9s-1.93 45.26 35.59 51.78M374.36 350.33s9.79 20.68 1.46 39.18" stroke="#242424" stroke-width="2" stroke-linecap="round" stroke-linejoin="round"/><path d="M174.24 105.39l-.09 167.22V318l-.06 89.36c-1.9 1.85-3.91 1.69-6 0V105.48l3.67-.7 2.48.61zM89.9 8.67v145.24l-.06 59.29a5.55 5.55 0 0 1-6 0V8.81l6.06-.14zM353.71 143.65v279.83c0 3.79-6.29 3.79-6.29 0V143.53l6.29.12z" fill="#242424"/><path d="M345.39 327.93l9.06 3.03-.42 55.01-8.87 9.24.23-67.28z" fill="#fff"/><path d="M342.9 344.38c3.43-8.87 13.86-5.41 15 2M345.12 348.94c-7.7 1.19-4.93 13.13 2.77 11.95M323 386.34c1.66-.11 35.63-8 29.82-21.29M331.25 403c1.66 0 27.17-13.09 22.18-24.47M345.95 377.67c-2.9-2.66-4.16-9.39.28-11.38M349.27 389.71c-3.25-1.88-3.33-7.11-.55-9.67M159.22 315.75s12.75 2 8.42-9.8c-2.94-8-13.77-13.61-18-18.46-2.62-2.48-6.36-3.29-8.49-4-6.63-2.36-26.37.28-37 6.54-6.06 4.2-6.89 9.16-6.89 9.16s-3.06 4.45-2.3 8.64" stroke="#242424" stroke-width="2" stroke-linecap="round" stroke-linejoin="round"/><path d="M194.93 286.67c-3.4-6.63-1.4-14.91 3.06-17.45-10.63-7-20.66.25-23 19.45-.15 22 8.67 41.35 2 47.9-8.42 6.54-18.36-7.33-16.32-12.54" stroke="#242424" stroke-width="2" stroke-linecap="round" stroke-linejoin="round"/><path d="M209.72 472.67s-7.91-75.64-8.93-85.85c-1.02-10.21 5.36-50 5.36-53.65-.77-20.94-16.58-40.31-10.71-46.59 2-3.05 3.57-5.06 4.34-7.68s-.22-8.41-1.79-9.68M503.15 343.25s-67.1 9.67-89.83-8.25c-10.54-8.25-12.75-12.8-14.14-18.21-1.39-5.41-5.55-25.89-5.82-37.84-.83-10.53-14.14-15.65-19.69-5.12a57.999 57.999 0 0 0 .83 49.31s-7.69-4.2-16.92-8.32c-5.46-2.43-12.73-4.22-18.65-5.39-10.18-1.75-11-2.89-20.44 2.52-12.83 9.34-9.09 23.78-5 28.45l2.22.85c38.82 14.51 47.69 6 45.19-2.56s-14.42-8.25-20.24-13.09a36.002 36.002 0 0 1-8.87-11.95" stroke="#242424" stroke-width="2" stroke-linecap="round" stroke-linejoin="round"/><path d="M313.51 340.4c-7 6.12-10.61 13.42-3.88 24.47 0 0 49.35 6.26 43.81-15.93M310.37 365.06c-7.77 15-6.86 24.4 8.5 24.65 1.26 17.93 11.86 20.47 29.58 11.29" stroke="#242424" stroke-width="2" stroke-linecap="round" stroke-linejoin="round"/><path d="M347.33 401.57s10.26-5.41 18-1.14c77.35 43 144.36 15.74 144.36 15.74" stroke="#242424" stroke-width="2" stroke-linecap="round" stroke-linejoin="round"/><path d="M137.39 219.66a16.15 16.15 0 0 1-1 5.13C133 233.73 121.44 242.17 100 243c-4.671.171-9.348.028-14-.43V211c2.42-.34 4.85-.64 7.28-.9 20.34-2.21 39.9-1.59 43.48 6.49.438.963.653 2.012.63 3.07z" fill="#FFCB48"/><path d="M39.59 219.66a14.997 14.997 0 0 0 1.12 5.13c3.65 8.94 16.21 17.38 39.49 18.25 5.057.169 10.12.026 15.16-.43V211c-2.63-.34-5.27-.64-7.91-.9-22.1-2.21-43.36-1.59-47.25 6.49a6.558 6.558 0 0 0-.61 3.07z" fill="#FFCB48"/><path d="M55.07 223.68c24 4.32 46.2 4.29 66.55-.39" stroke="#242424" stroke-width="2" stroke-linecap="round" stroke-linejoin="round"/><path d="M229.59 201s4.81 5.74 9.94 5.5c5.13-.24 8.13-12.14 8.13-12.14s-1.39 14.79 8.13 14.41c9.52-.38 5.21-13.66 5.21-13.66s2.26 13.28 9.2 12.71c6.94-.57 9.29-11.19 9.29-11.19s1.57 11.38 8.13 9.86a11.477 11.477 0 0 0 5.09-2.633 11.483 11.483 0 0 0 3.18-4.767c-23.33-12.44-50.59-8.59-66.3 1.91z" fill="#fff"/><path d="M297.24 201a55.772 55.772 0 0 1-2 36.42" stroke="#242424" stroke-width="2" stroke-linecap="round" stroke-linejoin="round"/></svg>