<svg width="548" height="488" viewBox="0 0 548 488" fill="none" xmlns="http://www.w3.org/2000/svg"><path d="M499.32 385.78c-34.2 27.14-86.28-14.52-143.38-40.24-57.1-25.72-86 43.94-161.23 24.69C119.48 350.98 55.33 250.49 135 164.26c79.67-86.23 228.41-2.4 287.38 36.68 96.18 63.98 111.14 157.7 76.94 184.84z" fill="#C69C6F"/><path d="M474.71 374.66l27.87 56.08c-14.5 24.93-31.52 44.14-56 46.44 3.18-30.4-3.41-60-12.86-83.25a60.84 60.84 0 0 1 4.49-5.6c8.69-9.55 18.66-12.75 31.11-13.08 1.6-.03 3.75-.69 5.39-.59z" fill="#fff"/><path d="M280.44 374.88l8.15 16.95-12.14 22.7 94.09-17.13-90.1-22.52z" fill="#E05151"/><path d="M434 394.51c11.2-13.34 18.57-18.61 40.4-19.78" stroke="#242424" stroke-width="2" stroke-linecap="round" stroke-linejoin="round"/><path d="M339.49 389.81c-6.58-10.19-19.93-19.58-31.41-18.29-2.94-5-11.34-5-12.45.91-4.11-3.67-9.79 1.15-5.68 4.82l49.54 12.56zM164.63 286.3c-3.35-.12-8.62-4.54-17.85-7.37-2.65-.82-6.52-4.21-17.88-3.65-22.52-4.52-81.29 8.41-93 14.58-4.81-26.33-2.06-45.11 4.35-53.39 8.07 2.93 57.53 8.36 72.55 2.28l.08-.05a56.315 56.315 0 0 1 7.5-4.15 23.153 23.153 0 0 1 8.86-2 24.302 24.302 0 0 1 5 .41c.175.02.349.05.52.09 7.74 1.51 17.78 1.36 25.92 1.94 2.21.132 4.41.39 6.59.77a26.776 26.776 0 0 1 6.23 2.34c7.25 3.06 9 19-28.47 13.79 0 0-16 5.39 4.69 11.73 20.69 6.34 19.08 21.51 14.91 22.68z" fill="#fff"/><path d="M123.76 235.54S153 224.23 163 213.78c5.72-3.95 9.92 2.1 6.38 7.23-3.54 5.13-4.69 3.16-4.69 3.16s6.56-7.2 10.7-1-9.58 15.7-9.58 15.7l-42.05-3.33z" fill="#fff"/><path d="M168.64 234.22a37.899 37.899 0 0 1-4.1.09 10.796 10.796 0 0 0-2.64 0c-1.46.42-1.31-.6-1.2 1 .104.916.368 1.806.78 2.63h2.4a46.034 46.034 0 0 0 5.5-3.86l-.74.14zM387.41 46.32c22 16.07 32.93 41.49 32.63 51.42.72 5 0 9.95-3.68 13.27a2.267 2.267 0 0 1-.24.22 5.976 5.976 0 0 1-.51.43L408 97.52c2.67-.2 5.26 3.27 6.86 8.05.545 1.649.95 3.342 1.21 5.06 0 .19.07.4.08.59.303 2.153.37 4.332.2 6.5v.09c-.56 6.32-3.44 12-10.11 13.38-.961.2-1.939.308-2.92.32h-.27c-6.57-1.21-7.9-25.71-7.9-25.71 5.12 10.14 8.09 18.44 7.9 25.71a21.686 21.686 0 0 1-1 6.06 22.276 22.276 0 0 1-2.92 5.94c-3.84 5.62-8.33 5.54-11.55 4.37a14.5 14.5 0 0 1-4.15-2.39l-.15-.13-.09-.94-.05-.56-.2-2.06-3.4-35.95c5.62 12.46 6.67 23.18 5.53 31.22a.338.338 0 0 1 0 .11 33.315 33.315 0 0 1-1.25 5.51c-.19.61-.39 1.18-.61 1.73-3.18 8.12-8.82 10.88-11.28 6-1-1.95-1.46-5.13-1.06-9.69 2.41-27.36-5-33.79-5-33.79-12.81 28.91-48.33 12.92-46.56 4.34a4.82 4.82 0 0 1 .58-1.5c2.54-4.23 11.27-5.74 17.54-6.56 2.86-.37 5.21-.61 6.21-.88 3.23-.9 15.91-11.9 3.78-51.39l39.99-4.63z" fill="#fff"/><path d="M292.38 391.59l77.78 5.46" stroke="#242424" stroke-width="2" stroke-linecap="round" stroke-linejoin="round"/><path d="M168.95 334.73s26.85-27 43.78-32.37c16.93-5.37 41.45-1.65 37.27 8.64-4.18 10.29-24.49.32-33-.07 0 0 17.85 2.22 21.9 10.34 3.6 7.22-4 16.47-9.47 9.81a23.75 23.75 0 0 0-15.19-8.61c-10.66 1-11.91 5.13-11.91 5.13s11.84.25 16.3 4.23c3.05 3.18 5.49 15-18.83 10.15-6.43 5.58-7.17 14.94-7.17 14.94l-23.68-22.19z" fill="#fff"/><path d="M204.84 306.06s5.85-22.87 14.16-23.64c8.31-.77 9.77 5.45 6.76 8.84-3.01 3.39-7 10.59-7 10.59l-13.92 4.21z" fill="#fff"/><path d="M439.85 393.42S429.62 366.5 423 356.63c-6.62-9.87-16.09-19.74-27.31-19.35-11.22.39-11.69-9.8-7.69-11.96 5.25-4.31 22.1 3.22 22.1 3.22a52.908 52.908 0 0 0-3.48-10.29c-5.87-11.86-16.65-17.52-15.17-23.45 1.48-5.93 10-11.73 22.44 15.11-1.06.3-20.72-22.17-9-26.78 6.16-3.89 18.48 21.31 18.48 21.31s-12.59-19.68-4.89-23.07c7.7-3.39 15.52 25.56 15.52 25.56s-6.77-18.38.38-18.56c7.15-.18 9.52 24.56 14.67 39.17 5.15 14.61 23.06 51.31 23.06 51.31-10.45 9.24-21.11 15.15-32.26 14.57z" fill="#C69C6F"/><path d="M310.61 301.68l10.26 7.92 4.05 7.8 3.06 14.51 21.37-4.47L371 284l-44.75 2.41-15.64 15.27z" fill="#BDBCC5"/><path d="M116.32 318.85l7.48-5.43 18.36.02-6.78 13.89-10.25 5.83-.67-9.4-8.14-4.91z" fill="#fff"/><path d="M256.76 164.88l13.97 16.74-15.57 23.27 27.14-.82 43.5-25.72-46.69-21.63-22.35 8.16z" fill="#BDBCC5"/><path d="M341.4 192.22l25.23-15.48 64.67 4.69-40.36 55.83-29.36 2.81 4.59-28.15-24.77-19.7z" fill="#E05151"/><path d="M449.62 213.65l24.09-1.05-11.21 25.13-13.57.66.84-8.06-7.44-3.43 7.29-13.25z" fill="#fff"/><path d="M417.19 313.33c-16.55-33.5-24.39-22.24-24.39-22.24a7 7 0 0 0-.29 8.78c3.31 4.94 16.45 16.9 17.65 28.67 0 0-25.77-12.27-24.37 3.06.08.74 1.5 6.39 7.17 5.58 2.14-5.64-1.77-9.88-6.06-10" stroke="#242424" stroke-width="2" stroke-linecap="round" stroke-linejoin="round"/><path d="M424.69 308.83c-8.2-19.55-13.58-25.29-16.83-26.5-3.86-1.34-8.9 3-5.38 9.26" stroke="#242424" stroke-width="2" stroke-linecap="round" stroke-linejoin="round"/><path d="M433.87 306c-5.75-21.2-11.25-28.08-16-24.52-2.72 2.06-3.41 5.56-1.32 10.34M446.29 477c5.28-29.77-2.91-56.13-12.23-82.2 0 0 26.39-.11 40.64-20.07l28.23 55.69" stroke="#242424" stroke-width="2" stroke-linecap="round" stroke-linejoin="round"/><path d="M247.71 473s-.59-32.44 2.82-42.66c3.11-15.85 24.74-24.42 30.45-23.21 9.48 2 21 1.13 22.88-3.35a13.91 13.91 0 0 0 3.86-9.6c-2.55-23.9 23.1-19.12 14.84 2.51a48.816 48.816 0 0 1-3.23 9.64l23-4s-1.12 16.88-6.71 25.16c-3.76 5.47-48.12 14.29-49.75 21.27-4.9 10.43 5 35.89 5 35.89-14.5-.35-28.95-4.41-43.16-11.65z" fill="#fff"/><path d="M273.14 414.83s-.06-4.25 9.26-3.42c9.32.83 19.79-1.77 23.37-9.83M317.36 409.5c7.34-1.26 13.28 5.93 10.85 11.07M321.83 407.26c4.31-1.24 8.65 1 8.79 4.91M289.23 397.55l-4.82 8.52M311.14 384.5c-1.9 10.44 12.86 13.22 12 .26M299.17 379c5 2.26 12.43-1.95 12.62-6.78M300.51 368.77c.78 2.06 2 2.74 4.41 3.52M321.22 310.5l51.34-28.18-46.93 36.9M205.83 305.43c.08-8.23 6-16.41 6-16.41 2.8 4.16 8.25 2.41 14-4.33 0 0 3.59 1.63.47 6.2s-6.36 7.59-6.45 10.17M125.01 323.22l16.07-9.42M473.55 213.15l-24.4 17.59-6.82-3.84 7.29-13.25 23.93-.5zM265.14 175.09l60.66 3.26-61.86 12.66M356.54 203.79l74.76-22.36-66.51 42.07M153.56 281.13c6.26-3.43 11.6-.36 11.47 5M162.25 226.61c4.8 1.13 9.14-1.39 7.54-5.75M157.9 218.24c4.9 1.83 7.86.22 9.06-5" stroke="#242424" stroke-width="2" stroke-linecap="round" stroke-linejoin="round"/><path d="M318.77 111.41c5.18 9.26 25 .84 19.5-8.35-9.16 1.32-18.27 3.1-19.5 8.35zM387.45 147.85c4.65-7.1 9.78-11 15-12.42-1.98 9.89-7.66 15.09-15 12.42zM406.2 131.34s-.06-9.76 10.15-15.41c.13 8.17-2.99 13.53-10.15 15.41zM414.73 105.86s2.49-7.83 5.46-8.13c1.08 5.26-1.58 14.11-3.62 13.4-.73-.25-1.48-2.32-1.84-5.27zM384.6 142c-5.71-2.06-12.75 8.18-12.75 8.18 1.15 7.27 13.95-.64 12.75-8.18z" fill="#BDBCC5"/><path d="M244.34 172.9l-.31.28-.32.26a6.462 6.462 0 0 1-.71.47l-.38.21c-3.91 1.92-10.41.64-16.1-7.12-7.57-10.33-12.35-19.67-18.18-19.87 0 0 5.95 9.8 7.73 19.45.113.593.207 1.183.28 1.77 0 .3.07.59.09.89.098.86.141 1.725.13 2.59a14.6 14.6 0 0 1-1.31 6.29 10.079 10.079 0 0 1-1.43 2.22c-.23.28-.49.55-.76.81a9.519 9.519 0 0 1-.88.75l-.39.26-.39.22-.4.18-.37.12-.34.07h-.34c-3.09 0-5-5.4-6.5-12a.273.273 0 0 0 0-.07c-1.92-8.54-3.2-19-5.49-22.58a7.526 7.526 0 0 0-1.68-1.87 7.001 7.001 0 0 0-1.18-.76 12.003 12.003 0 0 0-3.63-1.08c-5.06-.81-12.45-.42-23.37-6.09a.304.304 0 0 0-.11-.07l-1-.52-1.15-.65c-1.64-.94-3.12-2.59-5.19-3.56-15.66-7.34-33.91-36.1-39.89-50.12-3.11-24.95 37.61-22.26 33.48-73.19 0 0 1 15.6 4.46 40.14C165.36 76.06 177 96.61 209.17 111a363.673 363.673 0 0 1 32.16 20.86l1.53 1.1.84.6 1.11.82c1.08.79 2.08 1.55 3 2.27l1.74 1.4c3.76 3.1 5.32 5.14 5.71 8.66 0 .25-.18.53-.27.79-.09.26 0 .63-.24 1-.14.18.69.17.5.36-.305.295-.64.556-1 .78l-.12.08c-.076.063-.16.117-.25.16l-.41.24a16.86 16.86 0 0 1-17-.77c-8.73-4.85-19.12-14-23.65-18.2l-2-1.91c1.94 2 15.32 15.47 24.91 26.77.79.92 1.56 1.84 2.28 2.73l.85 1 .12.15c1.42 1.76 2.68 3.41 3.71 4.9.35.5.68 1 1 1.45.193.293.37.577.53.85a15.79 15.79 0 0 1 1.15 2.26c0 .11.08.21.11.32.178.437.24.912.18 1.38a.706.706 0 0 1 0 .13l-.05.12a5.843 5.843 0 0 1-1.27 1.6z" fill="#C69C6F"/><path d="M209 173.6l-.18.56c-.35 1.06.4 6.76 1.14 8.61a4.828 4.828 0 0 0 3.15-1.63c3.67-3.52 4-9 3-14.57a38.231 38.231 0 0 0-7.11 7.03zM246.81 144.39a32.957 32.957 0 0 0 6.69 5.68c1.9-1.08 2.24-2.15 2.11-3.32-.39-3.52-2.29-5.64-6.06-8.73-2.18-1.8-4.9-3.84-8.22-6.18-.73 5.16 2.02 8.99 5.48 12.55zM245.52 171.29c.84-1.69-3.07-7.26-8.55-13.82v.46a7.62 7.62 0 0 1-2.3 4.74 25.666 25.666 0 0 0 2.79 7.33c1.61 1.48 3.41 2.78 5.17 4.13a6.276 6.276 0 0 0 2.89-2.84z" fill="#E05151"/><path d="M164.58 135s5.35 5.16 7.1 11.19c1.75 6.03-1.11 34.48 10.89 34.56 12 .08 2.87-28.45 10-38.5L164.58 135z" fill="#C69C6F"/><path d="M218.55 136.88c16.62 14.57 29.24 19.31 35.88 12.22-10.82.08-13.65-17.76-13.65-17.76 9.89 5.58 15.85 13.27 14 17.25M209.79 182.36c-5.18-.51-9.57-25.22-10.43-28.9-.86-3.68-4.22-8.66-4.22-8.66s-47.19 3.55-79.24-71.35" stroke="#242424" stroke-width="2" stroke-linecap="round" stroke-linejoin="round"/><path d="M141.26 434.81c-15.75-12.24-61.07-3.16-72.26-10.33-11.19-7.17-11.6-17.6-9.91-21 3.52-9.59 23.82-22.54 40.6-13.62 1.26 4.89-2.47-15.12 15.6-10.79 0 0 40.26-48.53 48.29-49.12 1.62-.12 4 .88 6.78 2.59 7.15 4.41 16.84 13.56 22.44 20.46 3 3.64 4.78 6.64 4.51 8-1 4.93-53.47 58.94-53.47 58.94.98-.15 11.64 10.97-2.58 14.87z" fill="#E05151"/><path d="M40.19 236.27s58.22 12.82 80.53-1.89c3.9-3.11 8-2.7 15.38-.18 7.38 2.52 24 2.23 24 2.23 3.2 6.25 13.68 6.47 15.38 2.11M169.37 221a71.994 71.994 0 0 1-25.46 14.56M247.25 472.42c.28-5-.52-26.55 1.63-36.67 3.84-16.09 12.78-23.2 23.06-27.42 12.73-5.23 22.67 4.71 33.86-6.84 1.94-2.6 2.46-7.17 2.22-11.64-1.84-13.95 14-16 15.89-2.08.27 4.55-2.09 11.78-4.58 18.28M342.45 403s-1.34 20.74-8 24.85c-6.66 4.11-44.2 14.14-47.85 19.4-6.4 8.59 4.06 37.15 4.06 37.15M339.53 389.16c-10.08-14.87-30.62-26.1-40.07-10.6" stroke="#242424" stroke-width="2" stroke-linecap="round" stroke-linejoin="round"/><path d="M130.67 232.3c11.13-4.71 23.45-11 31.66-18.52 4.93-3.86 12.27 1.9 7.17 7.22M153.83 7.58c2.51 57.55 12.06 71 29.86 86.72 14 12.41 34.31 21 57.18 37.12M168.45 137.72a46.678 46.678 0 0 1 3.48 9c.8 3.72 0 33.9 9.53 34.62 11.58.17 7.9-23.76 8.35-28.57a28.34 28.34 0 0 1 1.43-7.25M59.64 403.31c8.12-15.33 27.88-20.75 40.16-13.14 0 0 2.07-14.42 16.05-10.9 0 0 38.7-48.71 48.23-49 6.65.86 30.26 17.82 33.75 30.89l-53.48 59.1c6.67 5.43 5.47 12.22-2.56 14.85" stroke="#242424" stroke-width="2" stroke-linecap="round" stroke-linejoin="round"/><path d="M230.38 314.57c13 3.91 22.13 1.26 19.79-7.77-4.54 3.07-11.52-.6-11.33-6.12a65.414 65.414 0 0 0-43.48 10.51c-10.5 6.66-24.16 22.15-24.16 22.15" stroke="#242424" stroke-width="2" stroke-linecap="round" stroke-linejoin="round"/><path d="M203.28 312.87a39.99 39.99 0 0 1 32.39 4.5c-2.51 5.66-2.93 10.61.71 14.18-4.69 5.93-9.59-4.84-17.45-7.15-7.86-2.31-13.44-.28-16.59 3.11 20.7.11 19.78 11.65 14.42 14.34" stroke="#242424" stroke-width="2" stroke-linecap="round" stroke-linejoin="round"/><path d="M193.69 352.55c.93-4.8 2.5-6.81 6.13-10.55 6.56 2.43 11.92 1.49 16.95-.16-6.87-1.2-5.7-10.83 1.16-9.63M211.85 289c3.85-6.49 8.16-8.29 14-4.33M238.76 300.7c3.56-.1 10 3 11.38 5.95M216 167.14c-4.64 2.65-8.34 7.3-5.79 15.08 11.88-7.15 5.45-20.91-1.83-35.1 0 0 5 .53 13 12.74 13 19 20.9 14 20.9 14-10-4.1-5.73-16.79-5.73-16.79-4.63-7-17.48-19.82-30.41-32.74M170.47 220.68c7.38 1.63 7.53 6.69.21 15.28" stroke="#242424" stroke-width="2" stroke-linecap="round" stroke-linejoin="round"/><path d="M160.53 236.49s19.63-3.07 17 8.94c-2.63 12.01-31.71 6.37-31.71 6.37-6.73-.18-7.57 5.5-4.16 7.55s21.61 7.19 24.81 15.91c3.2 8.72-1.47 11.35-1.47 11.35l-11.6-5.44c-2.32-1.27-21.19-6-21.19-6-50.65-3.17-96.68 15.12-96.68 15.12M242.19 173.83c9-1.18-6.31-17.6-6.31-17.6M116.32 318.85l7.48-5.43 18.36.02-6.78 13.89-10.25 5.83-.36-9.86-8.45-4.45zM235.83 317.38c5 6.69 3.92 10.52.56 14.17M439.85 393.42c-11.19-28.7-22.43-57.3-46.9-56.24M430.5 294.75c.07-9.31 8.29-9.64 12.23 8.09.26 1.16 1.86 7.46 3.77 13.3 5.3 16.2 16.5 48.5 25.45 61.49M449.15 230.74l-.22 7.65 13.57-.66 11.05-24.58M380.51 104.68c13.07 17.1 5.06 46.51-2.95 47.8-8.01 1.29-8.21-9.79-6.16-24 2.05-14.21-5.52-21.48-5.52-21.48s-6.84 12-16.24 15.16c-9.4 3.16-26.39 0-30.15-9.16-3.76-9.16 20.17-10 25-11.51 4.83-1.51 6.9-9.5 6.9-9.5 1.69-7.94 1.2-27.71-3.74-41" stroke="#242424" stroke-width="2" stroke-linecap="round" stroke-linejoin="round"/><path d="M384 146.4c5 2.91 17.83 6.15 19.83-13.75 0 0 1.5-20.59-9-33" stroke="#242424" stroke-width="2" stroke-linecap="round" stroke-linejoin="round"/><path d="M403.81 131.86s8.71-1.73 11.5-8.91c2.79-7.18-.17-23.91-9-29.91M416.12 111.23c5.52-1.71 11-33.45-28.93-65.13M308.09 371.52c-4.69-6.7-14.35-4.7-13.06 6.68M295.44 371.73c-3-3.82-9.46 1.32-5.92 4.83" stroke="#242424" stroke-width="2" stroke-linecap="round" stroke-linejoin="round"/></svg>