<svg width="548" height="488" viewBox="0 0 548 488" fill="none" xmlns="http://www.w3.org/2000/svg"><path d="M124.07 394.22c-84-41.35 35.71-194.15 140.08-212.75 104.37-18.6 256.05 27.46 196.59 119.65-59.46 92.19-252.66 134.45-336.67 93.1z" fill="#BDBCC5"/><path d="M370.75 360.25L369.5 375l12-.05 104.5-.45M48 258.2c14.53 2.32 27.94-.83 56.78 1.24 41.68 3 93.44 4.36 141.28.22 21.4-1.85 63.24-.19 68 3.89M493.75 138.55c-25.31-10.84-58-9.08-58-9.08-48.55-.38-88 23.16-103.67 70 1.39.15 48 30.88 48 30.88l7 4.37 11.48-20.48M385.1 117.3c7.55-.23 10.79-5.46 10.74-14.51M412.83 68.12c11.63 1.64 9.23 18.62-2.4 17" stroke="#242424" stroke-width="2" stroke-linecap="round" stroke-linejoin="round"/><path d="M284.94 312.2l16.49 7.28v22.63l-17.12-12.93.63-16.98z" fill="#BA7171"/><path d="M284.94 312.2l21.56-4.84 15.85 8.89v20.58l-20.92 5.28v-22.63l-16.49-7.28z" fill="#BA7171"/><path d="M284.94 312.2l21.56-4.84 15.85 8.89-20.92 3.98-16.49-8.03z" fill="#fff"/><path d="M76.05 273.39v-29.95l20.36-5.28.98-18.69 21.78-4.78v-15.57l15.57-4.39v-14.77l11.02-4.92-.16-13.45 22.68-5.59 23.39 5.76.17 15.41 15.41 3.28-.17 17.05 17.5 5.21v13.18l20.38 5.55.33 17.38 23.61 4.62v22.76l-99.82 55.9-93.03-48.71z" fill="#BA7171"/><path d="M168.28 290.15l100.62-46.71-22.63-5.28-78.04 38.04-72.47-38.04-19.71 5.28 92.23 46.71z" fill="#242424"/><path d="M97.07 219.47l71.16 32.79 77.06-31.15-20.71-5.22-55.37 20.31-49.74-21.51-22.4 4.78zM224.58 202.71l-56.03 17.42-49.78-21.01 15.84-4.73 33.37 16.11 39.27-12.83 17.33 5.04zM134.74 179.96l32.67 14.43 40-13.78-15.08-3.77-24.35 7.91-22.54-9.59-10.7 4.8z" fill="#242424"/><path d="M145.76 161.76l21.92 6.22.3 14.07M189.05 162.58l-17.18 4.8M167.48 196.72l.1 9.89M148.72 188.93l.09 9.89M190.92 190.12v10.57M168.98 222.09l.1 11.31M143.95 213.15l.09 9.88M201.84 212.66l.09 9.88M122.31 234.53l-.3 9.88M168.3 255.78l-.25 16.23M143.25 244.63l-.09 16.3M192.73 247.23l.09 9.89M225.79 233.33l.1 9.88M117.67 262.61l-.3 32.72M141.62 279.37l-.21 25.46M168.08 297.17l.1 18.14M93.1 251.54l.63 31.71M253.73 252.44l.09 18.14M193.65 281.2l.26 22.47M226.17 261.16l.41 26.04" stroke="#242424" stroke-width="2" stroke-linecap="round" stroke-linejoin="round"/><path d="M257.42 319.82v19.67l17.05 10.49 18-10.94.37-17.34-17.71-10.41-17.71 8.53z" fill="#fff"/><path d="M257.42 319.82l17.71 10.49 18.2-8.86-18.2-10.16-17.71 8.53z" fill="#BA7171"/><path d="M257.96 320.35l17.17 9.96-.49 19.16M285.09 312.84l16.34 7.39.29 21.74" stroke="#242424" stroke-width="2" stroke-linecap="round" stroke-linejoin="round"/><path d="M100.4 280.97V265.8l8.39 2.79M98.81 272.19l6.78 1.59M152.46 254.89c0 .63-.46 6.55-.46 6.55l7.16 4.23M208.61 276.58c-8.78 3.59-7.19 14.37-1.6 13.58 5.59-.79 10.38-17.16 1.6-13.58zM152.43 169.13c-.55 1-1 6 1.1 6.19 2.1.19 3.24-4.79 3.18-4.09-.06.7.46 6 2.39 5.28 1.93-.72 1.73-7.06 1.73-7.06M307.28 325.89s.66 8.65 1.64 9.42c.98.77 8.13-.77 8-2.83-.13-2.06-1.86-9.39-1.86-9.39s-6.42-.87-5 4 1.62 6.43 2.94 5.08c1.32-1.35 1.58-5.3.67-5.63M262.83 319.32c.33-.33 9.59-5.45 12.3-5.41 2.71.04 12.09 5.62 11.81 7.54-.28 1.92-8.44 5.74-10.82 5.74-2.38 0-13.62-7.54-13.29-7.87z" stroke="#fff" stroke-width=".25" stroke-linecap="round" stroke-linejoin="round"/><path d="M266.93 319.39c.22-.22 6.51-3.7 8.35-3.67 1.84.03 8.21 3.81 8 5.12-.21 1.31-5.73 3.9-7.35 3.9-1.62 0-9.23-5.13-9-5.35z" stroke="#fff" stroke-width=".25" stroke-linecap="round" stroke-linejoin="round"/><path d="M269.88 319.8c.15-.15 4.37-2.48 5.61-2.47 1.24.01 5.51 2.56 5.38 3.44-.13.88-3.85 2.62-4.93 2.62-1.08 0-6.21-3.44-6.06-3.59z" stroke="#fff" stroke-width=".25" stroke-linecap="round" stroke-linejoin="round"/><path d="M75.56 184.32c3 3 12 2.4 15 19.17M224.34 172.13c2.61-4.19 6.89-11.62 10.88-10.34M126.17 146.19c3.33 1.69 5.9 4.07 7.09 7.65M177.61 135.76s3.71-7.13 7.3-7.07M401.24 133l-3.32-13.66c-12.27-1.24-16.64-8.77-20.57-16.66l-13.71 8.76 9-22.27c-1.47-5.16 0-12.16 2.71-20 13-31 68.77-32 77.07 5.91 2.74 12.52-2.8 39.67-2.8 39.67l2.86 14.8M172.9 50.3s5.78 4.73 1.23 10.09c-4.55 5.36-18.39-2.82-14.78-3.33 3.61-.51 8.9 14.3.67 14.57M80.85 82.06c3.67 10.11 25.66 1 21.64-3.28-4.02-4.28-8.73 19.83 8.35 22M270 201.9c2.36 5.36 27.46-3.6 21.68-6.76-5.78-3.16-12.88 15.25-3.37 19.82M382.5 435l.5-60M400.17 305.89A10.149 10.149 0 0 0 411 302.4" stroke="#242424" stroke-width="2" stroke-linecap="round" stroke-linejoin="round"/><path d="M342 206.17c-26.76 65.46-6 111.91 28.75 153.58l1-10.72c4.63-.29 45.19-36 40.27-45.86-4.92-9.86-13.39 4.72-16.14 6.69-2.75 1.97-11.55 5.46-11.55 5.46-34.52-44-7.19-86.64-7.19-86.64M375 300l5.14-69.63" stroke="#242424" stroke-width="2" stroke-linecap="round" stroke-linejoin="round"/></svg>