<svg width="1084" height="896" viewBox="0 0 1084 896" fill="none" xmlns="http://www.w3.org/2000/svg"><path d="M817.015 186.357c-11.671-4.368-8.882-22.21-9.42-37.61 27.205-14.716 10.349-44.744-16.867-30.016-6.104-23.81-85.937-30.643-74.155 36.02 4.178 23.654 27.395 33.118 27.395 33.118 5.141 4.155 5.466 13.384 3.775 24.73 0 0 60.144 21.201 69.272-26.242z" fill="#fff"/><path d="M741.303 137.356l-3.069 18.189 13.574-8.713M749.714 170.172s5.779 5.948 8.512 4.189c2.733-1.758 1.344-9.912 1.344-9.912M795.914 137.76s6.978-14.191 17.92-14.191M802.667 128.185s8.736-.482 10.338 3.001" stroke="#242424" stroke-width="2.24" stroke-linecap="round" stroke-linejoin="round"/><path d="M800.931 115.259c-2.721-20.16-44.643-42.291-75.04-12.992-6.72.37-5.992-12.32-12.476-11.312-6.485 1.008-7.034 26.723 10.595 27.384 31.237-16.8 55.126-22.613 65.721 2.733 2.565-5.32 11.2-5.813 11.2-5.813z" fill="#242424"/><path d="M744.495 198.083l1.892 15.926c-25.76-4.132-222.028.997-178.158 158.066L624.8 356.16s-4.771-58.128 13.776-56.09c14.975 1.647 106.759 15.927 107.363 1.255 0 0 26.88 190.982 35.538 181.966.19.862 206.842-52.326 206.651-53.189 0 0-37.643-263.099-165.984-231.84l-7.493-23.542-70.156 23.363z" fill="#BDBCC5"/><path d="M982.327 431.637s29.523 95.435 20.603 195.115c-8.911 99.68-145.92 38.998-149.874 42.84-3.953 3.841-73.763-187.779-73.763-187.779l203.034-50.176z" fill="#242424"/><path d="M1084 603.579V896H8.8V663.04c24.83-2.834 66.371-7.459 119.426-13.003 15.948-1.658 32.939-3.36 50.836-5.208l17.988-1.803 14.47-1.423c23.195-2.24 47.6-4.648 72.99-7.022l12.074-1.12 2.822-.258 13.765-1.265a13324.81 13324.81 0 0 1 44.8-4.021c11.999-1.053 24.133-2.106 36.4-3.159l3.08-.257 4.727-.403 9.284-.773c34.205-2.867 69.239-5.6 104.62-8.266a11276.56 11276.56 0 0 1 53.121-3.785l12.387-.829 33.768-2.24a6886.315 6886.315 0 0 1 56.784-3.36c24.92-1.389 49.65-2.632 74.021-3.707a6679.39 6679.39 0 0 1 56.482-2.24l9.296-.303c7.668-.239 15.284-.455 22.848-.649 33.6-.874 66.08-1.311 96.723-1.21h9.554c51.038.336 97.034 2.24 135.524 5.992 2.63.347 5.04.605 7.41.851z" fill="#242424"/><path d="M314.101 595.336l60.804-22.321s3.495 34.025 35.695 57.993c-30.162 13.44-42.493 31.08-50.4 50.579l-80.36-40.667 34.261-45.584z" fill="#fff"/><path d="M977.242 633.315S810.53 450.239 794.85 448.559c-9.61-45.528-168.773-104.16-206.584-55.72-75.41 7.471-234.943 245.896-234.943 245.896 2.363 271.948 626.282 266.527 623.919-5.42z" fill="#BDBCC5"/><path d="M306.53 724.718s28.336 34.72 33.398 44.419c5.063 9.699 16.655 19.343 9.643 39.1-7.011 19.756-1.982 27.025-1.982 27.025s24.259-12.69 33.219-13.664c8.96-.974 53.827-.929 72.464-8.613 18.637-7.683 35.65-14.56 59.987-22.31 24.338-7.75 48.071-4.099 48.071-4.099s-39.021-39.413-51.655-62.093c-12.633-22.68-16.923-35.683-23.755-53.603-6.832-17.92-9.206-13.743-9.206-13.743l-122.842 20.955-47.342 46.626z" fill="#BA7171"/><path d="M619.625 384.91c52.136 16.923 97.34 30.24 129.551 26.88l148.209 191.89" stroke="#242424" stroke-width="2.24" stroke-linecap="round" stroke-linejoin="round"/><path d="M530.72 554.747s28.134-72.274 123.121-63.482l47.679-2.666s122.875-4.233 118.496 97.071l-8.557.761-30.979 44.991 1.624 58.867-146.519 55.294-56.459-45.035-12.32-112.683-36.086-33.118zM1057.12 554.153v142.98c-3.18 1.12-6.36 2.351-9.51 3.539-19.34 7.302-38.08 14.862-53.019 20.563-17.831 6.787-30.453 10.954-32.805 8.96-7.459-6.418-19.925-67.558-19.925-67.558a3.022 3.022 0 0 1-1.344.94c-3.091 1.019-7.067-4.715-10.998-13.44-5.6-12.253-11.021-30.385-13.765-43.747-.594-2.878-1.053-5.6-1.366-7.84-.616-4.536-.65-7.84.1-9.072 0 0 79.52-1.646 116.302-21.649 4.48-2.722 9.6-5.511 14.88-8.165 3.85-1.904 7.74-3.797 11.45-5.511z" fill="#fff"/><path d="M925.218 644.493c7.963-6.093 110.512 25.267 110.752 35.717.25 10.449-36.317 87.875-40.808 93.968-4.492 6.093-116.548-21.907-118.015-30.688-1.467-8.781 40.107-92.893 48.071-98.997z" fill="#BA7171"/><path d="M132.247 600.118s19.432-8.512 25.032-15.153c5.6-6.642 32.972-27.564 34.484-34.956 1.512-7.392 11.996-61.6 15.96-68.174 0 0 29.938 33.018 41.508 41.821 11.569 8.803 47.118 35.997 61.062 39.849 13.944 3.853 33.6 9.24 36.019 6.72 2.419-2.52 5.847 8.076-6.989 20.575-12.835 12.499-50.803 35.28-44.688 58.867l1.042 13.07s-92.59-22.937-102.435-26.04c-9.845-3.102-14.863-10.382-27.183-15.075s-33.678-13.328-33.812-21.504z" fill="#fff"/><path d="M92.912 590.161c2.442 0 29.232-7.84 84.616-13.731l33.903 26.409s-17.618 66.562-45.092 82.6l-35.84.616c4.088-36.702-10.92-67.961-37.587-95.894zM627.925 769.989s54.23-17.864 67.525-31.528c13.294-13.664 88.569-61.242 107.52-63.93 18.95-2.688 52.001-.65 55.899 17.707 3.897 18.357 2.744 23.89-11.111 41.25-13.854 17.36-63.604 51.105-83.675 61.174-20.07 10.069-53.043 15.389-65.833 21.067-12.791 5.679-31.64 13.9-37.162 13.351-5.522-.549-19.678-7.728-19.678-7.728s8.848-26.488-13.485-51.363z" fill="#fff"/><path d="M725.063 709.263s-58.543 16.072-72.722 7.044c-14.179-9.027-89.141-28.94-109.155-18.872-20.015 10.069-27.877 21.213-30.767 34.72-2.889 13.508-7.067 22.176-2.094 28.247 4.973 6.07 37.542 17.315 40.656 22.187 3.114 4.872 185.92-3.562 185.92-3.562l41.731-88.256-53.569 18.492zM759.614 797.116s23.52-4.559 30.856-2.811c7.336 1.747 39.738 8.736 43.322 1.948 3.584-6.787-2.375-6.137-2.386-6.72-.011-.582 6.496-1.489 7.84-5.6 1.344-4.11-2.889-6.91-2.99-7.123 1.971.303 9.173-9.139 3.472-9.464 0 0 9.117-5.017 3.472-15.993-5.645-10.976-14.045-.773-14.045-.773-5.656 6.955-59.226 42.123-69.541 46.536z" fill="#fff"/><path d="M633.693 780.506s-16.957 3.685-24.954.101-13.608-12.096-35.571-6.91c-21.963 5.185-23.52 6.373-24.315 12.577-1.389 10.383 14.448 12.018 14.56 9.599 0 0-7.56 1.691-8.221 5.992-.661 4.3 3.45 6.339 8.96 7.493-7.84-2.24-11.581 10.08-3.741 12.32-.089-.952-2.441 2.239-.75 8.243 1.12 3.886 7.84 4.48 7.84 4.48s-6.351 4.872 1.12 8.96c7.47 4.088 22.4.582 33.421-6.933 11.02-7.515 57.288-13.194 54.768-19.298.974-8.612-18.828-39.849-23.117-36.624z" fill="#fff"/><path d="M686.735 608.843c-5.499-3.281-45.527-12.387-76.764 1.635l1.4 10.405h-.437c4.48 14.56 14.874 56.829 14.874 56.829 17.92 2.654 36.579 1.422 55.652-1.579l5.275-67.29z" fill="#BA7171"/><path d="M618.83 592.48s7.09-14.851 10.774-13.686c3.685 1.164 13.608 8.355 12.41 10.214-1.198 1.859-8.96 11.816-8.96 11.816l-14.224-8.344zM645.206 596.367L646.774 581s25.077-.437 22.725 5.13c-2.352 5.566-9.576 12.432-9.576 12.432l-14.717-2.195zM646.562 555.811c-.941-5.298 4.144-7.515 14.56-7 2.778.067 7.022 6.72 11.2 13.305 0 0-3.293 5.948-7.235 6.261-3.943.314-22.087-10.617-18.525-12.566z" fill="#BDBCC5"/><path d="M533.038 556.315s-26.152 37.33-14.112 69.698c12.04 32.368 25.189 40.253 47.948 47.219 22.758 6.967 56.918-3.214 55.619-9.329-1.299-6.116-2.8-7.84-2.8-7.84l7.291-6.844c2.509.672 9.99-9.262.392-12.32 3.17 1.468 13.328-12.152-3.808-10.998s-41.44-15.68-47.958-19.04c-6.519-3.36-3.932-19.645 3.136-27.126l-45.708-23.42z" fill="#fff"/><path d="M618.741 622.597c-24.293 3.483-22.926 35.694 10.293 29.243l-1.12 8.613s-34.877 0-34.597-19.04c.28-19.04 13.059-23.52 16.722-24.215 2.84-.391 5.716-.44 8.568-.145l.134 5.544z" fill="#BA7171"/><path d="M749.299 592.39s-7.649 24.024-11.278 27.754c-3.629 3.73-29.266 8.344-39.077 6.63-9.811-1.713-13.507-3.505-13.507-3.505a116.233 116.233 0 0 1-2.397 14.481s-17.539 3.54-13.16 11.469c4.379 7.93 8.635 5.41 8.635 5.41s-15.265 2.643-8.445 9.307c6.821 6.664 9.812 1.714 9.812 1.714s-13.44 2.004-9.05 10.539c13.776 20.72 82.208 2.24 109.939-15.49 27.732-17.729 34.575-73.438 31.495-74.625-3.08-1.188-62.967 6.316-62.967 6.316z" fill="#fff"/><path d="M566.493 491.444s28.593-25.592 16.105-25.916c-12.488-.325-1.624 18.547 13.776 8.31M403.096 618.598s-13.563 8.154-14.414 3.181c-.851-4.973 16.968-6.72 15.4 4.962-1.938 14.392-11.659 14.347-10.83 8.153.649-4.928 10.427-8.601 14.56 0M472.48 604.71s11.379-2.654 13.978 6.306M499.606 479.237l10.159-3.45M737.013 456.143s5.6-4.189 8.03-7.504M898.64 652.961c-.56 3.628-26.959.828-19.847-6.72 5.007-5.32 23.812 8.59 10.08 15.366-13.731 6.776-27.753 2.106-18.793-1.322 8.96-3.427 18.838 4.581 13.272 12.858M779.629 483.045s-12.634-12.734-13.44-2.979c-.807 9.755 18.67-3.898.817-7.84-17.853-3.942-11.816 11.614-11.816 11.614M521.872 654.763s-5.791-4.805-8.143.963c-2.352 5.768.314 17.987 2.688 13.866 2.375-4.122-5.947-13.81-10.774-9.632-4.827 4.177-9.52 15.68 1.994 21.28M830.88 552.082s.705-6.552 5.6-9.095M638.654 627.312l2.946-6.798 4.39 6.361M658.613 628.342l3.237-7.414 2.889 7.929" stroke="#242424" stroke-width="2.24" stroke-linecap="round" stroke-linejoin="round"/><path d="M650.546 652.942c1.688-.029 3.038-1.151 3.015-2.505-.024-1.355-1.412-2.429-3.1-2.4-1.688.029-3.038 1.151-3.015 2.505.024 1.355 1.411 2.429 3.1 2.4z" fill="#242424"/><path d="M642.16 635.488l3.114 3.013M656.272 640.058l3.92-3.136M620.118 595.839s10.674-2.329 9.509-16.116M661.525 548.8a77.437 77.437 0 0 0-8.87.157c-3.663.37-9.677 6.608-4.48 9.285 5.196 2.677 12.79-3.595 12.79-3.595M651.03 579.04s5.947 7.84 15.423 7.403c9.475-.437-5.914-5.723-8.053-5.992M674.674 654.752s7.089 2.946 12.824-1.758M673.957 666.736a12.59 12.59 0 0 0 12.522-1.456" stroke="#242424" stroke-width="2.24" stroke-linecap="round" stroke-linejoin="round"/><path d="M652.889 496.159l-.089-31.539 36.198-3.181 3.461 34.396c-15.434 7.772-24.618 8.052-39.57.324z" fill="#fff"/><path d="M701.385 456.871c0 10.226 3.82 20.384 12.119 16.968 3.998 7.291-4.48 11.122-8.087 4.234 0 0 1.714 4.48-1.31 6.72-3.024 2.24-4.626-1.546-4.782-5.231 1.12 5.13-4.212 8.243-7.908 7.526l-1.68-9.833c3.786-9.218 7.572-18.85 11.492-21.359l.156.975z" fill="#fff"/><path d="M746.958 582.333s70.123-2.442 71.232-9.408M537.228 545.373c.851 1.198 16.8 13.373 23.822 17.651 7.022 4.279 17.472 10.495 20.81 12.835M652.878 495.342c.067 8.277 39.626 7.975 39.57-.302M629.649 770.671s15.076-1.12 34.463-12.454c19.387-11.335 34.294-22.266 47.589-31.909 13.294-9.643 42.739-28.963 65.822-38.763 23.083-9.8 28.717-11.133 28.717-11.133M677.608 736.714c-1.22 0-23.52 6.955-36.635 4.312-13.115-2.644-44.99-30.722-65.856-34.037-20.866-3.315-25.11-13.059-39.648-4.637-14.538 8.422-15.68 11.726-15.68 11.726M688.64 716.486c-4.055 1.299-23.587 4.48-37.139-.997-13.552-5.477-57.356-16.609-68.365-16.408-11.01.202-26.533-1.176-26.533-1.176M152.798 601.641s18.48-16.676 28.135-24.214c9.654-7.538 16.8-17.472 19.925-27.339 3.124-9.867 9.408-22.255 9.408-22.255l1.052-33.6M348.944 573.687s-10.08 44.956-41.44 61.824" stroke="#242424" stroke-width="2.24" stroke-linecap="round" stroke-linejoin="round"/><path d="M186.399 555.699s-34.317 42.739-54.152 44.419c18.592 11.727 36.713 22.602 53.032 29.77M609.031 629.138s-2.621 2.24-2.24 4.121a14.351 14.351 0 0 0 1.87 4.122s-5.981 2.24-4.11 6.72c0 0 5.6 13.866 23.52 5.6" stroke="#242424" stroke-width="2.24" stroke-linecap="round" stroke-linejoin="round"/><path d="M614.261 638.5c3.985.416 8.009.292 11.961-.369 5.231-1.12 6.72-3.002 5.981-4.872M552.605 780.136c11.962 2.621 13.821 14.235 0 13.44M624.722 773.013S650 783.238 661.088 829.08M830.051 749.414c1.019 10.875 9.105 11.099 12.633 2.99M561.945 808.64s12.701-.75 13.082-1.87M832.975 770.168s8.075-2.789 8.108-3.897M559.325 821.722s12.7-.75 13.081-1.87M827.251 779.755c4.245-.369 7.515-1.231 8.96-3.001M825.011 789.499s7.47-1.501 8.221.75" stroke="#242424" stroke-width="2.24" stroke-linecap="round" stroke-linejoin="round"/><path d="M633.681 461.048s1.501 14.918-1.792 19.365c-6.171 8.344 3.36 4.726 4.693 1.601 0 0 .515 5.455 3.707 6.026 3.192.571 3.752-3.64 3.752-3.64s2.632 5.421 5.813 5.365c3.181-.056 3.304-5.309 3.304-5.309l-19.477-23.408zM633.76 452.177l-18.625-21.694 11.536-7.504s16.016-40.074 38.718-34.843c22.703 5.23 28.269 9.464 36.602 40.029l11.749 10.281-6.62 8.669-73.36 5.062z" fill="#fff"/><path d="M629.817 430.304s.068 53.984 32.48 57.255c32.413 3.27 43.143-28.594 33.063-53.626-5.701-6.854-15.68-3.55-26.455-3.629-18.95-.157-39.088 0-39.088 0z" fill="#fff"/><path d="M635.552 448c-11.02 1.523-8.96 16.218 2.016 14.694L635.552 448zM694.296 440.16c14.896-3.36 18.973 15.859 4.077 19.186l-4.077-19.186z" fill="#fff"/><path d="M665.12 472.909c5.97 1.657 9.341-.919 10.483-7.135M711.667 439.992s4.021-3.36 2.352-5.354c-1.668-1.993-8.545 1.378-15.68-.347-7.134-1.725-7.84-5.387-15.377-4.48-5.573.509-11.184.4-16.733-.325 0 0-13.048.639-17.92.101a82.903 82.903 0 0 0-15.915-.336c-4.883.493-10.999.806-14.482.246" stroke="#242424" stroke-width="2.24" stroke-linecap="round" stroke-linejoin="round"/><path d="M383.921 697.334s-45.584 48.496-4.737 25.962c40.846-22.534 112.481-51.229 76.966-22.546-35.515 28.684-98.862 62.16-55.653 49.863 43.21-12.298 78.143-55.328 51.52-28-26.622 27.328-31.964 68.32-2.363 43.03 29.602-25.289 11.839-62.16 16.576-32.099" stroke="#fff" stroke-width=".28" stroke-linecap="round" stroke-linejoin="round"/><path d="M163.058 683.838s-71.12-.716-69.373-1.254c12.006 34.149 16.027 79.766 6.395 87.427-6.91 5.499 77.28-10.337 77.28-10.337l-14.302-75.836z" fill="#BA7171"/><path d="M200.622 781.357c12.466 12.88 89.443 29.523 89.443 29.523l36.748-93.072 49.627-55.664s-15.523-1.366-36.96-13.272-143.64-49.045-143.64-49.045-32.704 88.973-35.123 90.597c-2.42 1.624-11.066 20.642-21.359 38.819-10.293 18.178-20.16 15.893-20.16 15.893l81.424 36.221z" fill="#fff"/><path d="M228.768 694.77c-4.223 8.736 10.08 17.819 16.408 5.443M203.814 619.125c.863 2.442 9.296 18.659 9.296 18.659M317.337 673.613l23.588-4.503" stroke="#242424" stroke-width="2.24" stroke-linecap="round" stroke-linejoin="round"/><path d="M702.27 428.031c-26.6-8.322-55.642-9.957-75.41-5.791l5.6-11.2a178.303 178.303 0 0 1 65.52 3.92l4.29 13.071z" fill="#fff"/><path d="M660.853 446.186l-5.388 10.852 9.912-1.758" stroke="#242424" stroke-width="2.24" stroke-linecap="round" stroke-linejoin="round"/><path d="M213.469 791.022c-79.005 10.797-140.38 57.053-119.84 69.138 20.541 12.085 48.865-162.4-61.309-149.598" stroke="#fff" stroke-width=".28" stroke-linecap="round" stroke-linejoin="round"/><path d="M578.88 579.04c-16.8 13.44 1.12 32.48 22.4 36.96M688.438 637.974s35.471 3.786 48.911-4.054c13.44-7.84 14.56-29.12 14.56-29.12M538.918 659.814s31.36 31.73 86.61 8.21M671.269 677.6c10.08 13.44 107.52 4.48 123.57-28.37M184.147 630.404l15.053-31.808c40.197 18.48 78.12 33.902 107.151 37.43M831.53 218.736s-29.064 22.333 20.272 137.357l-65.408 21.459M830.354 441.986c5.454-2.464 75.533 2.329 92.87-29.77 17.338-32.099-21.347-102.57-21.347-102.57" stroke="#242424" stroke-width="2.24" stroke-linecap="round" stroke-linejoin="round"/><path d="M788.678 382.1c-.324.56-4.2 1.836-8.96 4.076-7.179 3.36-16.441 8.848-19.196 17.304-4.592 14.124-.101 20.396 9.184 13.53 9.284-6.866-.191 4.76 4.278 11.29 4.469 6.529 14.168 4.76 14.034.56-.135-4.2-9.386 9.094-1.064 14.011 8.321 4.917 8.052.56 11.569-4.48.986-1.411-2.721 9.329 7.639 11.849 5.936.079 7.358-9.923 13.16-14.28 7.123-5.353 11.032-.168 11.032-.168 3.561-24.259-18.335-39.244-41.676-53.692z" fill="#fff"/><path d="M830.88 617.68c5.835-2.957 10.953-2.498 14.56 5.04-.65 1.691 7.683-5.41 7.84 2.8M442.923 558.678c-2.778-5.925-2.15-11.021 5.488-14.392 1.669.706-5.174-7.84 3.046-7.75M577.066 408.8S441.927 574.56 432.967 623.089" stroke="#242424" stroke-width="2.24" stroke-linecap="round" stroke-linejoin="round"/><path d="M624.856 353.058c-4.872-9.744-13.508-7.471-17.08 3.953-3.36-6.384-17.08-5.891-15.12 6.082-4.2-6.093-12.6-2.173-12.768 2.957-3.002-3.136-9.722-4.301-11.783 2.844-2.06 7.146 5.164 35.124 14.616 30.05 9.453-5.074 2.98-13.597 1.221-18.278 1.882 6.596 1.624 18.278 11.368 16.654 9.744-1.624 5.275-19.04 5.275-19.04s-.817 23.15 10.159 21.123c10.976-2.027 5.275-22.333 5.275-22.333s-4.066 16.24 8.12 14.616c12.185-1.624 5.745-18.121 5.745-18.121 2.24 2.049 8.21.369 10.831-1.871 2.621-2.24-1.31 7.325 1.714 9.431 4.827 3.36 10.236-7.751 10.236-7.751 6.205-19.555-10.595-15.736-19.969-16.049 0-.045-7.56-.325-7.84-4.267z" fill="#fff"/><path d="M781.466 410.48c-6.071.695-9.632 8.053-8.96 14.034M793.506 427.84s-12.88.56-9.52 12.6M592.477 370.115s8.523 28 13.81 28.84M610.755 368.48s.817 21.124 9.744 23.52M581.467 374.539s3.427 18.402 7.392 20.798M641.096 371.561c-.56 3.64-1.68 8.96 4.48 9.24M801.066 447.631s-5.601-7.09-.37-11.2l5.23-4.111" stroke="#242424" stroke-width="2.24" stroke-linecap="round" stroke-linejoin="round"/></svg>