<svg width="1084" height="896" viewBox="0 0 1084 896" fill="none" xmlns="http://www.w3.org/2000/svg"><g clip-path="url(#a)"><path d="M949.342 524.462c-18.883 34.283-28.526 72.128-6.988 125.44 2.74 6.802 6.014 13.87 9.822 21.202-10.214 63.56-171.573 168.549-363.608 223.72L584.346 896H154.669c-37.711-15.815-72.464-37.442-102.973-65.879a56.768 56.768 0 0 1-1.557-9.083c-2.072-24.64 15.434-38.909 36.154-61.465 13.115-14.258 27.507-31.82 39.065-57.333 33.925-54.533 89.735-117.824 152.567-158.603a328.796 328.796 0 0 1 31.36-18.1 571.302 571.302 0 0 1 69.07-29.12 646.168 646.168 0 0 1 18.2-6.036 695.124 695.124 0 0 1 38.853-11.01 459.131 459.131 0 0 1 7.437-1.837 748.7 748.7 0 0 1 40.432-8.601 775.964 775.964 0 0 1 34.832-5.6l4.838-.639c29.803-3.875 48.418-4.48 48.418-4.48l12.432-19.387 67.491-105.213 19.981-31.158.661-1.019s15.993-8.333 39.48-19.41a792.722 792.722 0 0 1 7.907-3.718l1.993-.93 4.828-2.24c21.649-9.811 47.286-20.899 72.083-29.859a572.867 572.867 0 0 1 14.493-5.051 488.036 488.036 0 0 1 12.577-3.988 326.54 326.54 0 0 1 10.976-3.091c17.573-4.625 33.074-7 44.229-5.6a880.471 880.471 0 0 1 26.701 3.719c35.425 5.6 54.129 11.368 74.099 18.681.84.322 1.659.696 2.453 1.12 12.846 6.451 21.141 24.741 25.921 39.335a165.365 165.365 0 0 1 5.23 20.081c1.02 3.509 1.93 6.959 2.73 10.349 16 66.942-7.28 110.634-33.836 150.539-11.906 17.842-24.472 34.967-34.452 53.088z" fill="#E05151"/><path d="M630.971 713.944s2.722-14.705 2.722-20.16c0-5.454-16.341-33.779-7.627-37.05 8.713-3.27 26.152 22.882 26.152 22.882s7.627-40.32 15.254-49.033c8.714 1.12 11.984 33.779 0 59.92 0 0 9.811-37.05 20.698-38.08 10.886-1.031-11.984 55.563-11.984 55.563s14.168-40.32 23.968-39.2c14.918.627-13.743 55.328-16.341 55.563 0 0 1.635-34.317 14.705-31.046 16.968 3.36-19.04 63.918-24.516 63.739l-43.031-43.098zM517.112 437.751s-37.049-33.779-44.665-38.08c-7.616-4.3-26.152-15.254-13.071-19.611 13.082-4.357 38.08 14.168 38.08 14.168s-14.168-18.525 1.12-22.881c15.288-4.357 20.698 9.811 20.698 9.811s-6.541-10.898 5.443-13.071c11.984-2.172 13.071 10.898 13.071 10.898s-2.184-8.714 6.54-9.811c8.725-1.098 7.628 10.897 7.628 10.897a10.937 10.937 0 0 1 10.897-2.184c6.541 2.184 11.984 50.12 11.984 50.12l-57.725 9.744z" fill="#fff"/><path d="M912.64 299.387s-3.27 26.152 4.357 44.665c7.627 18.514 34.866 59.92 37.05 68.645 2.184 8.725-2.184 27.238-29.423 39.2-10.897 6.541 3.271 30.509 25.055 14.706 21.784-15.804 35.952-37.588 32.681-46.301-3.27-8.714-40.32-96.97-32.681-104.597 0 0 23.968 32.682 37.049 31.595 13.082-1.086 44.662-41.44 44.662-49.033 0-7.594-6.54 37.049-1.12 41.44 5.42 4.39 9.82 4.356 15.26-1.12 5.44-5.477 7.63-61.018-5.44-64.288-13.08-3.271-50.17 33.801-50.17 33.801l-20.697-42.493-56.583 33.78z" fill="#242424"/><path d="M1084 511.179v154.269a314.869 314.869 0 0 1-38.45 30.699c-1.43.975-2.81 1.882-4.14 2.744-12.32 8.008-20.37 11.592-18.75 9.061 7.62-11.984-68.636-53.379-68.636-53.379a50.862 50.862 0 0 0 12.129-3.539c.482-.191.964-.392 1.456-.616 36.741-16.084 84.871-70.213 81.201-74.29-20.31-24.64-46.96-39.805-79.162-47.723-22.546-5.6-47.824-7.538-75.555-6.72 0 0-35.93 25.077-45.741 19.622-8.075-4.48 3.472-17.573 11.693-24.091a33.03 33.03 0 0 1 4.58-3.136c-1.657.582-37.049 12.846-39.2 4.334-2.184-8.713 23.968-15.254 23.968-15.254s-2.8.213-6.72.28c-8.68.123-22.758-.459-22.758-5.734 0-2.856 3.987-5.6 8.96-7.84l.146-.068c2.139-.963 4.48-1.848 6.72-2.643h.123c5.331-1.837 10.326-3.091 11.872-3.472-3.775.818-27.754 5.746-26.746-2.24 7.37-5.432 46.077-18.928 100.957-17.584 9.162.213 18.782.851 28.773 2.016a324.801 324.801 0 0 1 45.685 8.658A347.323 347.323 0 0 1 1084 511.179z" fill="#fff"/><path d="M632.64 568.5c-4.357 29.411-147.09 132.922-147.09 132.922a508.264 508.264 0 0 0 14.067 76.059c7.191 27.451 17.82 58.61 33.287 86.8l.145.258a228.447 228.447 0 0 0 20.564 31.46l-524.048-.56c-22.983-39.2-16.632-97.731-1.12-146.16 62.787 95.57 137.009 32.648 169.444 6.619 49.28-39.513 68.421-102.121 104.732-138.163 23.587-23.419 54.398-35.616 105.38-22.982 2.543.627 5.141 1.31 7.84 2.072 0 0 30.487 14.123 49.079 16.587 3.238.583 6.561.499 9.766-.246 14.157-4.357 80.64-61.018 80.64-61.018-5.846-15.109-12.488-32.301-19.04-50.579-4.48-12.555-9.027-25.626-13.216-38.864-2.811-8.96-5.488-17.92-7.941-26.88l-.078-.28 59.125-13.978.795-.19s3.573 6.72 8.96 17.483a1304.84 1304.84 0 0 1 12.13 24.763c17.438 36.848 39.188 87.058 36.579 104.877z" fill="#C69C6F"/><path d="M356.952 651.303c94.606-89.186 70.56 92.131 116.58 119.84 52.293 21.795 116.346-12.04 153.62-62.104l54.476 45.763c-67.547 177.598-317.284 121.195-355.185-38.08l30.509-65.419z" fill="#C69C6F"/><path d="M1084 807.61V896H587.504c8.378-9.654 24.17-24.069 52.73-39.872 44.408-24.561 132.238-104.025 154.784-124.701 3.45-3.158 5.376-4.95 5.376-4.95s22.075-1.422 41.899-12.992c9.655-5.6 18.783-13.686 24.562-25.144a253.316 253.316 0 0 1 4.771-3.069c29.814-18.883 56-29.557 82.04-39.939l1.445-.571 4.771 2.71 6.272 3.562 43.926 24.976 35.39 20.16 5.45 3.091-1.34 2.24-20.46 34.72L1084 807.61z" fill="#fff"/><path d="M792.8 728.661l-9.811-22.882s-62.104 17.427-68.645-82.802c-6.541-100.228 112.224-46.849 112.224-46.849s50.12 33.779 25.054 82.801l20.698 27.239c11.379 21.336-68.152 63.829-79.52 42.493z" fill="#fff"/><path d="M684.91 643.675s137.279-8.714 165.615-79.52l-23.968-7.627s-42.493-52.293-71.904-45.764c-29.412 6.53-56.661 31.596-51.207 62.104 5.455 30.509 3.271 29.423 3.271 29.423l-21.807 41.384z" fill="#fff"/><path d="M592.32 220.932c7.627 2.184 13.07-18.525 32.681-21.796 19.612-3.27 35.952 11.984 35.952 11.984l-21.806 20.72c8.658 35.695 5.443 66.898-6.541 94.786-7.515-11.267-15.333-20.16-23.968-22.882 5.746-21.403 7.627-63.19 7.627-63.19l-18.524 7.627-5.421-27.249z" fill="#242424"/><path d="M641.32 309.187l68.6-15.255 11.984 21.796c2.341-9.218 4.861-14.336 7.628-14.168-.527-4.671-11.984-33.78-11.984-33.78l-30.509-51.206-8.714-6.541s-7.627 15.255-13.07 10.898c-5.444-4.357-18.525-10.898-18.525-10.898l-18.525 34.866 2.195 43.59 10.92 20.698z" fill="#242424"/><path d="M631.52 295.02c-9.206-.258 20.037 49.739 38.08 50.12 4.357.089 92.613 22.881 100.24 37.049 7.627 14.168 21.84 46.85 27.283 49.012 5.444 2.161 10.898-28.325 4.357-41.44-6.541-13.116-6.541-22.882-11.984-29.423-5.443-6.541-8.881-12.32-43.579-25.099-8.96-3.304-28.336-14.123-28.336-14.123l-6.541-41.44-79.52 15.344z" fill="#242424"/><path d="M678.37 327.712s-51.206 98.056-45.73 103.488c5.477 5.432 7.628 6.541 7.628 6.541s-16.341 14.168-10.898 20.697c5.443 6.53 25.054 6.541 37.05 26.152 11.995 19.612 18.524 13.071 13.07-4.356-5.454-17.428-14.168-31.596-14.168-37.05 0-5.454 43.579-90.429 41.44-100.24-2.139-9.811-28.392-15.232-28.392-15.232zM629.336 201.32c13.586 9.621-58.833 33.779-70.817 28.325-11.984-5.454-25.021-19.824-26.152-25.054-.516-2.386-1.12-15.255-2.184-16.341-1.064-1.087-10.898 0-5.444 16.341 0 0-16.34-6.541-18.524-1.12-2.184 5.42 13.07 7.627 13.07 7.627s-18.525-1.12-17.427 4.357c1.097 5.476 19.611 0 19.611 0s-27.238 5.443-19.611 8.713c7.627 3.271 18.525-4.357 18.525-4.357s-18.514 12.029-13.071 13.149c5.443 1.12 17.427-7.627 18.525-6.541 1.098 1.087 18.928 17.696 26.152 21.796 13.104 7.425 57.635-1.927 50.12-7.628l27.227-39.267zM671.84 216.574c-3.36-11.032 37.05-19.611 39.2-10.897 1.12 0 14.168 50.12 14.168 50.12-.146 9.99-3.707 16.923-11.984 19.611l-41.384-58.834z" fill="#242424"/><path d="M708.878 187.163s-3.27-8.713-8.713-9.811c-5.444-1.098-5.444-6.541 2.184-4.357 7.627 2.184 7.627 3.271 7.627 3.271s-8.714-11.984-5.443-13.071c3.27-1.086 11.984 1.12 10.897 4.357-1.086 3.237-8.736-18.525-3.27-17.472 5.465 1.053 11.984 13.07 10.897 16.341-1.086 3.27 0-15.255 4.357-10.898 4.357 4.357 3.271 17.427-2.184 31.595-5.454 14.168 8.714 25.055 6.541 50.12-2.173 25.066-3.27 44.666-11.984 41.44-22.893-14.156-10.909-91.515-10.909-91.515zM647.043 207.043s7.359-2.453 7.359-6.809v-10.898l26.14 2.184v19.611c-2.688 22.098-36.198 18.01-33.499-4.088z" fill="#242424"/><path d="M658.759 196.963s-19.611-9.811-5.443-38.08c14.168-28.269 32.771 2.599 34.865 7.627 8.725 20.911-20.35 46.57-29.422 30.453z" fill="#242424"/><path d="M648.813 171.707s7.751-13.003 13.171-9.676c5.421 3.326 2.072 10.92 6.429 10.953 4.357.034 7.706-7.549 6.642-10.83-1.064-3.282 5.342 10.953 8.646 7.717 3.304-3.237 2.24-9.789 2.24-9.789s5.398 5.499 6.518 2.24c1.12-3.259-3.057-21.818-20.496-20.899-17.438.918-34.921 8.377-23.15 30.284zM816.343 95.637c7.181 0 13.003-6.73 13.003-15.03 0-8.302-5.822-15.03-13.003-15.03-7.182 0-13.004 6.728-13.004 15.03 0 8.3 5.822 15.03 13.004 15.03zM954.024 164.281c13.837 0 25.055-9.893 25.055-22.097 0-12.205-11.218-22.098-25.055-22.098s-25.054 9.893-25.054 22.098c0 12.204 11.217 22.097 25.054 22.097z" fill="#242424"/><path d="M826.087 72.072s8.131-12.185-4.872-14.627c-13.004-2.442-11.38-2.442-11.38-2.442s-6.496-20.283-12.185-7.313c-5.69 12.97 4.872 13.081 5.689 13.081 0 0-11.379 10.484-3.248 21.045 8.132 10.562 25.996-9.744 25.996-9.744zM809.107 88.01s0 14.168-2.184 16.341c-2.184 2.172-6.541 50.12-6.541 50.12s-41.944 41.944-41.944 43.041c3.596 6.799 22.557 10.181 35.415 1.635 10.752-7.156 22.881 4.357 22.881 4.357s10.192-12.835 16.341-3.27c6.149 9.565 23.195 14.493 28.325 7.627l-26.152-45.763s1.12-27.239-1.12-32.682c-2.24-5.443-9.811-26.152-10.898-27.238-1.086-1.087-3.27-11.984-3.27-11.984l-10.853-2.184z" fill="#242424"/><path d="M816.734 114.934c21.493-13.081 14.023-7.482 21.493-13.081 7.471-5.6 10.282-7.482 10.282-12.152 0-4.67-.93-35.516 2.8-40.186 3.729-4.67 10.281-11.2 8.411-5.6-1.87 5.6-2.8 3.74-1.87 3.74.929 0 18.188-9.295 7.907 0-10.282 9.297 3.27-3.27 4.357 0 1.086 3.271-8.479 7.012-6.788 6.474 7.258-2.318 11.749-2.833 9.476.952-2.8 4.67-10.282 3.741-10.282 8.411s-1.87 27.105-2.8 35.516c-.93 8.411-32.704 27.104-32.704 27.104l-10.282-11.178z" fill="#242424"/><path d="M819.266 105.448s34.776 46.413 46.368 47.813c1.445.179 4.077 1.501 4.312.101 1.915-11.626 3.797-12.152 5.6-.919 1.21 7.516 13.171-5.387 14.034-2.8 1.232 3.685-6.564 9.24-6.564 9.24s16.588-6.16 15.356-2.072c-1.232 4.088-12.455 6.295-12.455 6.295s6.115-1.187 8.579 1.265c2.464 2.453-25.043 21.124-54.017-9.822-28.975-30.946-27.015-35.045-27.015-35.045l5.802-14.056zM785.14 186.065l18.524 35.952-11.984 51.263s-21.795 17.427-16.34 17.427c5.454 0 10.348-3.808 10.348-3.808s10.349 20.16 22.333 19.04c11.984-1.12-9.811-19.611-7.627-27.238 2.184-7.628 26.152-41.44 26.152-45.764 0-4.323-10.898-41.44-10.898-41.44l-30.508-5.432z" fill="#242424"/><path d="M802.578 171.908l16.341 35.952-9.812 51.207s-16.307 10.852-10.886 10.852a11.778 11.778 0 0 0 8.714-4.356s4.356 27.238 16.34 26.152c11.984-1.087-7.627-19.612-5.443-27.239 2.184-7.627 26.152-41.44 26.152-45.763s-10.897-41.44-10.897-41.44l-30.509-5.365zM936.585 172.995s-26.152 3.271-33.779 8.714c-7.627 5.443-15.254 30.509 0 38.08 15.255 7.571 125.304-11.928 130.794-20.642 5.49-8.713-13.07-2.184-13.07-2.184s10.9-5.443 14.17-10.897c3.27-5.455-11.99 1.12-11.99 1.12s19.61-11.984-1.12-6.541-32.678 7.627-32.678 7.627-59.92 6.541-64.288 5.443l11.961-20.72z" fill="#242424"/><path d="M1084 190.132v41.16c-32.63 22.837-88.76 12.555-99.478-5.992 0 0-.773 18.928-1.03 40.241-.068 6.138-.101 12.466 0 18.592-1.58.146-3.204.336-4.85.583-18.155 2.565-40.533 10.539-66.573 23.173a2178.089 2178.089 0 0 1-9.195 4.569 199.21 199.21 0 0 1 3.259-32.681c3.271-17.439 4.357-27.239 3.271-37.05-.65-5.891-2.879-14.157-4.559-22.176a135.77 135.77 0 0 1-1.288-6.966 55.41 55.41 0 0 1-.683-7.896c0-10.898 20.698-30.509 20.698-30.509a45.352 45.352 0 0 0 7.011-1.288c3.046-.84 6.137-2.162 7.145-4.167.885-1.769 1.232-5.521 1.333-9.352v-.492c.112-5.432-.246-10.853-.246-10.853l14.381-.65 9.587-.437 1.041 14.56 1.12 15.904s6.653 4.66 16.285 10.618a298.611 298.611 0 0 0 32.671 17.83c10.81 4.861 21.17 8.188 28.39 7.504 11.26-1.03 27.81-12.678 41.71-24.225z" fill="#242424"/><path d="M725.219 656.746s-10.897 23.968-8.713 23.968c2.184 0 19.611-4.357 19.611-4.357l-10.898-19.611zM748.101 628.421s17.427 1.12 20.697 31.595c3.271 30.475-9.811 58.834-9.811 58.834 14.325 5.701 24.405 4.357 30.509-10.898 21.089 11.973 33.32-10.08 28.325-18.525 0 0 15.254 8.714 22.881-1.12 7.627-9.833-2.721-28.873-2.721-28.873s23.43 12.566 32.099 1.669c8.669-10.898-4.357-20.698-4.357-20.698 19.04 15.31 42.448-14.19 39.2-17.427-12.018 4.48-72.52-27.015-68.645-53.391l-88.177 58.834z" fill="#fff"/><path d="M754.63 641.491s13.071-16.341 25.055-4.357c11.984 11.984-10.349 31.047-10.349 31.047l-14.706-26.69z" fill="#fff"/><path d="M740.474 698.152c9.329-.471 13.44-6.989 14.168-17.427M720.493 678.25s4.782-2.89 6.899-1.926M850.514 564.144c-28.851 53.962-92.031 72.262-165.615 79.52M839.034 659.288c8.232 5.746 18.469 9.083 28.919 2.912M870.259 644.224c15.176.168 27.843-4.48 34.72-20.16M810.205 683.984c9.386 11.693 19.264 11.849 29.423 5.443M785.14 699.238c1.265 8.299 8.008 12.32 22.881 9.811M1065.15 567.403c-2.83 6.048-7.99 9.308-16.34 8.714 5.6 2.24 11.2 4.2 15.25 3.27" stroke="#242424" stroke-width="2.24" stroke-linecap="round" stroke-linejoin="round"/><path d="M404.899 602.269l24.517-59.36c-7.593 18.032-93.049-60.2 21.28-74.637 99.591-12.577 68.645 93.699 22.882 96.97l-9.811 54.477c-21.527 3.068-41.519-.863-58.868-17.45z" fill="#fff"/><path d="M339.525 569.588l52.293-39.2s-49.034-59.92 39.2-93.699c88.233-33.78 95.883 57.747 95.883 57.747l-14.101-7.65-74.088-9.811-16.027 11.794c-22.176-1.12-27.395 6.484-9.072 26.342a63.505 63.505 0 0 0 15.254 29.422l-16.341 38.08-73.001-13.025z" fill="#242424"/><path d="M394.002 530.365s-18.323 4.693-20.059 18.144l-25.76 23.251M391.392 542.192s-7.302 1.904-5.6 7.572c1.703 5.667-1.333 11.054-8.534 11.502-9.733.616-6.944 12.051-11.133 15.008M410.342 532.538s5.444 10.897 3.271 16.34c-2.173 5.444-9.811 4.357-8.714 26.152" stroke="#fff" stroke-width="2.24" stroke-linecap="round" stroke-linejoin="round"/><path d="M311.2 670.88c-24.181 29.96 72.274 277.614 302.523 168.157M452.835 528.181l31.595 17.427s-10.897 6.552-17.427 5.432c-6.53-1.12-7.627-8.714-7.627-8.714M482.258 512.926l2.172 8.725-7.627-2.184M792.408 735.19c45.035 18.525 96.241-8.713 83.529-52.293M951.84 644.762s42.493 12.712 59.92 33.051c17.43 20.339 39.2 23.968 39.2 23.968M751.729 632.8c30.352 22.31 24.999 52.774 7.269 86.072M706.694 602.269c40.096-1.714 80.069-15.288 119.84-45.764M705.238 582.4c36.277-2.464 72.442-14.806 108.45-40.779M365.677 637.134c18.222-4.48 83.328 144.547 140.549 140.549M454.65 383.04s13.07-.907 13.261 13.799M499.685 394.173s9.811 1.12 10.898 8.713c1.086 7.594 6.54 20.698 15.254 11.984 8.714-8.713-6.541-30.509-6.541-30.509M530.193 410.514c10.887 2.396 14.56-6.205 6.541-32.682M543.264 405.071s9.811 1.12 8.714-21.796M553.12 403.973c5.421 1.579 9.139-5.264 10.898-21.795M18.354 797.07c67.58 52.047 105.38 77.65 239.456-34.641M259.859 812c-20.339 38.17-38.259 58.822-71.534 71.501M298.197 896c-14.683-27.854-2.24-63.84-2.24-63.84M569.416 546.706c-1.266 7.47-7.347 7.056-14.168 5.443 4.782 5.667 10.326 7.347 16.341 6.541M825.459 515.11s11.984-16.341 38.08-14.168M820.733 496.228s4.726-9.442 33.051-12.712M845.787 539.078s-5.073-16.34 24.293-26.118M667.472 630.56s21.795 9.811-2.184 68.645M688.17 652.389s13.07 1.12-8.714 50.12M700.154 669.458c8.164-.37 2.184 24.337-8.714 36.321M629.885 657.294c2.105 7.84 1.265 13.81-4.357 16.89M851.6 400.714s39.2-22.882 34.866-30.509c-4.335-7.627-31.596 27.239-14.146 26.141 17.45-1.098 32.682-18.525 25.054-15.254-7.627 3.27-15.254 19.611-7.627 22.881 7.627 3.271 15.255-7.627 15.255-7.627M824.328 335.115c14.168 2.184 8.714 15.255 8.714 15.255M692.224 30.733s65.24 38.528 56.65 11.088c-8.591-27.44-84.146-9.542-59.64 22.982 24.505 32.525 60.816 19.836 38.427 6.53-22.389-13.306-57.12-16.14-43.389 11.312 13.731 27.451 42.627 30.139 32.973 19.331-9.655-10.808-38.685-1.613-39.592 3.159M919.965 31.36s-13.44 16.744 2.509 22.602c15.949 5.858 28.459 1.669 22.601-3.36-5.857-5.029-25.11 13.44-5.017 22.602M125.672 736.49c8.736-45.047 67.01-50.579 51.408-28.605-15.601 21.974-104.44-2.117-88.312-29.389s69.093-17.92 48.16-9.923c-20.933 7.997-62.182-4.659-77.94-26.32" stroke="#242424" stroke-width="2.24" stroke-linecap="round" stroke-linejoin="round"/><path d="M944.213 114.161c-14.168 3.27-19.612 11.984-19.612 11.984s7.628 23.968-2.184 29.422c-10.897 7.628 14.168 8.714 25.055 1.12 10.886-7.593 5.443-30.508 11.984-27.238 6.541 3.27 26.152 2.184 26.152-6.541 0-8.725-27.227-12.029-41.395-8.747zM977.992 140.314c0-1.12 6.54 6.541 6.54 6.541l-7.627 2.184 1.087-8.725zM826.545 76.025S832 82.566 832 83.653c0 1.086-5.443 0-5.443 0l-.012-7.628z" fill="#242424"/><path d="M720.941 424.894c50.568-7.033 165.278-2.676 105.347.672-59.931 3.349-177.968 24.797-104.888 18.424 73.08-6.372 109.099-1.344 109.099-1.344l-68.32 12.063s89.432-6.72 75.387-2.677M342.224 458.08c-112.571 38.864-76.798 240.33 98.896 180.835 0 0-307.205 3.965-114.677 162.602-73.169-79.677-196.257-15.434-123.088 64.243M973.03 63.84s53.76-34.417 52.07-20.832c-1.69 13.586-72.644 75.836-44.241 50.938 28.401-24.898 73.921-43.131 48.671-13.63-25.24 29.5-54.092 29.87-25.4 14.056 28.7-15.815 41.99-4.67 41.99-4.67l-6.72 9.866" stroke="#fff" stroke-width=".28" stroke-linecap="round" stroke-linejoin="round"/><path d="M1048.16 128.8s-4.48 13.44 3.36 14.56M799.15 896l-12.421-19.522" stroke="#242424" stroke-width="2.24" stroke-linecap="round" stroke-linejoin="round"/></g><defs><clipPath id="a"><path fill="#fff" d="M0 0h1084v896H0z"/></clipPath></defs></svg>