<svg width="1084" height="896" viewBox="0 0 1084 896" fill="none" xmlns="http://www.w3.org/2000/svg"><g clip-path="url(#a)"><path d="M1081.91 651.079l2.24 2.979.19-134.467V152.287l-42.49-12.477-.15-.034-81.505 62.396 121.715 448.907z" fill="#69B0CC"/><path d="M1084.52 654.08l-.2 241.92-727.816.19 3.024-22.467a.286.286 0 0 1 0-.101l.918-6.171v-.123l.549-3.114a.205.205 0 0 1 0-.078l1.12-6.72 12.925-73.797.134-.75 30.621-176.087.134-.784 1.064-6.081.124-.695 1.299-7.459.145-.818 1.232-7.078.079-.47.829-4.749.1-.605 4.245-24.416.179-1.019.168-.963.168-.975.236-1.332.168-.941 1.377-7.907.202-1.12.896-5.152.179-1.02 2.24-12.824.19-1.12 1.12-6.16.079-.436L500.48 62.664v-.224l.112-.65 359.128.65h11.648c14.627-.728 32.166-.806 50.937-.605l.46.829 1.702 6.317 10.875 40.23 22.479 83.216L1084.52 654.08z" fill="#242424"/><path d="M509.81 566.597l486.281-25.827" stroke="#69B0CC" stroke-width="2.24" stroke-linecap="round" stroke-linejoin="round"/><path d="M529.6 86.263l-43.333 342.966 158.604-12.309 118.955-9.217 100.766-7.818 105.728-8.187-79.363-310.666-361.357 5.23z" fill="#69B0CC"/><path d="M557.365 591.696l-1.266 1.12-1.456 1.277-50.4 44.116-1.747 1.524-.079.067-.145.134h-.056l-1.053.93-36.378-11.648-3.236 94.92v.56l-.258 7.694-7.034 53.939s-1.008 6.396-2.016 16.308c-2.172 21.1-5.017 65.15 4.312 93.027.025.098.055.196.09.291H237.201v-.291c1.86-73.506 19.69-128.24 21.74-135.072.089-.325.156-.538.179-.65 3.36-15.68 3.528-11.715 6.44-27.373a.6.6 0 0 1 0-.134c1.12-6.149 2.083-11.603 2.71-15.848.079-.526.157-1.12.224-1.557a.342.342 0 0 1 0-.101c.307-1.984.494-3.985.56-5.992.24-3.347.753-6.67 1.535-9.934 2.99-14.314 9.34-37.453 10.08-40.208l.067-.269-15.232 8.21a.106.106 0 0 0 0-.056l-1.602-3.931-23.789-58.666-1.12-2.722-.336-.817s32.716-21.728 79.263-38.125h.134a400.532 400.532 0 0 1 12.69-4.222 350.037 350.037 0 0 1 21.033-5.892l.538-.134a283.04 283.04 0 0 1 44.856-7.336 214.961 214.961 0 0 1 46.536 1.12C544.473 560 557.365 591.696 557.365 591.696z" fill="#fff"/><path d="M334.72 557.301s-139.843 38.304-146.093 90.72 76.485 123.95 81.245 117.253l10.752-52.562-25.592-34.989c8.478-11.065 17.92-17.304 28.123-20.328l51.565-100.094zM550.331 589.747c32.222 10.08 21.482 109.435 12.499 133.28-8.982 23.845-58.923 72.8-79.296 76.608-48.44 8.96-44.139-4.301-44.139-4.301s3.517 2.341 10.55-9.385c7.034-11.727-4.692-15.244-4.692-15.244s2.34 2.341 3.516-8.209a36.075 36.075 0 0 1 7.034-17.584s-35.157 3.517-31.64-16.419c3.517-19.936 8.198-11.727 14.067-7.034 5.869 4.693 17.573 8.21 18.749 3.517 18.962-.291 40.813-11.2 47.656-25.01 12.443-25.166-.717-60.76-1.12-64.881l46.816-45.338z" fill="#fff"/><path d="M442.878 522.324l6.855-40.13L516.72 88.48M646.102 894.387l-.291-116.905-.291-113.647-.269-104.429-.235-89.633-.078-31.114M763.893 429.879l3.024 30.968 8.904 91.627 10.125 103.925 11.2 115.069 11.961 122.92M1072.32 693.37l-81.571-307.586-83.933-303.24M959.042 894.387c-4.301-21.414-14.012-69.72-25.76-128.341a342849.13 342849.13 0 0 1-43.983-219.609c-7.022-35.18-13.44-67.346-18.558-93.184-2.307-11.66-4.357-22.042-6.082-30.834M622.717 664.933c4.48 0 207.928-10.931 207.928-10.931M603.71 779.173l374.495-14.907M470.901 484.154l520.722-39.726" stroke="#69B0CC" stroke-width="2.24" stroke-linecap="round" stroke-linejoin="round"/><path d="M1039.85 137.334l.32 2.475 4.14 32.279 4.19 32.67 5.95 46.402 6.11 47.611 7.08 55.182v.011l5.57 43.546 6.84 53.256 2.61 24.259" stroke="#242424" stroke-width="2.24" stroke-linecap="round" stroke-linejoin="round"/><path d="M980.03 210.728l59.29-37.128 34.33 5.891M989.92 241.427l59.29-37.128 34.33 5.902M995.117 288.265l9.573-5.992 22.58-14.134 27.14-16.991.04.012 28.21 4.838M1011.76 171.685l48.89 303.945M987.837 196.672l28.093 142.598M1007.6 326.771l5.29-2.856h.01l21.48-11.592.02-.011 25.22-13.642.94.101 22.1 2.139M1025.29 370.495l17.36-6.776 24.99-9.755v-.011l.3-.112 14.72-1.534M1035.69 410.043l13.66-4.681 22.76-7.807 1.1-.044 9.45-.426M1044.02 463.132l13.85-4.76h.01l22.17-7.605.38-.123 2.23-.101M1082.66 519.59l-22 8.075M453.059 748.82s-13.44 7.616-3.516 19.936c0 0-10.551 3.517-1.12 14.067 0 0-11.716 10.551 2.34 17.976" stroke="#242424" stroke-width="2.24" stroke-linecap="round" stroke-linejoin="round"/><path d="M464.786 723.81c-4.693 1.12-16.991-.784-26.948-6.641-9.956-5.858-22.265-11.727-20.507 0 1.759 11.726 18.189 28.75 34.563 32.827M497.59 644.459s7.426-7.034 12.892-12.902c5.465-5.869 6.249-19.936 17.192-23.453 10.942-3.517 10.158-5.858 20.316-10.551 10.159-4.692 12.892-8.209 12.892-8.209M236.664 598.349s11.323 12.51 12.891 24.64c1.568 12.129 7.426 14.067 9.767 22.668 2.34 8.602 6.249 21.101 6.249 21.101" stroke="#242424" stroke-width="2.24" stroke-linecap="round" stroke-linejoin="round"/><path d="M394.08 500.73c.851-1.02 14.403-3.517 14.403-3.517l-5.275 13.877c-5.354 8.008-14.482-2.341-9.128-10.36zM300.09 538.966s89.196-47.286 98.47-55.003c9.274-7.717 9.027-11.323 9.027-11.323s-20.294 4.278-26.107 2.24c-5.813-2.038-25.2-28-51.778-11.088-31.572 17.114-16.8 34.328-18.816 47.835-2.016 13.507-10.796 27.339-10.796 27.339z" fill="#fff"/><path d="M313.44 526.915c0 1.12 2.733 26.578-18.749 31.663 3.259 7.605 24.64 3.125 22.658-8.96.761-1.187-.784 9.766 7.033 7.425 7.818-2.34 10.943-15.68 10.943-15.68s6.249 10.159 11.715 7.034c5.466-3.125 3.909-11.726 3.909-11.726s17.92 5.084 22.265.784c4.346-4.301-6.641-12.119-5.465-10.943 1.176 1.176 26.723 4.671 31.248 0 1.209-1.243-14.448-5.085-11.323-14.851 3.124-9.766-5.914-17.965-5.914-17.965l-68.32 33.219z" fill="#fff"/><path d="M330.307 535.909c-1.691 12.04-.986 24.439 5.6 35.762l54.779-10.461s27.855-57.747.381-73.774-60.76 48.473-60.76 48.473z" fill="#fff"/><path d="M330.61 558.286c22.848 7.258 44.62 1.613 65.62-13.193M312.018 509.398s39.502-10.214 67.614-34.664M309.789 497.784s36.96-9.453 60.827-30.688M367.513 531.899c-.179 15.96-7.649 16.14-18.457 9.084-3.995 10.453-9.755 12.506-17.282 6.16.291.884-1.467 10.55-10.841 10.55M314.202 531.608s24.315-9.386 38.964-18.76c14.65-9.375 37.789-22.568 41.597-24.92M371.624 507.864c-12.499-.381-12.499 16.621 0 17.001M252.086 792.199s40.444-21.101 59.192-23.442c18.749-2.34 55.082-7.033 75.04-4.692 19.959 2.34 62.104 16.419 62.104 16.419M305.275 894.208a63.054 63.054 0 0 1-3.785-31.92v-.145c.168-1.199.347-2.363.571-3.506a.222.222 0 0 1 0-.089 71.386 71.386 0 0 1 9.206-24.148" stroke="#242424" stroke-width="2.24" stroke-linecap="round" stroke-linejoin="round"/><path d="M986.482 66.27c9.632.717 72.658-10.08 43.358-5.745-29.3 4.334-81.091 20.16-48.163 17.92 32.923-2.24 80.643-9.341 46.573-2.879-34.074 6.463-43.762 10.775-43.762 10.775l32.912 1.433-24.904 4.357 15.254 4.312-8.87 13.642-2.005 2.15M63.501 828.565c74.054-23.431 146.306-103.567 86.699-53.671-59.606 49.896 39.738 86.935 39.738 86.935" stroke="#fff" stroke-width=".28" stroke-linecap="round" stroke-linejoin="round"/><path d="M396.32 525.28s5.376 8.68 6.059 3.976c.683-4.704-6.059-3.976-6.059-3.976z" stroke="#242424" stroke-width="2.24" stroke-linecap="round" stroke-linejoin="round"/><path d="M571.32 110.298l-34.966 276.774 128.004-9.934 95.996-7.437 81.312-6.306 85.321-6.619-64.041-250.701-291.626 4.223z" fill="#FFB3B3"/><path d="M652.296 161.022c-4.48 2.811 10.192 27.888 22.4 30.576 4.48 1.445 7.157 8.042 7.157 6.843 0 0-18.368 10.248-6.138 11.2 12.231.952 26.5-4.48 20.384-8.097l-6.115-3.595s9.173-3.596 8.154-8.96c-1.019-5.365-5.096-17.092-13.25-25.189-8.153-8.098-11.189-16.274-32.592-2.778z" fill="#fff"/><path d="M863.36 105.985l3.08 13.44-113.232 32.324-21.067 5.992-8.848 2.531-31.08 8.848-3.091.873-3.696 1.053-.347.101-22.042 6.283-10.315 2.89-93.935 28.929 1.96-16.172 91.952-25.424 4.346-1.277 4.413-1.288 18.558-5.432.639-.191 2.24-.672 1.556-.459 31.36-9.184 14.93-4.368 13.037-3.819 119.582-34.978z" fill="#242424"/><path d="M729.778 227.942c2.609 1.658 4.916-.212 4.916-1.467 0-1.254 1.288-2.441 2.364-2.016 1.075.426 2.553 5.051 2.24 7.672-.314 2.621-2.632 4.648-1.848 6.171.784 1.524 5.04 1.479 5.04-.851a9.858 9.858 0 0 0-1.21-4.379s-1.859-5.6-1.12-8.613c.739-3.013 5.186-7.134 6.832-5.387a3.73 3.73 0 0 1 1.12 3.069c-.134 1.019-.806 2.072-.806 3.08 0 2.094 1.041 4.054 2.844 3.001 1.804-1.052-1.668-3.024-1.321-4.48.347-1.456 1.781-2.172 2.957-7.302 1.176-5.13-9.039-19.936-9.039-19.936s-21.101 14.246-16.8 20.586c4.301 6.339 1.221 9.15 3.831 10.852z" fill="#fff"/><path d="M678.795 142.127s-8.153 6.295-18.345 5.399c-10.192-.896-11.2 13.44-9.173 17.091 2.027 3.651 15.366-15.68 22.4-9.89 7.291 6.026 5.969 16.453 14.269 26.085 9.105 10.573 18.345.896 21.403 12.589 3.057 11.693 18.345 25.189 30.576 16.195 12.23-8.993 6.115-12.589 7.134-28.784 1.019-16.195 20.384-36.881-8.153-43.176-28.538-6.294-60.111 4.491-60.111 4.491zM733.261 263.066c-2.946-.403-8.714 32.055 7.661 29.557 9.195-1.4 9.441-11.502 3.931-14.034-5.511-2.531-11.592-15.523-11.592-15.523z" fill="#fff"/><path d="M675.2 150.674c8.658 3.147 9.677 26.533 18.85 30.128 9.172 3.595 14.268-3.595 17.83 4.48 2.419 5.499 6.966 15.557 12.981 20.462" stroke="#242424" stroke-width="2.24" stroke-linecap="round" stroke-linejoin="round"/><path d="M656.877 166.881s-2.039-17.988 15.288-11.693c8.657 3.147 9.676 26.533 18.849 30.128 9.173 3.595 14.269-3.595 17.831 4.48 3.561 8.075 11.715 26.085 22.4 22.937M695.472 149.262l2.386 7.84 5.342-17.673s18.346 10.797 19.365 20.686c1.019 9.89 8.154 23.386 8.154 23.386l2.038-16.195M717.525 175.414l13.25 7.19" stroke="#242424" stroke-width="2.24" stroke-linecap="round" stroke-linejoin="round"/><path d="M752.659 243.611c.179 4.962 6.956 15.423 3.058 20.698-3.898 5.275-10.73 2.912-9.934-1.837.795-4.749 7.817-13.955 6.876-18.861z" fill="#fff"/><path d="M738.514 280.09l.537 2.173M741.011 288.288l.482 1.77M740.731 282.431s-3.035-.941-3.584.806c-.548 1.747 11.122 2.576 1.568 6.149M751.584 255.685l-.146 1.657M751.438 262.058l-.089 1.344M752.894 257.858s-2.464-1.378-3.472-.28c-1.008 1.097 9.274 4.48-.392 4.693M731.424 286.619c-.482-5.925 5.914-9.397 8.109-9.666" stroke="#242424" stroke-width="2.24" stroke-linecap="round" stroke-linejoin="round"/><path d="M620.88 363.642c-14.56-3.662-.997-14.269 13.843-10.696 0 0-3.36-10.024 10.08-9.699 0 0 9.845-13.922 15.803-9.923 0 0 4.357-8.636 9.229-7.135 0 0-4.592-15.053 8.96-13.048 10.08 3.293 8.96-11.121 20.003-7.414 0 0 19.04-16.968 35.202-.672-.28-1.983 15.68-5.712 16.565 5.275 0-2.24 18.603-5.029 20.003 5.275.246-2.128 29.613-2.24 39.312 11.01 0 0 23.184 3.36 20.776 12.723-2.408 9.363-32.278 6.339-23.419 11.077 8.859 4.737-63.101 17.158-154.213 14.705-10.181-.336-17.584 2.184-32.144-1.478z" fill="#fff"/><path d="M711.04 290.304c-5.41 6.72 16.621 15.848 18.267 10.495 1.646-5.354-12.902-17.271-18.267-10.495z" fill="#fff"/><path d="M732.04 311.539c-8.277-7.493-16.71 9.834-8.96 13.171 9.061 3.954 14.616-8.052 8.96-13.171zM777.646 346.148c6.653 3.909 15.389-6.866 9.744-11.581-5.644-4.715-16.397 7.672-9.744 11.581zM701.509 357.425c7.694-3.36 1.389-16.094-6.586-13.91-7.974 2.184-1.109 17.315 6.586 13.91z" fill="#69B0CC"/><path d="M779.013 348.521c6.373-4.256-2.296-15.086-9.195-11.928-6.9 3.159 2.822 16.207 9.195 11.928zM633.166 348.085c-1.12 6.484 14.986 13.44 18.604 6.44 3.617-7-13.474-20.53-18.604-6.44z" fill="#69B0CC"/><path d="M709.528 348.051s-1.176-8.892 5.242-10.651c6.417-1.758 9.923 5.992 9.923 5.992M717.2 336.997c3.898-8.713 16.318-4.379 12.421 4.335" stroke="#242424" stroke-width="2.24" stroke-linecap="round" stroke-linejoin="round"/><path d="M686.4 318.079c-7.134 4.088 4.547 19.634 10.562 13.115 6.014-6.518-3.461-17.169-10.562-13.115z" fill="#69B0CC"/><path d="M751.114 349.227s12.454-11.312 22.512-.459c3.785 4.077 10.08-7.291 13.44-.527M664.571 335.776c4.559-4.48 8.311-4.782 11.2-.403-.403-6.507 2.711-9.274 10.685-6.855-4.581-6.26-4.021-10.371 3.651-11.513" stroke="#242424" stroke-width="2.24" stroke-linecap="round" stroke-linejoin="round"/><path d="M711.634 293.44c-8.68-.93-21.415 12.69-12.32 12.757 9.094.067 20.988-11.816 12.32-12.757z" fill="#fff"/><path d="M638.61 346.192l1.926 1.725M646.293 352.475l1.601 1.377M642.194 347.2s-3.36.683-2.778 2.576c.582 1.893 11.928-3.304 5.477 4.872M729.318 313.018l-.896 1.96M726.384 320.689l-.683 1.613M730.002 316.121s-2.453-2.543-4.178-1.568c-1.725.974 9.565 8.668-2.509 5.6M673.184 315.729l1.322 1.904M678.583 322.795l1.108 1.534M676.141 317.318s-3.192 0-3.069 1.781c.123 1.781 11.391-.694 3.752 5.387M771.296 338.184l1.12 1.624M775.899 344.21l.941 1.31M773.76 339.539s-2.722 0-2.61 1.512c.112 1.512 9.711-.594 3.204 4.592M698.339 305.603c4.413 1.949 14.807-3.528 13.922-9.217M711.891 289.206c-4.48 2.083 5.018 18.637 16.464 12.678M713.683 291.457s2.509 6.888 8.355 8.77M633.928 351.422c4.67 7.145 14.493 8.602 18.514 2.654M749.949 313.309s5.891 9.072 18.413 3.796M801.491 334.14s9.834-7.716 12.858 1.468c0 0 6.877-3.092 8.366 1.12" stroke="#242424" stroke-width="2.24" stroke-linecap="round" stroke-linejoin="round"/><path d="M594.079 251.72c4.48 2.823 69.832 1.412 51.777-5.185-18.054-6.597-66.427 10.371-40.197 19.79 26.231 9.419 55.183 10.371 35.762 2.352s-60.301 1.893-41.261 13.205 49.056 13.664 34.72 6.597c-14.336-7.067-34.406-1.411-35.761 1.411" stroke="#fff" stroke-width=".28" stroke-linecap="round" stroke-linejoin="round"/><path d="M734.784 195.16c-6.171 1.647-2.352 11.2 3.248 7.84 2.24-1.344.314-4.334-2.363-3.584a2.927 2.927 0 0 0-1.983 3.584M739.6 148.176s3.92-4.346 5.891-.56c1.3 2.486-3.427 3.237-3.427 3.237s4.155-2.419 5.499.504c1.445 3.662-4.917 3.685-4.961 3.36M703.973 151.659l-6.127 5.399" stroke="#242424" stroke-width="2.24" stroke-linecap="round" stroke-linejoin="round"/><path d="M726.216 245.471s-1.635 5.723-2.722 6.72c-1.624 1.534.695 4.267 2.879 3.225 2.184-1.041.918-2.71.201-4.065-.716-1.355-.358-5.88-.358-5.88z" fill="#fff"/><path d="M965.571 557.625c-13.865 28.818-39.749 83.082-15.019 82.23 24.73-.851 60.548-65.273 38.08-51.71-22.467 13.563-56.571 88.155-31.192 89.858 25.379 1.702 56.85-32.212 41.832-33.914C984.253 642.387 972 711.905 972 711.905" stroke="#fff" stroke-width=".28" stroke-linecap="round" stroke-linejoin="round"/></g><defs><clipPath id="a"><path fill="#fff" d="M0 0h1084v896H0z"/></clipPath></defs></svg>