<svg width="1084" height="896" viewBox="0 0 1084 896" fill="none" xmlns="http://www.w3.org/2000/svg"><g clip-path="url(#a)"><path d="M1084.49 84v494.872l-40.8.224h-1.93l-23.75.123-43.68.235h-6.239l-17.046.09h-3.058l-2.24-2.072-1.545-1.434-21.896-.481-4.559-.101h-.067l-7.627-.168-16.229-.358h-1.893l-13.709-.303-59.897-1.321-41.44-.919-69.81-1.534v-64.064s2.24-241.707 5.735-262.08c2.486-14.695 6.72-38.439 8.512-57.479.691-6.377.915-12.797.672-19.208-.93-14.952 1.12-64.96 1.982-83.384v-.65L1084.49 84z" fill="#FFCB48"/><path d="M1006.13 356.351l15.68 213.124c-19.26 13.676-28.877 14.045-52.05 9.565-2.24 1.602-10.797-163.005-7.381-172.379 2.542-6.989-10.024 173.488-10.024 173.488-27.126 5.41-43.938 2.061-66.214-12.533l24.931-209.63 95.058-1.635zM981.733 192.64c-.269 8.859-.795 14.862 3.875 20.16l-3.931-.795-2.072 4.289-2.352-2.352-3.472 3.898c-2.878-1.243-4.189-6.104-5.656-10.606 5.331-17.898 11.032-40.13 13.608-14.594z" fill="#242424"/><path d="M980.288 192.64s12.163-13.216 11.726-14.56c-.437-1.344-7.347-4.872-7.347-4.872s-10.326-26.488-24.707-22.781c-14.381 3.707-17.92 6.563-23.061 26.97 0 0-9.61 3.707-8.859 4.984.75 1.276 8.523 9.105 8.523 9.105l43.725 1.154zM977.97 565.891c-.773 3.45-11.335 21.717 1.254 33.286 22.026 20.239 82.626-41.07 62.716-59.292-24.14-14.157-42.254 7.112-26.88 16.161 5.53 3.226-37.09 9.845-37.09 9.845z" fill="#242424"/><path d="M982.08 176.086s2.565 35.762-18.177 39.783c-20.743 4.021-32.223-16.509-26.981-33.667 3.36-4.861 13.025-3.215 19.981-3.898 12.174-1.165 25.177-2.218 25.177-2.218zM1036.51 259.224s-16.06-37.935-66.56-38.875l-23.71.291s-52.864 11.021-65.072 54.141l28.93 15.22.089 73.26s86.24 25.961 91.413 26.241c5.96 3.114 5.67-100.285 5.21-102.099 7.2 7.526 36.87-20.63 29.7-28.179z" fill="#242424"/><path d="M970.623 221.01l-1.468-20.899-23.038-.056-17.293 22.556c10.147 4.279 32.715 4.357 41.799-1.601z" fill="#242424"/><path d="M981.15 183.557s.482 23.24 2.822 26.118c4.38 5.387-1.68 3.606-2.721 1.501 0 0 .101 3.886-1.792 4.547-1.893.661-2.554-2.24-2.554-2.24s-1.187 4.032-3.113 4.245c-3.204.246-4.48-6.877-4.48-6.877" stroke="#242424" stroke-width="2.24" stroke-linecap="round" stroke-linejoin="round"/><path d="M1008.69 290.27c5.6 18.279 14.89 48.899 15.98 73.439 0 0 4.76 17.259-1.39 24.281-6.14 7.023-2.36 10.584 2.83 8.691 6.33-2.307 7.19-12.32 7.84-12.801 1.98-1.703 10.98 11.424 2.44 19.79-5.5 5.746-3.36 15.232 2.14 13.015a26.364 26.364 0 0 0 4.2-2.24c4.86-3.114 9.79-8.468 8.12-15.389 0 0-13.93 18.861-7.51 17.617 6.43-1.243 10.3-3.135 11.95-10.841 1.66-7.706 4.33-21.504.21-28-4.13-6.496-6.05-7.437-9.17-20.955-3.11-13.519-8.59-82.018-12.04-93.285-3.45-11.267-28.72 3.36-28.72 3.36l3.12 23.318z" fill="#242424"/><path d="M722.968 82.264h119.84l1.792.638 106.781 38.349-2.106 32.894L948.2 170.9l-.123 7.672-.067 4.256-.101 7.325-.034 1.568-.134 8.333-.056 3.763-.067 4.603v.717l.033 4.312v.011l.023 4.357.022 2.755.034 5.096.806 131.668.112 17.337 1.221 199.45.011 2.072.034 4.39.022 4.335-69.126 28.649-33.813 14.012h-.022l-38.909 16.15-14.706 6.093-13.776 5.7-24.752 10.271-30.71 12.723.056-16.094.067-21.168.078-22.311.079-25.065.045-9.778v-.874l-.023-5.779-.045-14.437-.089-29.724-.034-11.144-.011-5.735-1.266-433.507-.011-.638z" fill="#4A657C"/><path d="M757.128 82.263v.616l.325 102.245 1.064 331.196-.056 1.825-.19 5.802-13.026-.706-6.72-.358-14.28-.773-20.63-1.12v-4.413c.067-38.304-13.127-315.896-1.221-433.72 0-.213 0-.437.067-.638l54.667.044z" fill="#4A657C"/><path d="M830.634 198.117c28.179-26.824 38.08-61.298 19.88-29.12-18.2 32.177-44.912 82.532-8.96 42.123 35.952-40.41 51.923-76.81 28.313-43.445-23.609 33.365-46.827 82.41-15.355 46.144 31.472-36.266 32.827-68.522 25.088-42.045-7.739 26.477-15.971 55.866 3.36 28 19.331-27.865 25.76-59.113 17.181-36.96-8.579 22.154-2.99 31.002-2.99 31.002" stroke="#fff" stroke-width=".28" stroke-linecap="round" stroke-linejoin="round"/><path d="M905.383 340.278c2.665 6.071 10.819 8.344 18.222 5.085 7.403-3.259 11.2-10.819 8.568-16.878-2.632-6.059-10.819-8.344-18.222-5.085-7.404 3.259-11.234 10.808-8.568 16.878z" fill="#81B38E"/><path d="M921.208 331.296s20.697 8.848 18.412 13.227c-2.284 4.379-40.768 16.162-41.216 11.111-.268-3.024 25.693-11.413 25.693-11.413l-13.182-5.735 10.293-7.19zM1083.37 654.394V896H9.427c-4.1-.963 86.14-132.16 86.14-132.16l144.569-135.52 111.059-24.483 3.472-.762 9.621.672 109.2 7.683 86.755 6.116 10.674.75 297.92 20.955 39.11 2.755 33.6 2.364 5.477.392 1.377.089 1.781.135 16.195 1.12 4.212.302 38.081 2.677 74.7 5.309z" fill="#242424"/><path d="M84.377 712.32s281.848-257.41 288.568-257.41c6.72 0 97.328 54.88 97.328 54.88l-68.689 59.45-160.653 148.87-108.45 30.05-48.104-35.84z" fill="#81B38E"/><path d="M53.947 842.811c-68.589-68.521 90.72-145.6 138.51-71.68-28.156 39.525-79.34 58.016-138.51 71.68z" fill="#4A657C"/><path d="M625.64 896H9.427v-45.226c8.143-7.672 19.119-15.109 33.847-21.537 1.646-.717 3.36-1.412 5.062-2.106a4352.255 4352.255 0 0 0 21.224-8.501c1.31-.526 2.598-1.052 3.886-1.556 58.856-23.812 104.44-43.68 104.44-43.68 2.778-1.322 5.6-2.543 8.3-3.663a112.44 112.44 0 0 1 4.144-1.624l.201-.078.728-.269c58.666-21.482 112.695.549 165.043 38.561l.706.493a669.104 669.104 0 0 1 12.152 9.151c1.848-1.12 3.696-2.24 5.533-3.36 67.614-38.741 136.875-20.093 190.982 21.044a270.853 270.853 0 0 1 27.059 23.599A292.669 292.669 0 0 1 625.64 896z" fill="#4A657C"/><path d="M362.877 756.56l-11.2-142.61-72.531 68.511-39.704 36.579L180.709 756c-4.48-3.024-5.465-3.248-2.24-.829a63.944 63.944 0 0 1 14.56 14.851c85.568-30.262 176.411 45.999 176.411 45.999l6.9-4.391-13.463-55.07z" fill="#FFCB48"/><path d="M887.194 878.752c-49.079-10.08-85.434-3.36-111.821 9.262 22.971-2.453 59.169 1.266 91.347 7.986H606.992l-52.875-40.858-15.971-12.32a224.736 224.736 0 0 1 27.686-9.195c20.563-5.432 48.418-9.688 68.522-.885 9.553 4.189 19.432 8.848 29.321 13.16 7.28 3.17 14.56 6.16 21.751 8.613.896.314 1.78.605 2.676.896 18.66 6.07 36.501 8.31 51.408.851 29.12-14.56 47.04-29.12 35.84-44.8-11.2-15.68-16.621-35.504 0-38.08 33.936-5.241 46.379 52.08-2.24 93.117.986-.302 1.972-.616 2.991-.907 38.92-11.536 97.272-17.999 121.184-7.09 17.393 7.941 6.563 23.655-10.091 20.25z" fill="#4A657C"/><path d="M307.683 655.76s24.64 34.72 50.344 31.36M354.667 666.96s-25.76-1.12-34.72-29.12" stroke="#242424" stroke-width="2.24" stroke-linecap="round" stroke-linejoin="round"/><path d="M353.178 623.661L335.65 661.36l-5.589 15.68-7.829 29.12M350.938 615.44l-26.477 32.48-17.898 12.32-12.309 21.28" stroke="#242424" stroke-width="2.24" stroke-linecap="round" stroke-linejoin="round"/><path d="M967.61 847.84c-10.315 4.715-2.05 18.513 8.266 13.798 9.979-4.569 1.724-18.379-8.266-13.798z" fill="#81B38E"/><path d="M290.905 672.56c19.544 29.635 42.807 42.022 69.362 39.2M431.857 828.24s62.642-25.76 120.815 26.88c0 0 92.848 1.12 117.465 20.16 24.618 19.04 88.38 10.08 108.517-12.32M475.482 860.72s41.44-6.72 65.296 35.28M56.188 831.611c.425-5.992 83.899-47.04 120.814-50.4" stroke="#242424" stroke-width="2.24" stroke-linecap="round" stroke-linejoin="round"/><path d="M313.653 515.39l58.173-50.03 20.876 11.2-60.412 53.021-18.637-14.191z" fill="#242424"/><path d="M1083.37 577.058v176.22l-92.464.885h-.314l-24.091.224-53.973.482h-1.344c-210.56 1.881-533.12 4.401-548.15 2.385a1.369 1.369 0 0 1-.538-.145c-1.68-2.599-3.64-21.202-5.443-45.103-.593-7.84-1.12-16.139-1.713-24.64-.437-6.72-.852-13.619-1.232-20.417a3029.177 3029.177 0 0 1-2.072-40.802c-.168-3.729-.314-7.269-.437-10.561v-1.479c-.146-3.774-.258-7.201-.347-10.192-.236-8.59-.224-13.619.112-13.081 0 0 10.248-.56 28.616-1.49h.1l16.028-.784c7-.347 14.739-.717 23.15-1.12l12.208-.56c78.165-3.573 204.299-8.646 336.448-11.144 17.17-.325 34.451-.605 51.744-.829 22.333-.302 44.666-.515 66.83-.616 11.447-.052 22.83-.074 34.149-.067 9.083 0 5.511 1.994 14.471 2.038 32.379.168 76.502-1.344 106.572-.548 14.27.366 28.17.813 41.69 1.344zM360.021 480.323l8.22-7.123 13.272 7.179-10.617 9.397-10.875-9.453z" fill="#4A657C"/><path d="M324.842 513.15l15.68 2.24s1.489-8.96 1.489-11.2c0-2.24 11.2-6.72 11.2-6.72" stroke="#fff" stroke-width=".28" stroke-linecap="round" stroke-linejoin="round"/><path d="M205.327 810.88C289.786 791.28 340.13 840 340.13 840s32.48-12.88 50.344-6.72c0 0-14.851-11.85-46.055-1.31-43.982-58.879-134.624-44.05-139.092-21.09z" fill="#FFCB48"/><path d="M130.287 731.651l193.166-181.63 72.162-65.52M973.188 849.039l-5.455 12.611M964.563 854.403l13.407 2.688" stroke="#242424" stroke-width="2.24" stroke-linecap="round" stroke-linejoin="round"/><path d="M145.642 842.632c32.121-5.376 50.288 1.052 67.86 18.356 26.04-2.654 50.4 2.128 78.96 16.8-14.884-24.64-47.465-31.55-76.865-17.774-12.074-37.397-34.888-41.675-69.955-17.382z" fill="#FFCB48"/><path d="M203.68 810.32c.09-21.862 115.17-37.766 137.603 22.4.874 2.341 69.362-22.4 107.397 41.44M146.975 841.915c18.782-13.193 47.152-19.555 65.363 9.43v.079a16.589 16.589 0 0 1 2.184 5.6c.157.854.255 1.719.291 2.587v1.266c-.358 15.31-18.592 29.825-13.44 14.773a28.848 28.848 0 0 1 11.682-14.986c.56-.381 1.12-.728 1.702-1.053.161-.106.329-.2.504-.28a45.309 45.309 0 0 1 18.659-5.197c20.687-1.613 45.338 7.471 57.747 23.251a35.634 35.634 0 0 1 7.84 18.615" stroke="#242424" stroke-width="2.24" stroke-linecap="round" stroke-linejoin="round"/><path d="M390.843 579.141l-10.908 10.27 16.968.09a32.34 32.34 0 0 1-6.06-10.36zM170.45 801.046c6.249-7.705 14.672-3.292 14.347 4.816l-14.347-4.816zM124.933 742.56c53.412-7.134 67.121 29.4 67.121 29.4l-67.121-29.4z" fill="#FFCB48"/><path d="M73.155 661.595l4.279-3.808s-5.108 33.6 11.401 34.799" stroke="#242424" stroke-width="2.24" stroke-linecap="round" stroke-linejoin="round"/><path d="M43.52 657.72l25.178 19.712a11.366 11.366 0 0 0 5.219-6.854c2.878-10.45-7.28-25.458-23.319-17.618a34.824 34.824 0 0 0-7.078 4.76z" fill="#242424"/><path d="M38.357 653.71l7.336 5.78c4.424-2.632.157-12.13-7.336-5.78z" fill="#242424"/><path d="M54.082 656.611l-.65-11.491s-18.648 25.536-35.157 8.008M63.613 670.04l6.104-.784s-13.093 17.83-3.438 29.12" stroke="#242424" stroke-width="2.24" stroke-linecap="round" stroke-linejoin="round"/><path d="M59.2 653.453l-1.03-4.301s-13.373 28.807-34.877 18.48M65.472 664.16l-1.322-3.785s-8.702 27.048-28.347 19.555" stroke="#242424" stroke-width="2.24" stroke-linecap="round" stroke-linejoin="round"/><path d="M673.128 795.446c27.239 14.896 115.774 8.77 59.718-5.264-56.056-14.033-117.353 44.699-61.812 36.815 55.541-7.885 45.057-32.48 45.057-32.48s-99.019 47.331-45.573 45.584c53.447-1.748 102.682-27.172 55.004-26.298-47.679.873-117.354 85.904-56.583 53.469 60.771-32.436 80.181-91.112 44.52-47.275-35.661 43.836-57.624 68.32-25.144 47.331" stroke="#fff" stroke-width=".28" stroke-linecap="round" stroke-linejoin="round"/><path d="M941.984 686.75s-66.371 42.56-32.816 57.49c0 0 6.72 11.95 1.49 20.91-5.231 8.96-12.679 15.68-21.628 11.2-8.948-4.48-17.158-9.71-23.116-6.72-5.959 2.99-13.44 20.16-.751 27.63 12.69 7.471 49.224 8.21 56.683-26.88a9.616 9.616 0 0 0 10.08 2.24s-10.819 54.511 19.04 49.28c29.86-5.23 12.679-25.76 9.7-28.369-2.979-2.61-14.168-6.72-11.2-18.671 13.014-2.99 17.92-10.606 19.387-17.92-1.389 5.78 33.597 9.128 28.717-31.36-8.199-28.75-21.28-36.59-21.28-36.59l-34.306-2.24z" fill="#81B38E"/><path d="M965.471 647.55s11.2 36.591 14.168 44.8c2.968 8.21 7.459 8.21 24.641 3.73 17.18-4.48 14.17-64.96-21.628-61.97-7.818 2.33-13.093 7.269-17.181 13.44z" fill="#81B38E"/><path d="M945.344 645.691c-31.651 17.405-6.294 68.376 25.357 50.972 30.599-16.823 5.241-67.805-25.357-50.972z" fill="#81B38E"/><path d="M964.496 682.08c-5.23 21.728-32.782 12.678-32.2-2.688.863-23.072 38.383-23.072 32.2 2.688z" fill="#4A657C"/><path d="M390.462 520.24c-4.748 30.475-6.059 57.703 7.84 70.56 0 0 516.97-11.368 520.196-12.32 5.801-1.725 5.936-64.691 1.12-66.08a3666.54 3666.54 0 0 0-529.156 7.84z" fill="#81B38E"/><path d="M454.739 537.779c-2.833 13.821-3.36 26.118 5.97 31.696 0 0 343.997-13.306 346.08-13.787 3.842-.874 3.259-29.266 0-29.815-118.25-1.709-235.599 2.259-352.05 11.906z" fill="#4A657C"/><path d="M473.253 611.711a70.819 70.819 0 0 0 0 35.84c5.219 18.67-3.73 53.009 8.96 69.44 12.689 16.43 348.32 5.969 365.444 4.48 17.125-1.49 21.628-1.49 22.4-21.65.773-20.16 4.1-66.83-10.819-89.969-14.918-23.14-374.539-11.413-385.985 1.859zM392.702 652.03c-31.651 16.576-6.294 65.106 25.357 48.53 30.61-16.027 5.253-64.557-25.357-48.53z" fill="#81B38E"/><path d="M932.8 669.312c-7.683 4.391-1.523 17.237 6.16 12.858 7.459-4.256 1.31-17.103-6.16-12.858z" fill="#242424"/><path d="M952.052 643.821c.639-37.251-25.357-33.97-40.32-8.96-14.963 25.01-13.182 50.053 3.73 61.969 13.361 3.36 7.459-28.369 11.2-33.6 3.741-5.23 25.39-19.409 25.39-19.409z" fill="#81B38E"/><path d="M941.76 644.291c-7.683 4.391-1.523 17.237 6.16 12.858 7.448-4.245 1.299-17.103-6.16-12.858z" fill="#4A657C"/><path d="M543.936 703.181l-5.242-78.949s31.461-15.131 38.013-.661c6.552 14.471-20.966 34.866-20.966 34.866s28.179 48.026 38.013 37.498M608.224 666.232s40.219 6.888 33.376-10.954c-6.843-17.841-48.406 0-36.814 22.579 11.592 22.58 40.902 15.053 41.585 2.05M665.456 731.92l-8.826-80.08s42.404-5.287 35.336 12.835c-7.067 18.122-24.74 13.586-24.74 13.586M730.449 646.386c-23.52.549-25.177 37.363-2.733 39.009 22.445 1.647 26.264-39.558 2.733-39.009zM762.292 649.802l-.146 8.198-.538 29.445M781.321 656.007c-5.948-3.17-13.575-4.245-18.402.481M804.817 646.005s-10.36 44.453 10.786 39.726M797.414 656.499l13.642-2.016M391.37 663.04c0 .616 8.4 33.186 22.512 21.918 14.112-11.267-8.064-32.782-19.824-21.515-11.76 11.267 1.008 43.232 15.456 25.615 14.448-17.618 20.16-36.266-.336-22.949-20.496 13.317-16.8 33.801-7.056 21.515 9.744-12.286-3.36-25.76-2.016-15.781M469.893 536.48s-2.24 26.32 2.24 31.36M940.091 646.632l8.702 10.629M940.898 656.768l8.524-10.707M971.44 650.16c11.2 9.632 13.373 22.781 7.09 39.2M969.077 703.931s5.6 7.84.56 19.04c-5.04 11.2-9.509 35.28 5.029 38.08 14.538 2.8 26.884-17.92 22.4-36.96-4.48-19.04-19.04-33.6-19.04-33.6M939.005 691.6s-36.546 17.17-27.597 64.59M962.491 656.51l2.24.751M415.08 515.391c0 3.729-18.648 41.07 7.459 76.91M428.498 516.88c0 3.729-18.648 41.07 7.459 76.91" stroke="#242424" stroke-width="2.24" stroke-linecap="round" stroke-linejoin="round"/><path d="M538.56 449.546c17.674 1.669 76.16-9.196 43.434-29.658-32.727-20.462-89.399 35.347-37.711 55.698 51.688 20.35 52.125-14.101 23.856-10.36-28.269 3.741-64.467 32.737-32.345 39.424 32.121 6.686 49.492-17.271 21.212-10.819-28.28 6.451-66.64 13.921-28.862 37.788 39.917 25.212 54.813-16.475 22.702-3.651-38.472 15.355-26.174 24.102-25.592 24.494" stroke="#fff" stroke-width=".28" stroke-linecap="round" stroke-linejoin="round"/><path d="M336.837 627.951l48.843-44.431-45.125-2.24-3.718 46.671z" fill="#81B38E"/><path d="M404.944 592.48c-9.151 2.027-24.775-54.723-6.72-75.04l91.168-3.92" stroke="#242424" stroke-width="2.24" stroke-linecap="round" stroke-linejoin="round"/><path d="M702.405 82.88L1084.49 84l-1.12-45.92s-372.52-13.44-378.669 1.68c-6.149 15.12-2.296 43.12-2.296 43.12z" fill="#4A657C"/><path d="M748.885 491.68l2.24-409.92h70.47M111.224 743.68c-51.408 10.808-73.707 37.811-71.601 78.4M9.427 772.8l25.167 16.8" stroke="#242424" stroke-width="2.24" stroke-linecap="round" stroke-linejoin="round"/><path d="M108.715 731.035l17.148 11.951-11.368.739-5.78-12.69z" fill="#4A657C"/><path d="M9.987 656.32L125.213 742s48.541-7.268 67.2 29.12" stroke="#242424" stroke-width="2.24" stroke-linecap="round" stroke-linejoin="round"/></g><defs><clipPath id="a"><path fill="#fff" d="M0 0h1084v896H0z"/></clipPath></defs></svg>