<svg width="1084" height="896" viewBox="0 0 1084 896" fill="none" xmlns="http://www.w3.org/2000/svg"><g clip-path="url(#a)"><path d="M158.611 804.552c-4.133-53.973-82.97-139.743-98.1-65.061-15.132 74.682 190.164 9.856 155.332-73.92-34.832-83.776-179.625-47.97-123.558-31.786 56.067 16.184 194.88-69.204 147.941-144.356-23.05-36.96-42.392-75.343-47.903-116.704M872.645 713.742c39.972 16.196 111.036-2.553 67.368-11.939-43.669-9.385-105.863 40.925-56.997 52.864 48.865 11.939 48.003-35.47 25.905-7.672-22.881 28.807-16.452 37.162-.739 63.09 15.333 25.301 2.083 33.409-5.309 39.569a30.153 30.153 0 0 1-4.312 3.069" stroke="#fff" stroke-width=".28" stroke-linecap="round" stroke-linejoin="round"/><path d="M1084 243.186v356.339c-.18.126-.36.242-.55.347-4.37 2.86-8.85 5.503-13.44 7.93a170.795 170.795 0 0 1-17.13 7.94c-2.11.844-4.23 1.639-6.37 2.386a164.532 164.532 0 0 1-27.49 7.134h-.08c-.78.124-1.57.258-2.35.37a152.423 152.423 0 0 1-51.4-.795l-1.12-.213c-31.248-6.171-61.51-22.736-86.777-51.811 42.28-19.32 31.83-78.523 23.464-68.97-1.893 2.162-6.799 20.003-46.122 41.888a344.466 344.466 0 0 1-24.091-35.011s-49.661 29.523-51.789 28.504c-2.128-1.019 13.306-48.843 17.147-79.89 0 0-20.104-31.102-27.787-57.758l-.235-.829a82.429 82.429 0 0 1-2.072-9.318c-3.539-22.748-4.48-46.895-5.298-67.2-.246-5.735-.481-11.2-.772-16.128.619-9.334 1.515-18.223 2.688-26.667C783.56 128.99 892.48 116.693 991.477 173.275a326.648 326.648 0 0 1 33.053 21.717 372.356 372.356 0 0 1 53.23 48.585c1.04 1.121 2.07 1.793 3.09 2.969s2.14-4.57 3.15-3.36z" fill="#fff"/><path d="M470.128 742.459s105.952-61.174 148.96 25.491l14.168 28.885L531.84 852.32l-61.712-109.861z" fill="#FF8643"/><path d="M774.186 688.476a254.94 254.94 0 0 1-17.226 36.847A252.119 252.119 0 0 1 734 759.136c-8.154 10.226-16.285 19.208-23.744 27.81-4.48 5.174-8.736 10.203-12.578 15.277-16.934 22.277-24.718 54.656-13.932 93.878H263.835c14.751-34.72 64.266-156.497 51.207-197.12-15.3-47.577-47.589-119.84-37.397-143.595 10.192-23.755 34.843-28.885 51.845-17.842a97.777 97.777 0 0 1 19.476 17.73 173.8 173.8 0 0 1 34.048 62.137c7.986 26.208 24.741 46.301 47.477 43.389h.381c1.12-.157 2.15-.347 3.237-.604a43.827 43.827 0 0 0 5.376-1.636 65.711 65.711 0 0 0 18.973-11.637 108.967 108.967 0 0 0 8.232-7.705l1.299-1.355 3.64-3.876c3.461-3.684 7.123-7.638 10.987-11.793 3.864-4.155 7.638-8.255 11.693-12.611 2.24-2.408 4.48-4.861 6.832-7.336 4.368-4.671 8.859-9.453 13.44-14.303 7.84-8.243 15.926-16.643 24.147-24.92l2.554-2.553c10.08-10.08 20.216-19.836 30.24-28.885a398.99 398.99 0 0 1 4.692-4.167l1.008-.884a503.78 503.78 0 0 1 9.14-7.84c4.48-3.696 8.825-7.168 13.126-10.383 12.454-9.352 24.091-16.419 34.171-19.958 45.92-16.139 72.24 2.554 19.555 86.654.168-.201 2.957-3.528 7.448-8.153 13.373-13.776 41.799-39.066 61.354-28.359a63.413 63.413 0 0 1 3.472 2.027c23.061 14.348 25.155 34.239 20.294 46.391a97.449 97.449 0 0 1-5.913 11.166 30.232 30.232 0 0 1 11.659-3.505c3.669-.291 7.34.549 10.517 2.408a36.43 36.43 0 0 1 5.869 4.278c15.87 14.123 22.198 43.725 6.272 87.215z" fill="#fff"/><path d="M345.92 550.435c4.48-13.025 196-109.894 207.648-110.174 11.648-.28 181.586 319.76 182.717 329.392 1.131 9.632-180.6 123.48-198.733 120.646-18.133-2.833-196.213-326.838-191.632-339.864z" fill="#242424"/><path d="M388.771 574.459c3.528-10.148 152.701-85.602 161.751-85.826 9.049-.224 141.478 249.088 142.329 256.592.851 7.504-140.784 99.68-154.907 97.518-14.123-2.161-152.701-258.104-149.173-268.284z" fill="#FFCB48"/><path d="M286.56 620.379c43.579 5.724 45.92-52.64 16.15-86.665" stroke="#242424" stroke-width="2.24" stroke-linecap="round" stroke-linejoin="round"/><path d="M552.392 601.014c-46.939-47.309-123.928 41.44-54.88 80.013 54.622 30.542 94.998-46.883 54.88-80.013zM569.629 513.946c-28.415-2.386-55.821 29.4-21.448 62.585 18.121 17.495 39.637 4.771 48.473-13.798l-27.025-48.787z" fill="#FF8643"/><path d="M430.682 663.712s14.728-34.496 54.465-21.28c47.04 18.088 21.527 70.235 1.703 73.64-2.7 21.079 14.728 14.448 14.728 14.448l-20.967 23.24c-11.737-16.161-30.811-53.032-49.929-90.048z" fill="#FF8643"/><path d="M438.118 521.539c1.703 0 34.564-17.561 34.564-17.561" stroke="#fff" stroke-width="2.24" stroke-linecap="round" stroke-linejoin="round"/><path d="M575.229 600.846c7.37 43.053-24.64 44.106-24.64 44.106-11.458 50.534 40.23 83.921 68.32 57.288 14.885 8.265 19.264 24.92 19.264 24.92 11.57 0 20.406-48.72 21.538-47.578 1.131 1.143-43.68-83.395-44.028-82.454-.347.941-4.569 16.677-12.644 20.709-22.143 8.489-23.711-19.164-27.81-16.991z" fill="#FF8643"/><path d="M551.149 485.856s-18.693 24.36-10.764 29.456c0 0-25.491 38.517-5.667 36.254 19.824-2.262 13.597-11.334 13.597-11.334s30.094-7.47 27.261-15.971c-2.296-7.258-23.263-40.914-24.427-38.405z" fill="#242424"/><path d="M549.76 549.293s-14.728 8.501-7.93 14.157c6.799 5.656 15.3-1.12 11.335-10.763M574.098 535.136s-14.728 8.501-7.93 14.157c6.798 5.656 17.002 1.12 16.43-6.228M562.763 558.354s-9.061 11.894-3.36 11.334c5.701-.56 7.93-9.061 7.93-9.061" stroke="#242424" stroke-width="2.24" stroke-linecap="round" stroke-linejoin="round"/><path d="M553.221 558.735c3.237-1.58 5.096-2.476 3.987-5.925-1.109-3.45 1.938-5.421 3.651-4.267 1.714 1.153 5.275 1.411 6.07-.471M574.658 642.197c-12.634 6.115-4.144 23.677 8.5 17.562M585.421 682.976c8.545.761 12.107-2.923 8.501-13.026" stroke="#242424" stroke-width="2.24" stroke-linecap="round" stroke-linejoin="round"/><path d="M622.751 796.69c-19.791-17.808-7.84-59.36 18.2-63.84l-14.728-18.122c9.329-3.192 32.009-38.237 32.009-38.237.459-.683 36.411 70.011 36.546 71.68.078.963-72.027 48.519-72.027 48.519z" fill="#242424"/><path d="M469.277 663.712l6.798 9.061s9.632-3.36 10.203 0c.572 3.36-4.48 8.501-4.48 8.501M470.979 698.88c12.32 5.107 30.599-5.667 27.194-17.562M515.174 627.469s-2.833 29.456 2.834 26.622c5.667-2.833 8.501-17.561 8.501-17.561M489.672 609.336s4.48-1.12 5.667 4.48M496.47 601.439c3.618.28 5.376 2.498 5.668 6.228M509.507 596.311c4.122 1.444 4.48 4.872 3.36 9.06M522.533 596.311c2.24.302 3.024 2.822 2.24 7.929M535.57 596.311a7.908 7.908 0 0 1 .571 10.192M575.789 575.355c3.617-.526 6.384-1.904 6.227-6.227M515.454 665.336s7.84 2.072 10.349-2.912c2.509-4.984 5.79 6.955 1.266 9.778-4.525 2.822-14.605-3.92-11.615-6.866zM703.838 660.744c-1.556-11.312 15.456-60.39 47.164-65.845M647.749 582.568c24.953-36.96 61.477-58.061 80.169-40.645M766.726 601.687c-3.539.1 2.24 86.576 7.65 90.07" stroke="#242424" stroke-width="2.24" stroke-linecap="round" stroke-linejoin="round"/><path d="M508.018 715.389c6.316 1.658 43.075-15.781 30.307-17.181-12.768-1.4-22.871 13.552-9.543 19.847 13.328 6.294 43.916-2.151 48.16 3.147" stroke="#fff" stroke-width=".28" stroke-linecap="round" stroke-linejoin="round"/><path d="M448.904 604.095l12.331 26.656-35.56 9.173-11.379-27.093 34.608-8.736z" fill="#FF8643"/><path d="M390.53 582.153l2.497 6.462c16.576 35.023 61.824 10.394 63-8.052 2.677-42.09-63.515-18.447-65.497 1.59z" fill="#242424"/><path d="M452.69 569.89c-19.623-14.415-51.666 1.187-59.618 19.04l14.022 29.31c33.556 14.807 73.159-28.112 45.596-48.35z" fill="#FF8643"/><path d="M435.162 580.484s9.486 2.33 8.22 4.66c-1.265 2.329-13.91 5.241-13.91 5.241" stroke="#242424" stroke-width="2.24" stroke-linecap="round" stroke-linejoin="round"/><path d="M624.903 809.207l-1.88 1.258c-4.421 2.959-5.607 8.941-2.649 13.362 2.959 4.421 8.941 5.607 13.362 2.648l1.88-1.258c4.422-2.958 5.607-8.941 2.649-13.362-2.959-4.421-8.941-5.606-13.362-2.648z" stroke="#fff" stroke-width="2.24" stroke-linecap="round" stroke-linejoin="round"/><path d="M415.36 634.614s8.008-2.34 10.83 3.36c0 0-1.702-18.692 5.096-20.955 6.799-2.262 8.535 11.301 8.535 11.301s0-13.026 7.369-10.192c7.37 2.834 4.816 7.078 4.816 7.078s6.519-11.614 15.019-1.982c8.501 9.632 5.096 7.358 5.096 7.358s6.799-11.894 11.335-6.798c4.536 5.096 3.36 9.632 3.36 9.632 0-2.24 7.369-11.894 9.632-4.48a74.495 74.495 0 0 1 2.912 13.541s7.369-6.799 5.096 1.702c-2.274 8.501-7.93 10.192-7.93 10.192s-24.36-28.885-65.15 10.763l-16.016-30.52z" fill="#242424"/><path d="M582.307 578.469l5.667 8.209 20.396-3.113-12.746-22.938-13.317 17.842z" fill="#FF8643"/><path d="M608.941 581.862c-28.325-.571-58.072 22.4-68.32 43.904-10.763 19.824 1.12 47.578 18.133 77.034 17.012 29.456 2.553 34.832 2.553 34.832 13.597 12.745 24.64-4.245 24.64-4.245s3.819 6.227 10.203 2.553c6.384-3.673 2.834-8.209 3.36-9.912.527-1.702 3.685 9.061 12.04 6.519 8.356-2.543 5.735-13.866 5.096-12.32 12.981 8.064 15.68 3.225 17.988-2.128-1.602-8.12-6.944-13.44-14.728-16.991-65.151 38.517-71.949-53.76-71.949-54.947 24.08.247 31.729-25.491 28.325-45.92-5.096 9.632 31.225 41.507 40.23-1.982l-7.571-16.397zM471.831 741.608c7.929-1.355 11.782-6.082 18.132-13.026 0 0 39.088-3.114 47.04 19.264l-47.331 27.194-17.841-33.432z" fill="#242424"/><path d="M490.165 771.624c43.814-45.539 96.589-26.958 108.573 40.51-54.287 35.034-61.186 31.719-61.186 31.719-.437.392-7.616-2.643-47.387-72.229z" fill="#FF8643"/><path d="M540.666 763.135s9.094 11.905 14.694 13.585c5.6 1.68 19.264-.571 19.264-.571s-6.798 18.122-22.098 13.026M524.235 809.861l4.536 4.536M538.079 805.639l1.209 5.331M552 801.651l1.702 6.228M571.824 799.669l1.131 5.096M587.123 795.133l-1.702 5.096M579.765 810.432l3.965 2.262M540.106 820.624l-1.703 3.965M593.921 800.229v7.369M554.24 818.921c1.019 4.088 12.32 1.255 11.334-2.833" stroke="#242424" stroke-width="2.24" stroke-linecap="round" stroke-linejoin="round"/><path d="M633.883 646.161c-11.424-6.899-17.561 6.967-7.548 12.41-9.767 2.61-1.759 10.349-1.759 10.349-3.293.201.179 7.526 3.472 7.325M487.981 577.92c.907-6.205-7.907-34.451-12.387-26.32s19.252 11.905 23.228 8.243" stroke="#fff" stroke-width=".28" stroke-linecap="round" stroke-linejoin="round"/><path d="M632.17 791.168s65.721-37.408 66.852-41.888c1.132-4.48-36.825-68.544-36.825-68.544M558.519 490.526l13.025 26.197" stroke="#fff" stroke-width="2.24" stroke-linecap="round" stroke-linejoin="round"/><path d="M518.288 686.941c3.237 15.053 1.691 29.613-11.334 43.613" stroke="#242424" stroke-width="2.24" stroke-linecap="round" stroke-linejoin="round"/><path d="M1084 184.498v59.852c-1.03.908-2.07 1.804-3.11 2.7-48.99 42.145-111.791 76.16-172.226 102.491a1283.169 1283.169 0 0 1-140.762 51.15c-41.44 12.443-68.689 18.503-68.689 18.503s29.96-45.058 34.72-90.944c1.478-14.101.571-28.28-4.312-41.261a66.928 66.928 0 0 0-1.983-4.738c-25.76-55.429-7.952-130.693 105.829-175.582 113.781-44.89 154.056-7.123 177.933 22.68a193.41 193.41 0 0 0 72.6 55.149z" fill="#fff"/><path d="M727.84 287.235c192.752-26.186 295.8-142.24 294.19-145.51M732.645 328.429c192.752-26.186 247.934-89.208 319.045-160.742M784.333 534.072c4.256-6.574 15.176-17.92 36.064-22.769M1084 238.358a563.03 563.03 0 0 1-6.2 5.22c-48.95 40.622-104.994 76.16-169.125 105.963A967.342 967.342 0 0 1 768.16 401.52a1110.625 1110.625 0 0 1-38.942 10.427" stroke="#242424" stroke-width="2.24" stroke-linecap="round" stroke-linejoin="round"/><path d="M988.038 389.065L1084 432.521v158.38l-.65-.74-9.24-10.561-4.1 28.201-3.76 25.928-2.24 15.311-8.7-15.355-5.17-9.095-3.65-6.451-10.87-19.186-1.3-2.307-8.39-14.784a86.895 86.895 0 0 1-.48 24.842 56.956 56.956 0 0 1-6.53 18.592c-.08.134-.16.269-.25.403-.37.661-.77 1.31-1.19 1.938-8.16 12.622-20.84 19.98-34.168 24.203h-.123c-27.149 8.489-56.997 3.92-56.997 3.92 17.55-2.923 30.128-14.314 38.942-30.901 24.506-46.032 20.16-132.16 13.81-188.63-3.629-32.256-7.941-54.88-7.941-54.88l17.035 7.716z" fill="#fff"/><path d="M1084 652.512v123.525c-15.77-66.797-36.61-119.84-66.54-148.378l-.12-.291-.78-1.714-4.07-9.094 12.96-9.867 7.09-5.399 3.08-2.34 20.6-15.68 26.88-20.452.28 27.362.1 9.71.3 27.664.22 24.954z" fill="#fff"/><path d="M1084 627.401l-.26.135a52.647 52.647 0 0 1-17.49 6.193c-3.62.582-7.31.582-10.92 0a30.78 30.78 0 0 1-8.1-2.565 42.171 42.171 0 0 0 2.93-6.529 80.083 80.083 0 0 0 2.72-8.837 126.33 126.33 0 0 0 3.36-32.48c-.28-17.08-3.42-38.797-12.32-65.251 1.33 33.454-2.51 59.057-9.54 78.624-.57 1.59-1.12 3.136-1.78 4.648a100.531 100.531 0 0 1-13.53 23.979c-.1.146-.2.28-.32.426-.43.548-.86 1.12-1.3 1.635a80.752 80.752 0 0 1-34.138 24.461h-.123c-29.288 11.121-58.117 3.92-58.117 3.92 17.114-4.324 30.397-13.9 38.987-31.114 13.093-26.242 15.288-70.246 3.618-140.56M906.906 370.16c67.838-40.79 120.184 41.843 52.337 82.634M921.712 381.92c27.373-7.459 43.68 8.4 41.44 38.08M958.123 393.12l-11.2 21.84" stroke="#242424" stroke-width="2.24" stroke-linecap="round" stroke-linejoin="round"/></g><defs><clipPath id="a"><path fill="#fff" d="M0 0h1084v896H0z"/></clipPath></defs></svg>